# Blender 5.2.0 LTS
# www.blender.org
mtllib fist1.mtl
o 1
v -2.000000 -0.446993 0.446993
v 2.000000 -0.446993 -0.446993
v 1.946993 -0.446993 0.500000
v 1.946993 -0.500000 0.446993
v 2.000000 -0.446993 0.446993
v 2.000000 -0.446993 -0.446993
v 1.946993 -0.500000 -0.446993
v 1.946993 -0.446993 -0.500000
v 1.946993 0.446993 0.500000
v 2.000000 0.446993 0.446993
v 1.946993 0.500000 0.446993
v 1.946993 0.500000 -0.446993
v 2.000000 0.446993 -0.446993
v 1.946993 0.446993 -0.500000
v -1.946993 -0.446993 0.500000
v -2.000000 -0.446993 0.446993
v -1.946993 -0.500000 0.446993
v -1.946993 -0.500000 -0.446993
v -2.000000 -0.446993 -0.446993
v -1.946993 -0.446993 -0.500000
v -1.946993 0.446993 0.500000
v -1.946993 0.500000 0.446993
v -2.000000 0.446993 0.446993
v -2.000000 0.446993 -0.446993
v -1.946993 0.500000 -0.446993
v -1.946993 0.446993 -0.500000
v 2.000000 -0.446993 0.446993
v 1.946993 0.446993 0.500000
v 1.946993 -0.446993 0.500000
v 2.000000 0.446993 0.446993
v 2.000000 0.446993 -0.446993
v 1.946993 -0.446993 -0.500000
v 1.946993 0.446993 -0.500000
v 2.000000 -0.446993 -0.446993
v -2.000000 0.446993 0.446993
v -2.000000 -0.446993 0.446993
v -1.946993 -0.446993 0.500000
v -1.946993 0.446993 0.500000
v -2.000000 -0.446993 -0.446993
v -2.000000 0.446993 -0.446993
v -1.946993 0.446993 -0.500000
v -1.946993 -0.446993 -0.500000
v 1.946993 0.500000 0.446993
v -1.946993 0.500000 0.446993
v -1.946993 0.446993 0.500000
v 1.946993 0.446993 0.500000
v 1.946993 0.446993 -0.500000
v -1.946993 0.446993 -0.500000
v -1.946993 0.500000 -0.446993
v 1.946993 0.500000 -0.446993
v -1.946993 -0.500000 0.446993
v 1.946993 -0.500000 0.446993
v 1.946993 -0.446993 0.500000
v -1.946993 -0.446993 0.500000
v -1.946993 -0.446993 -0.500000
v 1.946993 -0.446993 -0.500000
v 1.946993 -0.500000 -0.446993
v -1.946993 -0.500000 -0.446993
v 1.946993 -0.500000 0.446993
v 1.946993 0.446993 -0.500000
v -1.946993 0.500000 0.446993
v -1.946993 0.446993 0.500000
vn 0.3416 -0.3416 0.8756
vn 0.3419 -0.8755 0.3416
vn 0.8755 -0.3419 0.3415
vn 0.8755 -0.3419 -0.3416
vn 0.3419 -0.8755 -0.3415
vn 0.3416 -0.3416 -0.8756
vn 0.3416 0.3416 0.8756
vn 0.8755 0.3419 0.3416
vn 0.3419 0.8755 0.3415
vn 0.3419 0.8755 -0.3416
vn 0.8755 0.3419 -0.3415
vn 0.3416 0.3416 -0.8756
vn -0.3416 -0.3416 0.8756
vn -0.8755 -0.3419 0.3416
vn -0.3419 -0.8755 0.3415
vn -0.3419 -0.8755 -0.3416
vn -0.8755 -0.3419 -0.3415
vn -0.3416 -0.3416 -0.8756
vn -0.3416 0.3416 0.8756
vn -0.3419 0.8755 0.3416
vn -0.8755 0.3419 0.3415
vn -0.8755 0.3419 -0.3416
vn -0.3419 0.8755 -0.3415
vn -0.3416 0.3416 -0.8756
vn 0.8756 -0.3416 0.3416
vn 0.8756 0.3416 0.3416
vn 0.8756 0.3416 -0.3416
vn 0.8756 -0.3416 -0.3416
vn -0.8756 0.3416 0.3416
vn -0.8756 -0.3416 0.3416
vn -0.8756 -0.3416 -0.3416
vn -0.8756 0.3416 -0.3416
vn 0.3416 0.8756 0.3416
vn -0.3416 0.8756 0.3416
vn -0.3416 0.8756 -0.3416
vn 0.3416 0.8756 -0.3416
vn -0.3416 -0.8756 0.3416
vn 0.3416 -0.8756 0.3416
vn 0.3416 -0.8756 -0.3416
vn -0.3416 -0.8756 -0.3416
vt 0.372650 0.370304
vt 0.478632 0.370304
vt 0.372650 0.481216
vt 0.478632 0.481216
vt 0.478632 0.019678
vt 0.372650 0.019678
vt 0.478632 0.130590
vt 0.372650 0.130590
vt 0.478632 0.363148
vt 0.478632 0.137746
vt 0.365812 0.363148
vt 0.365812 0.137746
vt 0.140171 0.137746
vt 0.140171 0.363148
vt 0.252991 0.137746
vt 0.252991 0.363148
s 1
f 3/1/1 4/1/2 5/1/3
f 4/1/2 6/2/4 5/1/3
f 6/2/4 4/1/2 7/2/5
f 7/2/5 8/2/6 6/2/4
f 9/3/7 10/3/8 11/3/9
f 12/4/10 11/3/9 10/3/8
f 10/3/8 13/4/11 12/4/10
f 14/4/12 12/4/10 13/4/11
f 15/5/13 16/5/14 17/5/15
f 18/6/16 17/5/15 16/5/14
f 16/5/14 19/6/17 18/6/16
f 20/6/18 18/6/16 19/6/17
f 21/7/19 22/7/20 23/7/21
f 24/8/22 23/7/21 22/7/20
f 22/7/20 25/8/23 24/8/22
f 26/8/24 24/8/22 25/8/23
f 27/1/25 28/3/7 29/1/1
f 28/3/7 27/1/25 30/3/26
f 31/4/27 32/2/6 33/4/12
f 32/2/6 31/4/27 34/2/28
f 35/7/29 36/5/30 37/5/13
f 37/5/13 38/7/19 35/7/29
f 39/6/31 40/8/32 41/8/24
f 41/8/24 42/6/18 39/6/31
f 43/9/33 44/10/34 45/10/19
f 43/9/33 45/10/19 46/9/7
f 47/11/12 48/12/24 49/12/35
f 47/11/12 49/12/35 50/11/36
f 51/13/37 52/14/38 53/14/1
f 51/13/37 53/14/1 54/13/13
f 55/15/18 56/16/6 57/16/39
f 55/15/18 57/16/39 58/15/40
