# Blender 5.2.0 LTS
# www.blender.org
mtllib fist0.mtl
o 0
v -1.987505 0.444323 -0.444178
v 1.987317 -0.444175 -0.444114
v 1.939260 -0.439349 0.492455
v 1.937394 -0.490492 0.443722
v 1.990403 -0.437487 0.443721
v 1.990413 -0.437507 -0.443583
v 1.937404 -0.490512 -0.443583
v 1.939271 -0.439371 -0.492318
v 1.939290 0.439409 0.492435
v 1.990432 0.437542 0.443702
v 1.937427 0.490550 0.443700
v 1.937437 0.490531 -0.443604
v 1.990442 0.437522 -0.443603
v 1.939301 0.439388 -0.492337
v -1.939498 -0.439220 0.492411
v -1.990640 -0.437354 0.443676
v -1.937635 -0.490363 0.443678
v -1.937625 -0.490382 -0.443626
v -1.990630 -0.437374 -0.443628
v -1.939487 -0.439241 -0.492361
v -1.939469 0.439539 0.492392
v -1.937602 0.490680 0.443656
v -1.990611 0.437675 0.443657
v -1.990601 0.437655 -0.443647
v -1.937592 0.490660 -0.443648
v -1.939458 0.439517 -0.492381
v 1.990556 -0.446966 0.437737
v 1.990586 0.447020 0.437718
v 1.937579 0.447023 0.490724
v 1.937549 -0.446963 0.490744
v 1.990596 0.447001 -0.437619
v 1.937560 -0.446985 -0.490607
v 1.937590 0.447001 -0.490626
v 1.990566 -0.446985 -0.437599
v -1.990764 0.447153 0.437673
v -1.990794 -0.446833 0.437693
v -1.937788 -0.446833 0.490700
v -1.937758 0.447153 0.490680
v -1.990784 -0.446852 -0.437644
v -1.990754 0.447134 -0.437664
v -1.937747 0.447131 -0.490670
v -1.937777 -0.446855 -0.490650
v 1.946906 0.490704 0.437716
v -1.947080 0.490834 0.437672
v -1.947083 0.437828 0.490681
v 1.946903 0.437698 0.490724
v 1.946914 0.437676 -0.490626
v -1.947072 0.437806 -0.490670
v -1.947071 0.490815 -0.437664
v 1.946916 0.490684 -0.437620
v -1.947113 -0.490516 0.437694
v 1.946873 -0.490647 0.437738
v 1.946874 -0.437639 0.490744
v -1.947112 -0.437508 0.490700
v -1.947101 -0.437530 -0.490650
v 1.946885 -0.437660 -0.490607
v 1.946883 -0.490666 -0.437599
v -1.947104 -0.490536 -0.437642
v 1.934404 -0.496769 0.444200
v 1.934446 0.444139 -0.496749
v -1.934612 0.496957 0.444135
v -1.934614 0.444290 0.496803
vn 0.3383 -0.3384 0.8781
vn 0.3435 -0.8731 0.3458
vn 0.8732 -0.3434 0.3458
vn 0.8731 -0.3436 -0.3458
vn 0.3434 -0.8732 -0.3458
vn 0.3384 -0.3384 -0.8781
vn 0.3384 0.3383 0.8781
vn 0.8731 0.3435 0.3458
vn 0.3434 0.8732 0.3458
vn 0.3436 0.8731 -0.3458
vn 0.8732 0.3434 -0.3458
vn 0.3383 0.3383 -0.8781
vn -0.3384 -0.3383 0.8781
vn -0.8732 -0.3435 0.3458
vn -0.3434 -0.8732 0.3458
vn -0.3436 -0.8731 -0.3458
vn -0.8732 -0.3434 -0.3458
vn -0.3383 -0.3384 -0.8781
vn -0.3383 0.3384 0.8781
vn -0.3435 0.8732 0.3458
vn -0.8732 0.3435 0.3458
vn -0.8731 0.3436 -0.3458
vn -0.3434 0.8732 -0.3458
vn -0.3383 0.3383 -0.8781
vn 0.8756 -0.3416 0.3416
vn 0.8756 0.3416 0.3416
vn 0.3416 0.3416 0.8756
vn 0.3416 -0.3416 0.8756
vn 0.8756 0.3416 -0.3416
vn 0.3416 -0.3416 -0.8756
vn 0.3416 0.3416 -0.8756
vn 0.8756 -0.3416 -0.3416
vn -0.8756 0.3416 0.3416
vn -0.8756 -0.3416 0.3416
vn -0.3416 -0.3416 0.8756
vn -0.3416 0.3416 0.8756
vn -0.8756 -0.3415 -0.3416
vn -0.8756 0.3416 -0.3416
vn -0.3416 0.3416 -0.8756
vn -0.3416 -0.3416 -0.8756
vn 0.3416 0.8756 0.3416
vn -0.3416 0.8756 0.3416
vn -0.3415 0.8756 -0.3416
vn 0.3416 0.8755 -0.3416
vn -0.3416 -0.8755 0.3416
vn 0.3416 -0.8756 0.3416
vn 0.3415 -0.8756 -0.3415
vn -0.3416 -0.8756 -0.3416
vt 0.528205 0.370304
vt 0.634188 0.370304
vt 0.528205 0.481216
vt 0.634188 0.481216
vt 0.634188 0.019678
vt 0.528205 0.019678
vt 0.634188 0.130590
vt 0.528205 0.130590
vt 0.634188 0.363148
vt 0.634188 0.137746
vt 0.972650 0.363148
vt 0.972650 0.137746
vt 0.747009 0.137746
vt 0.747009 0.363148
vt 0.859829 0.137746
vt 0.859829 0.363148
s 1
f 3/1/1 4/1/2 5/1/3
f 4/1/2 6/2/4 5/1/3
f 6/2/4 4/1/2 7/2/5
f 7/2/5 8/2/6 6/2/4
f 9/3/7 10/3/8 11/3/9
f 12/4/10 11/3/9 10/3/8
f 10/3/8 13/4/11 12/4/10
f 14/4/12 12/4/10 13/4/11
f 15/5/13 16/5/14 17/5/15
f 18/6/16 17/5/15 16/5/14
f 16/5/14 19/6/17 18/6/16
f 20/6/18 18/6/16 19/6/17
f 21/7/19 22/7/20 23/7/21
f 24/8/22 23/7/21 22/7/20
f 22/7/20 25/8/23 24/8/22
f 26/8/24 24/8/22 25/8/23
f 27/1/25 28/3/26 29/3/27
f 27/1/25 29/3/27 30/1/28
f 31/4/29 32/2/30 33/4/31
f 32/2/30 31/4/29 34/2/32
f 35/7/33 36/5/34 37/5/35
f 35/7/33 37/5/35 38/7/36
f 39/6/37 40/8/38 41/8/39
f 41/8/39 42/6/40 39/6/37
f 43/9/41 44/10/42 45/10/36
f 43/9/41 45/10/36 46/9/27
f 47/11/31 48/12/39 49/12/43
f 47/11/31 49/12/43 50/11/44
f 51/13/45 52/14/46 53/14/28
f 51/13/45 53/14/28 54/13/35
f 55/15/40 56/16/30 57/16/47
f 55/15/40 57/16/47 58/15/48
