mtllib glassshartrbxm.mtl
o Mesh
usemtl material64
v -0.5026980042457581 0.11752350628376007 2.01426238110808e-17
v -0.5105640292167664 0.021489497274160385 8.381850098321269e-18
v -0.4835120141506195 0.04575849696993828 0.027814999222755432
v -0.4819910228252411 0.025831494480371475 0.027814999222755432
v -0.48047101497650146 0.005903497338294983 0.027814999222755432
v -0.5354809761047363 0.0059724971652030945 6.481565595561361e-18
v -0.5105640292167664 0.021489497274160385 8.381850098321269e-18
v -0.4835120141506195 0.04575849696993828 -0.027814999222755432
v -0.4819910228252411 0.025831494480371475 -0.027814999222755432
v -0.5026980042457581 0.11752350628376007 2.01426238110808e-17
v -0.48047101497650146 0.005903497338294983 -0.027814999222755432
v -0.5354809761047363 0.0059724971652030945 6.481565595561361e-18
v -0.4243970215320587 -0.08726450800895691 0.027814999222755432
v -0.4611470103263855 -0.10376650094985962 -6.957585704209089e-18
v -0.4641460180282593 -0.12508350610733032 -9.568165235884607e-18
v -0.44478100538253784 -0.08102349936962128 0.027814999222755432
v -0.506566047668457 -0.04430050402879715 3.248987860770535e-19
v -0.4611470103263855 -0.10376650094985962 -6.957585704209089e-18
v -0.4774300158023834 -0.03395150229334831 0.027814999222755432
v -0.5105570554733276 -0.02367650344967842 2.850610388235849e-18
v -0.47895002365112305 -0.014023501425981522 0.027814999222755432
v -0.48047101497650146 0.005903497338294983 0.027814999222755432
v -0.5354809761047363 0.0059724971652030945 6.481565595561361e-18
v -0.506566047668457 -0.04430050402879715 3.248987860770535e-19
v -0.44478100538253784 -0.08102349936962128 -0.027814999222755432
v -0.4611470103263855 -0.10376650094985962 -6.957585704209089e-18
v -0.4774300158023834 -0.03395150229334831 -0.027814999222755432
v -0.5105570554733276 -0.02367650344967842 2.850610388235849e-18
v -0.47895002365112305 -0.014023501425981522 -0.027814999222755432
v -0.48047101497650146 0.005903497338294983 -0.027814999222755432
v -0.5354809761047363 0.0059724971652030945 6.481565595561361e-18
v -0.4243970215320587 -0.08726450800895691 -0.027814999222755432
v -0.4611470103263855 -0.10376650094985962 -6.957585704209089e-18
v -0.4641460180282593 -0.12508350610733032 -9.568165235884607e-18
v -0.5026980042457581 0.11752350628376007 2.01426238110808e-17
v -0.4835120141506195 0.04575849696993828 0.027814999222755432
v -0.4460890293121338 0.10208150744438171 0.027814999222755432
v -0.46267402172088623 0.12292249500751495 2.080381078139036e-17
v -0.4227660000324249 0.14013749361038208 2.291203939115936e-17
v -0.41025200486183167 0.11792249977588654 0.027814999222755432
v -0.37441402673721313 0.13376249372959137 0.027814999222755432
v -0.4227660000324249 0.14013749361038208 2.291203939115936e-17
v -0.4307750165462494 0.15984749794006348 2.53258185930381e-17
v -0.37441402673721313 0.13376249372959137 -0.027814999222755432
v -0.41025200486183167 0.11792249977588654 -0.027814999222755432
v -0.4227660000324249 0.14013749361038208 2.291203939115936e-17
v -0.4307750165462494 0.15984749794006348 2.53258185930381e-17
v -0.4460890293121338 0.10208150744438171 -0.027814999222755432
v -0.4227660000324249 0.14013749361038208 2.291203939115936e-17
v -0.46267402172088623 0.12292249500751495 2.080381078139036e-17
v -0.5026980042457581 0.11752350628376007 2.01426238110808e-17
v -0.4835120141506195 0.04575849696993828 -0.027814999222755432
v 0.4332579970359802 0.021889496594667435 8.430835734196659e-18
v 0.5354809761047363 0.07727949321269989 1.5214154335675527e-17
v 0.46824899315834045 0.06617049872875214 0.021395999938249588
v 0.4241909980773926 0.04493049904704094 0.021395999938249588
v 0.39959797263145447 0.002781495451927185 6.090780658772934e-18
v 0.31880897283554077 -0.01421850174665451 0.021395999938249588
v 0.31880897283554077 -0.01421850174665451 -0.021395999938249588
v 0.4241909980773926 0.04493049904704094 -0.021395999938249588
v 0.39959797263145447 0.002781495451927185 6.090780658772934e-18
v 0.4332579970359802 0.021889496594667435 8.430835734196659e-18
v 0.46824899315834045 0.06617049872875214 -0.021395999938249588
v 0.5354809761047363 0.07727949321269989 1.5214154335675527e-17
v 0.2782929837703705 -0.07625750452280045 -3.5887048895878344e-18
v 0.4095649719238281 -0.0025655031204223633 5.435962151999418e-18
v 0.3358359932899475 -0.020306503400206566 0.021395999938249588
v 0.284201979637146 -0.04666850343346596 0.021395999938249588
v 0.24289199709892273 -0.06365550309419632 0.021395999938249588
v 0.22126197814941406 -0.09252550452947617 -5.5809602959350635e-18
v 0.18917298316955566 -0.07637950032949448 0.021395999938249588
v 0.22126197814941406 -0.09252550452947617 -5.5809602959350635e-18
v 0.23313897848129272 -0.10394350439310074 -6.979261972161041e-18
v 0.2782929837703705 -0.07625750452280045 -3.5887048895878344e-18
v 0.24289199709892273 -0.06365550309419632 -0.021395999938249588
v 0.284201979637146 -0.04666850343346596 -0.021395999938249588
v 0.22126197814941406 -0.09252550452947617 -5.5809602959350635e-18
v 0.3358359932899475 -0.020306503400206566 -0.021395999938249588
v 0.4095649719238281 -0.0025655031204223633 5.435962151999418e-18
v 0.18917298316955566 -0.07637950032949448 -0.021395999938249588
v 0.22126197814941406 -0.09252550452947617 -5.5809602959350635e-18
v 0.23313897848129272 -0.10394350439310074 -6.979261972161041e-18
v 0.351531982421875 0.05143049731850624 -0.021395999938249588
v 0.40067198872566223 0.08938050270080566 1.6696099688262254e-17
v 0.38982897996902466 0.0746694952249527 1.4894521820817686e-17
v 0.40088197588920593 0.0540354959666729 -0.021395999938249588
v 0.351531982421875 0.05143049731850624 0.021395999938249588
v 0.40088197588920593 0.0540354959666729 0.021395999938249588
v 0.38982897996902466 0.0746694952249527 1.4894521820817686e-17
v 0.40067198872566223 0.08938050270080566 1.6696099688262254e-17
v -0.2944980263710022 -0.004274502396583557 5.22667015418217e-18
v -0.27149301767349243 0.029150497168302536 0.027814999222755432
v -0.29036301374435425 0.027830500155687332 9.158398985579926e-18
v -0.27665501832962036 -0.010927502065896988 0.027814999222755432
v -0.31344300508499146 -0.037179503589868546 1.1969697408409039e-18
v -0.30030402541160583 -0.05200250446796417 0.027814999222755432
v -0.34020501375198364 -0.07716450095176697 0.027814999222755432
v -0.34540700912475586 -0.05733650177717209 -1.271550723012946e-18
v -0.34020501375198364 -0.07716450095176697 -0.027814999222755432
v -0.31344300508499146 -0.037179503589868546 1.1969697408409039e-18
v -0.30030402541160583 -0.05200250446796417 -0.027814999222755432
v -0.34540700912475586 -0.05733650177717209 -1.271550723012946e-18
v -0.27665501832962036 -0.010927502065896988 -0.027814999222755432
v -0.2944980263710022 -0.004274502396583557 5.22667015418217e-18
v -0.27149301767349243 0.029150497168302536 -0.027814999222755432
v -0.29036301374435425 0.027830500155687332 9.158398985579926e-18
v -0.29036301374435425 0.027830500155687332 9.158398985579926e-18
v -0.27149301767349243 0.029150497168302536 0.027814999222755432
v -0.30399101972579956 0.05887749418616295 1.2960559486598294e-17
v -0.28850501775741577 0.06790649890899658 0.027814999222755432
v -0.27149301767349243 0.029150497168302536 -0.027814999222755432
v -0.30399101972579956 0.05887749418616295 1.2960559486598294e-17
v -0.28850501775741577 0.06790649890899658 -0.027814999222755432
v -0.29036301374435425 0.027830500155687332 9.158398985579926e-18
v -0.021705014631152153 -0.12202250957489014 0.021395999938249588
v -0.0422770157456398 -0.14963550865650177 -1.2574917958858722e-17
v -0.03283701464533806 -0.140003502368927 -1.1395338553023403e-17
v -0.0064330147579312325 -0.12013950943946838 0.021395999938249588
v -0.021705014631152153 -0.12202250957489014 0.021395999938249588
v -0.07358201593160629 -0.12522350251674652 0.021395999938249588
v -0.07303901016712189 -0.15078750252723694 -1.2715997748232703e-17
v -0.0422770157456398 -0.14963550865650177 -1.2574917958858722e-17
v -0.07358201593160629 -0.12522350251674652 -0.021395999938249588
v -0.021705014631152153 -0.12202250957489014 -0.021395999938249588
v -0.07303901016712189 -0.15078750252723694 -1.2715997748232703e-17
v -0.021705014631152153 -0.12202250957489014 -0.021395999938249588
v -0.03283701464533806 -0.140003502368927 -1.1395338553023403e-17
v -0.0064330147579312325 -0.12013950943946838 -0.021395999938249588
v -0.35624000430107117 0.15112650394439697 2.425780434514026e-17
v -0.3312710225582123 0.1221574991941452 -0.027814999222755432
v -0.3528430163860321 0.12796050310134888 -0.027814999222755432
v -0.308663010597229 0.1601085066795349 2.535778085190715e-17
v -0.35624000430107117 0.15112650394439697 2.425780434514026e-17
v -0.37441402673721313 0.13376249372959137 -0.027814999222755432
v -0.4307750165462494 0.15984749794006348 2.53258185930381e-17
v -0.3312710225582123 0.1221574991941452 0.027814999222755432
v -0.35624000430107117 0.15112650394439697 2.425780434514026e-17
v -0.3528430163860321 0.12796050310134888 0.027814999222755432
v -0.308663010597229 0.1601085066795349 2.535778085190715e-17
v -0.35624000430107117 0.15112650394439697 2.425780434514026e-17
v -0.37441402673721313 0.13376249372959137 0.027814999222755432
v -0.4307750165462494 0.15984749794006348 2.53258185930381e-17
v -0.07358201593160629 -0.12522350251674652 0.021395999938249588
v -0.14362600445747375 -0.1500755101442337 0.0047530001029372215
v -0.07303901016712189 -0.15078750252723694 -1.2715997748232703e-17
v -0.17446202039718628 -0.15336550772190094 -1.303171190852888e-17
v -0.07303901016712189 -0.15078750252723694 -1.2715997748232703e-17
v -0.17446202039718628 -0.15336550772190094 -1.303171190852888e-17
v -0.14362600445747375 -0.1500755101442337 -0.0047530001029372215
v -0.07358201593160629 -0.12522350251674652 -0.021395999938249588
v 0.18917298316955566 -0.07637950032949448 0.021395999938249588
v 0.13776198029518127 -0.12832850217819214 -9.965563481670395e-18
v 0.23313897848129272 -0.10394350439310074 -6.979261972161041e-18
v 0.1354539841413498 -0.08910450339317322 0.021395999938249588
v 0.1026659831404686 -0.10668350756168365 0.021395999938249588
v 0.02080998569726944 -0.1601085066795349 -1.385749044994363e-17
v 0.13776198029518127 -0.12832850217819214 -9.965563481670395e-18
v 0.1026659831404686 -0.10668350756168365 -0.021395999938249588
v 0.1354539841413498 -0.08910450339317322 -0.021395999938249588
v 0.02080998569726944 -0.1601085066795349 -1.385749044994363e-17
v 0.18917298316955566 -0.07637950032949448 -0.021395999938249588
v 0.23313897848129272 -0.10394350439310074 -6.979261972161041e-18
v 0.3358359932899475 -0.020306503400206566 0.021395999938249588
v 0.4095649719238281 -0.0025655031204223633 5.435962151999418e-18
v 0.39959797263145447 0.002781495451927185 6.090780658772934e-18
v 0.31880897283554077 -0.01421850174665451 0.021395999938249588
v 0.3358359932899475 -0.020306503400206566 -0.021395999938249588
v 0.39959797263145447 0.002781495451927185 6.090780658772934e-18
v 0.4095649719238281 -0.0025655031204223633 5.435962151999418e-18
v 0.31880897283554077 -0.01421850174665451 -0.021395999938249588
v 0.03892598673701286 -0.13642050325870514 -1.0956547362204849e-17
v -0.0064330147579312325 -0.12013950943946838 -0.021395999938249588
v 0.048116981983184814 -0.11341150104999542 -0.021395999938249588
v -0.03283701464533806 -0.140003502368927 -1.1395338553023403e-17
v 0.1026659831404686 -0.10668350756168365 -0.021395999938249588
v 0.03892598673701286 -0.13642050325870514 -1.0956547362204849e-17
v 0.02080998569726944 -0.1601085066795349 -1.385749044994363e-17
v 0.048116981983184814 -0.11341150104999542 0.021395999938249588
v -0.0064330147579312325 -0.12013950943946838 0.021395999938249588
v 0.03892598673701286 -0.13642050325870514 -1.0956547362204849e-17
v -0.03283701464533806 -0.140003502368927 -1.1395338553023403e-17
v 0.1026659831404686 -0.10668350756168365 0.021395999938249588
v 0.03892598673701286 -0.13642050325870514 -1.0956547362204849e-17
v 0.02080998569726944 -0.1601085066795349 -1.385749044994363e-17
v 0.3301039934158325 0.08518950641155243 1.618285066178535e-17
v 0.25578999519348145 0.0640764981508255 0.021395999938249588
v 0.32796797156333923 0.05434349551796913 0.021395999938249588
v 0.24299198389053345 0.09222449362277985 1.7044389048261382e-17
v 0.351531982421875 0.05143049731850624 0.021395999938249588
v 0.3301039934158325 0.08518950641155243 1.618285066178535e-17
v 0.40067198872566223 0.08938050270080566 1.6696099688262254e-17
v 0.24299198389053345 0.09222449362277985 1.7044389048261382e-17
v 0.3301039934158325 0.08518950641155243 1.618285066178535e-17
v 0.25578999519348145 0.0640764981508255 -0.021395999938249588
v 0.32796797156333923 0.05434349551796913 -0.021395999938249588
v 0.3301039934158325 0.08518950641155243 1.618285066178535e-17
v 0.351531982421875 0.05143049731850624 -0.021395999938249588
v 0.40067198872566223 0.08938050270080566 1.6696099688262254e-17
v -0.026217013597488403 0.01376049593091011 -0.021395999938249588
v 0.022174984216690063 0.01685149595141411 7.81385908608622e-18
v 0.0057369861751794815 0.0025244951248168945 -0.021395999938249588
v 0.04146898537874222 0.045832496136426926 1.1363008198781768e-17
v 0.04146898537874222 0.045832496136426926 1.1363008198781768e-17
v -0.026217013597488403 0.01376049593091011 0.021395999938249588
v 0.022174984216690063 0.01685149595141411 7.81385908608622e-18
v 0.0057369861751794815 0.0025244951248168945 0.021395999938249588
v 0.16252999007701874 -0.0011435039341449738 0.021395999938249588
v 0.18460199236869812 0.02335449680685997 8.610247073156348e-18
v 0.1632079929113388 0.029769498854875565 9.395857724025523e-18
v 0.18759799003601074 -0.007420502603054047 0.021395999938249588
v 0.18460199236869812 0.02335449680685997 8.610247073156348e-18
v 0.16252999007701874 -0.0011435039341449738 -0.021395999938249588
v 0.1632079929113388 0.029769498854875565 9.395857724025523e-18
v 0.18759799003601074 -0.007420502603054047 -0.021395999938249588
v -0.25299203395843506 -0.08018050342798233 -4.0691338709004705e-18
v -0.19102200865745544 -0.06505550444126129 -2.21685562217069e-18
v -0.2177550196647644 -0.05179950222373009 0.027814999222755432
v -0.18713001906871796 -0.05536150187253952 0.021395999938249588
v -0.2177550196647644 -0.05179950222373009 0.027814999222755432
v -0.28854602575302124 -0.08340349793434143 0.027814999222755432
v -0.2975030243396759 -0.11952249705791473 -8.887139165763574e-18
v -0.3258960247039795 -0.09469550848007202 0.027814999222755432
v -0.3185250163078308 -0.13818050920963287 -1.1172084987237179e-17
v -0.3185250163078308 -0.13818050920963287 -1.1172084987237179e-17
v -0.36324602365493774 -0.10598750412464142 0.027814999222755432
v -0.36552801728248596 -0.13503850996494293 -1.0787301245792824e-17
v -0.36324602365493774 -0.10598750412464142 0.027814999222755432
v -0.41333702206611633 -0.11940249800682068 -8.872443475000957e-18
v -0.4040130078792572 -0.09350550174713135 0.027814999222755432
v -0.41333702206611633 -0.11940249800682068 -8.872443475000957e-18
v -0.4243970215320587 -0.08726450800895691 0.027814999222755432
v -0.4641460180282593 -0.12508350610733032 -9.568165235884607e-18
v -0.36324602365493774 -0.10598750412464142 -0.027814999222755432
v -0.3185250163078308 -0.13818050920963287 -1.1172084987237179e-17
v -0.36552801728248596 -0.13503850996494293 -1.0787301245792824e-17
v -0.3258960247039795 -0.09469550848007202 -0.027814999222755432
v -0.41333702206611633 -0.11940249800682068 -8.872443475000957e-18
v -0.36324602365493774 -0.10598750412464142 -0.027814999222755432
v -0.4040130078792572 -0.09350550174713135 -0.027814999222755432
v -0.41333702206611633 -0.11940249800682068 -8.872443475000957e-18
v -0.4243970215320587 -0.08726450800895691 -0.027814999222755432
v -0.4641460180282593 -0.12508350610733032 -9.568165235884607e-18
v -0.2975030243396759 -0.11952249705791473 -8.887139165763574e-18
v -0.3185250163078308 -0.13818050920963287 -1.1172084987237179e-17
v -0.28854602575302124 -0.08340349793434143 -0.027814999222755432
v -0.25299203395843506 -0.08018050342798233 -4.0691338709004705e-18
v -0.2177550196647644 -0.05179950222373009 -0.027814999222755432
v -0.2177550196647644 -0.05179950222373009 -0.027814999222755432
v -0.19102200865745544 -0.06505550444126129 -2.21685562217069e-18
v -0.18713001906871796 -0.05536150187253952 -0.021395999938249588
v -0.30399101972579956 0.05887749418616295 1.2960559486598294e-17
v -0.326306015253067 0.09677949547767639 0.027814999222755432
v -0.33427301049232483 0.08200649917125702 1.5793045106842187e-17
v -0.28850501775741577 0.06790649890899658 0.027814999222755432
v -0.28850501775741577 0.06790649890899658 -0.027814999222755432
v -0.30399101972579956 0.05887749418616295 1.2960559486598294e-17
v -0.326306015253067 0.09677949547767639 -0.027814999222755432
v -0.33427301049232483 0.08200649917125702 1.5793045106842187e-17
v -0.046092014759778976 0.054523494094610214 1.2427348110398649e-17
v -0.05817101523280144 0.02499549463391304 0.021395999938249588
v -0.038310013711452484 0.03364050015807152 9.869918241802114e-18
v -0.1044820174574852 0.034340497106313705 0.021395999938249588
v -0.1044820174574852 0.034340497106313705 -0.021395999938249588
v -0.046092014759778976 0.054523494094610214 1.2427348110398649e-17
v -0.05817101523280144 0.02499549463391304 -0.021395999938249588
v -0.038310013711452484 0.03364050015807152 9.869918241802114e-18
v -0.16367001831531525 0.03317449614405632 0.021395999938249588
v -0.128339022397995 0.062392499297857285 1.3391022623009664e-17
v -0.1540200114250183 0.049321498721838 1.179028668983481e-17
v -0.19893501698970795 0.0439084954559803 0.027814999222755432
v -0.1540200114250183 0.049321498721838 1.179028668983481e-17
v -0.16367001831531525 0.03317449614405632 -0.021395999938249588
v -0.19893501698970795 0.0439084954559803 -0.027814999222755432
v -0.128339022397995 0.062392499297857285 1.3391022623009664e-17
v -0.19102200865745544 -0.06505550444126129 -2.21685562217069e-18
v -0.1562270075082779 -0.0664995014667511 -2.393694636220492e-18
v -0.18713001906871796 -0.05536150187253952 0.021395999938249588
v -0.13745301961898804 -0.03719550371170044 0.021395999938249588
v -0.1562270075082779 -0.0664995014667511 -2.393694636220492e-18
v -0.18713001906871796 -0.05536150187253952 -0.021395999938249588
v -0.13745301961898804 -0.03719550371170044 -0.021395999938249588
v -0.19102200865745544 -0.06505550444126129 -2.21685562217069e-18
v -0.16367001831531525 0.03317449614405632 0.021395999938249588
v -0.1044820174574852 0.034340497106313705 0.021395999938249588
v -0.128339022397995 0.062392499297857285 1.3391022623009664e-17
v -0.046092014759778976 0.054523494094610214 1.2427348110398649e-17
v -0.1044820174574852 0.034340497106313705 -0.021395999938249588
v -0.128339022397995 0.062392499297857285 1.3391022623009664e-17
v -0.046092014759778976 0.054523494094610214 1.2427348110398649e-17
v -0.16367001831531525 0.03317449614405632 -0.021395999938249588
v -0.1425510048866272 -0.06826550513505936 -2.6099672112270753e-18
v -0.10221101343631744 -0.07824550569057465 0.021395999938249588
v -0.12107901275157928 -0.04601650312542915 0.021395999938249588
v -0.10628501325845718 -0.09467250108718872 -5.8438920613442316e-18
v -0.13745301961898804 -0.03719550371170044 0.021395999938249588
v -0.1562270075082779 -0.0664995014667511 -2.393694636220492e-18
v -0.1425510048866272 -0.06826550513505936 -2.6099672112270753e-18
v -0.13745301961898804 -0.03719550371170044 -0.021395999938249588
v -0.12107901275157928 -0.04601650312542915 -0.021395999938249588
v -0.1562270075082779 -0.0664995014667511 -2.393694636220492e-18
v -0.10221101343631744 -0.07824550569057465 -0.021395999938249588
v -0.10628501325845718 -0.09467250108718872 -5.8438920613442316e-18
v 0.4158119857311249 0.07840250432491302 1.5351683038679818e-17
v 0.40088197588920593 0.0540354959666729 0.021395999938249588
v 0.4251859784126282 0.05393249914050102 0.021395999938249588
v 0.38982897996902466 0.0746694952249527 1.4894521820817686e-17
v 0.5354809761047363 0.07727949321269989 1.5214154335675527e-17
v 0.46824899315834045 0.06617049872875214 0.021395999938249588
v 0.4251859784126282 0.05393249914050102 0.021395999938249588
v 0.4158119857311249 0.07840250432491302 1.5351683038679818e-17
v 0.46824899315834045 0.06617049872875214 -0.021395999938249588
v 0.4251859784126282 0.05393249914050102 -0.021395999938249588
v 0.5354809761047363 0.07727949321269989 1.5214154335675527e-17
v 0.40088197588920593 0.0540354959666729 -0.021395999938249588
v 0.4251859784126282 0.05393249914050102 -0.021395999938249588
v 0.38982897996902466 0.0746694952249527 1.4894521820817686e-17
v -0.038310013711452484 0.03364050015807152 9.869918241802114e-18
v -0.026217013597488403 0.01376049593091011 0.021395999938249588
v 0.04146898537874222 0.045832496136426926 1.1363008198781768e-17
v -0.05817101523280144 0.02499549463391304 0.021395999938249588
v -0.05817101523280144 0.02499549463391304 -0.021395999938249588
v -0.038310013711452484 0.03364050015807152 9.869918241802114e-18
v -0.026217013597488403 0.01376049593091011 -0.021395999938249588
v 0.04146898537874222 0.045832496136426926 1.1363008198781768e-17
v -0.2881290018558502 0.11055250465869904 -0.027814999222755432
v -0.326306015253067 0.09677949547767639 -0.027814999222755432
v -0.3312710225582123 0.1221574991941452 -0.027814999222755432
v -0.3635690212249756 0.10868850350379944 -0.027814999222755432
v -0.3528430163860321 0.12796050310134888 -0.027814999222755432
v -0.37441402673721313 0.13376249372959137 -0.027814999222755432
v -0.393748015165329 0.10668350756168365 -0.027814999222755432
v -0.41025200486183167 0.11792249977588654 -0.027814999222755432
v -0.43431800603866577 0.08208349347114563 -0.027814999222755432
v -0.41025200486183167 0.11792249977588654 -0.027814999222755432
v -0.43431800603866577 0.08208349347114563 -0.027814999222755432
v -0.4460890293121338 0.10208150744438171 -0.027814999222755432
v -0.45783600211143494 0.04659149423241615 -0.027814999222755432
v -0.4835120141506195 0.04575849696993828 -0.027814999222755432
v -0.36324602365493774 -0.10598750412464142 -0.027814999222755432
v -0.34020501375198364 -0.07716450095176697 -0.027814999222755432
v -0.3258960247039795 -0.09469550848007202 -0.027814999222755432
v -0.399277001619339 -0.07428350299596786 -0.027814999222755432
v -0.30030402541160583 -0.05200250446796417 -0.027814999222755432
v -0.28854602575302124 -0.08340349793434143 -0.027814999222755432
v -0.4243970215320587 -0.08726450800895691 -0.027814999222755432
v -0.4457400143146515 -0.04212750494480133 -0.027814999222755432
v -0.44478100538253784 -0.08102349936962128 -0.027814999222755432
v -0.4774300158023834 -0.03395150229334831 -0.027814999222755432
v -0.47895002365112305 -0.014023501425981522 -0.027814999222755432
v -0.4646570086479187 0.011321496218442917 -0.027814999222755432
v -0.47895002365112305 -0.014023501425981522 -0.027814999222755432
v -0.48047101497650146 0.005903497338294983 -0.027814999222755432
v -0.4646570086479187 0.011321496218442917 -0.027814999222755432
v -0.4457400143146515 -0.04212750494480133 -0.027814999222755432
v -0.4774300158023834 -0.03395150229334831 -0.027814999222755432
v -0.4243970215320587 -0.08726450800895691 -0.027814999222755432
v -0.399277001619339 -0.07428350299596786 -0.027814999222755432
v -0.4040130078792572 -0.09350550174713135 -0.027814999222755432
v -0.36324602365493774 -0.10598750412464142 -0.027814999222755432
v -0.326306015253067 0.09677949547767639 -0.027814999222755432
v -0.2881290018558502 0.11055250465869904 -0.027814999222755432
v -0.28850501775741577 0.06790649890899658 -0.027814999222755432
v -0.2611650228500366 0.08259749412536621 -0.027814999222755432
v -0.27149301767349243 0.029150497168302536 -0.027814999222755432
v -0.23420001566410065 0.05464249476790428 -0.027814999222755432
v -0.3635690212249756 0.10868850350379944 -0.027814999222755432
v -0.3312710225582123 0.1221574991941452 -0.027814999222755432
v -0.37441402673721313 0.13376249372959137 -0.027814999222755432
v -0.3528430163860321 0.12796050310134888 -0.027814999222755432
v -0.19893501698970795 0.0439084954559803 -0.027814999222755432
v -0.27149301767349243 0.029150497168302536 -0.027814999222755432
v -0.23420001566410065 0.05464249476790428 -0.027814999222755432
v -0.4819910228252411 0.025831494480371475 -0.027814999222755432
v -0.45783600211143494 0.04659149423241615 -0.027814999222755432
v -0.4646570086479187 0.011321496218442917 -0.027814999222755432
v -0.48047101497650146 0.005903497338294983 -0.027814999222755432
v -0.4835120141506195 0.04575849696993828 -0.027814999222755432
v -0.4460890293121338 0.10208150744438171 -0.027814999222755432
v -0.43431800603866577 0.08208349347114563 -0.027814999222755432
v -0.326306015253067 0.09677949547767639 0.027814999222755432
v -0.3312710225582123 0.1221574991941452 0.027814999222755432
v -0.3635690212249756 0.10868850350379944 0.027814999222755432
v -0.3528430163860321 0.12796050310134888 0.027814999222755432
v -0.37441402673721313 0.13376249372959137 0.027814999222755432
v -0.28850501775741577 0.06790649890899658 0.027814999222755432
v -0.2881290018558502 0.11055250465869904 0.027814999222755432
v -0.2611650228500366 0.08259749412536621 0.027814999222755432
v -0.27149301767349243 0.029150497168302536 0.027814999222755432
v -0.4646570086479187 0.011321496218442917 0.027814999222755432
v -0.47895002365112305 -0.014023501425981522 0.027814999222755432
v -0.4457400143146515 -0.04212750494480133 0.027814999222755432
v -0.4774300158023834 -0.03395150229334831 0.027814999222755432
v -0.44478100538253784 -0.08102349936962128 0.027814999222755432
v -0.4243970215320587 -0.08726450800895691 0.027814999222755432
v -0.399277001619339 -0.07428350299596786 0.027814999222755432
v -0.36324602365493774 -0.10598750412464142 0.027814999222755432
v -0.4040130078792572 -0.09350550174713135 0.027814999222755432
v -0.2177550196647644 -0.05179950222373009 0.027814999222755432
v -0.19893501698970795 0.0439084954559803 0.027814999222755432
v -0.27665501832962036 -0.010927502065896988 0.027814999222755432
v -0.2611650228500366 0.08259749412536621 0.027814999222755432
v -0.27149301767349243 0.029150497168302536 0.027814999222755432
v -0.23420001566410065 0.05464249476790428 0.027814999222755432
v -0.393748015165329 0.10668350756168365 0.027814999222755432
v -0.37441402673721313 0.13376249372959137 0.027814999222755432
v -0.41025200486183167 0.11792249977588654 0.027814999222755432
v -0.3635690212249756 0.10868850350379944 0.027814999222755432
v -0.43431800603866577 0.08208349347114563 0.027814999222755432
v -0.3312710225582123 0.1221574991941452 0.027814999222755432
v -0.326306015253067 0.09677949547767639 0.027814999222755432
v -0.2881290018558502 0.11055250465869904 0.027814999222755432
v -0.4460890293121338 0.10208150744438171 0.027814999222755432
v -0.45783600211143494 0.04659149423241615 0.027814999222755432
v -0.43431800603866577 0.08208349347114563 0.027814999222755432
v -0.4819910228252411 0.025831494480371475 0.027814999222755432
v -0.4646570086479187 0.011321496218442917 0.027814999222755432
v -0.19893501698970795 0.0439084954559803 -0.027814999222755432
v -0.27665501832962036 -0.010927502065896988 -0.027814999222755432
v -0.2177550196647644 -0.05179950222373009 -0.027814999222755432
v -0.30030402541160583 -0.05200250446796417 -0.027814999222755432
v -0.28854602575302124 -0.08340349793434143 -0.027814999222755432
v -0.18713001906871796 -0.05536150187253952 -0.021395999938249588
v -0.3258960247039795 -0.09469550848007202 -0.027814999222755432
v -0.34020501375198364 -0.07716450095176697 -0.027814999222755432
v -0.16367001831531525 0.03317449614405632 -0.021395999938249588
v -0.13745301961898804 -0.03719550371170044 -0.021395999938249588
v -0.1044820174574852 0.034340497106313705 -0.021395999938249588
v -0.12107901275157928 -0.04601650312542915 -0.021395999938249588
v -0.05817101523280144 0.02499549463391304 -0.021395999938249588
v -0.10221101343631744 -0.07824550569057465 -0.021395999938249588
v -0.026217013597488403 0.01376049593091011 -0.021395999938249588
v -0.021705014631152153 -0.12202250957489014 -0.021395999938249588
v -0.07555101811885834 -0.11291450262069702 -0.021395999938249588
v 0.0057369861751794815 0.0025244951248168945 -0.021395999938249588
v -0.07358201593160629 -0.12522350251674652 -0.021395999938249588
v -0.14362600445747375 -0.1500755101442337 -0.0047530001029372215
v -0.0064330147579312325 -0.12013950943946838 -0.021395999938249588
v 0.048116981983184814 -0.11341150104999542 -0.021395999938249588
v 0.10909898579120636 -0.012059502303600311 -0.021395999938249588
v 0.1026659831404686 -0.10668350756168365 -0.021395999938249588
v 0.1354539841413498 -0.08910450339317322 -0.021395999938249588
v 0.16252999007701874 -0.0011435039341449738 -0.021395999938249588
v 0.18917298316955566 -0.07637950032949448 -0.021395999938249588
v 0.18759799003601074 -0.007420502603054047 -0.021395999938249588
v 0.24289199709892273 -0.06365550309419632 -0.021395999938249588
v 0.23769497871398926 0.01613149419426918 -0.021395999938249588
v 0.284201979637146 -0.04666850343346596 -0.021395999938249588
v 0.31880897283554077 -0.01421850174665451 -0.021395999938249588
v 0.3358359932899475 -0.020306503400206566 -0.021395999938249588
v 0.24673697352409363 0.05035749450325966 -0.021395999938249588
v 0.32796797156333923 0.05434349551796913 -0.021395999938249588
v 0.25578999519348145 0.0640764981508255 -0.021395999938249588
v 0.351531982421875 0.05143049731850624 -0.021395999938249588
v 0.40088197588920593 0.0540354959666729 -0.021395999938249588
v 0.4241909980773926 0.04493049904704094 -0.021395999938249588
v 0.4251859784126282 0.05393249914050102 -0.021395999938249588
v 0.46824899315834045 0.06617049872875214 -0.021395999938249588
v 0.10909898579120636 -0.012059502303600311 0.021395999938249588
v 0.1354539841413498 -0.08910450339317322 0.021395999938249588
v 0.16252999007701874 -0.0011435039341449738 0.021395999938249588
v 0.18917298316955566 -0.07637950032949448 0.021395999938249588
v 0.1026659831404686 -0.10668350756168365 0.021395999938249588
v 0.18759799003601074 -0.007420502603054047 0.021395999938249588
v 0.048116981983184814 -0.11341150104999542 0.021395999938249588
v 0.24289199709892273 -0.06365550309419632 0.021395999938249588
v 0.0057369861751794815 0.0025244951248168945 0.021395999938249588
v 0.23769497871398926 0.01613149419426918 0.021395999938249588
v -0.16367001831531525 0.03317449614405632 0.021395999938249588
v -0.13745301961898804 -0.03719550371170044 0.021395999938249588
v -0.1044820174574852 0.034340497106313705 0.021395999938249588
v -0.18713001906871796 -0.05536150187253952 0.021395999938249588
v -0.19893501698970795 0.0439084954559803 0.027814999222755432
v -0.2177550196647644 -0.05179950222373009 0.027814999222755432
v -0.23420001566410065 0.05464249476790428 0.027814999222755432
v -0.27665501832962036 -0.010927502065896988 0.027814999222755432
v -0.30030402541160583 -0.05200250446796417 0.027814999222755432
v -0.28854602575302124 -0.08340349793434143 0.027814999222755432
v -0.3258960247039795 -0.09469550848007202 0.027814999222755432
v -0.34020501375198364 -0.07716450095176697 0.027814999222755432
v -0.36324602365493774 -0.10598750412464142 0.027814999222755432
v -0.399277001619339 -0.07428350299596786 0.027814999222755432
v -0.4040130078792572 -0.09350550174713135 0.027814999222755432
v -0.4243970215320587 -0.08726450800895691 0.027814999222755432
v -0.4457400143146515 -0.04212750494480133 0.027814999222755432
v -0.44478100538253784 -0.08102349936962128 0.027814999222755432
v -0.4774300158023834 -0.03395150229334831 0.027814999222755432
v -0.47895002365112305 -0.014023501425981522 0.027814999222755432
v -0.4646570086479187 0.011321496218442917 0.027814999222755432
v -0.48047101497650146 0.005903497338294983 0.027814999222755432
v -0.4819910228252411 0.025831494480371475 0.027814999222755432
v -0.45783600211143494 0.04659149423241615 0.027814999222755432
v -0.4835120141506195 0.04575849696993828 0.027814999222755432
v -0.4460890293121338 0.10208150744438171 0.027814999222755432
v -0.43431800603866577 0.08208349347114563 0.027814999222755432
v -0.41025200486183167 0.11792249977588654 0.027814999222755432
v 0.31880897283554077 -0.01421850174665451 0.021395999938249588
v 0.351531982421875 0.05143049731850624 0.021395999938249588
v 0.32796797156333923 0.05434349551796913 0.021395999938249588
v 0.40088197588920593 0.0540354959666729 0.021395999938249588
v 0.24673697352409363 0.05035749450325966 0.021395999938249588
v 0.25578999519348145 0.0640764981508255 0.021395999938249588
v 0.4241909980773926 0.04493049904704094 0.021395999938249588
v 0.4251859784126282 0.05393249914050102 0.021395999938249588
v 0.46824899315834045 0.06617049872875214 0.021395999938249588
v -0.0064330147579312325 -0.12013950943946838 0.021395999938249588
v 0.284201979637146 -0.04666850343346596 0.021395999938249588
v -0.021705014631152153 -0.12202250957489014 0.021395999938249588
v -0.026217013597488403 0.01376049593091011 0.021395999938249588
v 0.3358359932899475 -0.020306503400206566 0.021395999938249588
v -0.10221101343631744 -0.07824550569057465 0.021395999938249588
v -0.05817101523280144 0.02499549463391304 0.021395999938249588
v -0.07555101811885834 -0.11291450262069702 0.021395999938249588
v -0.07358201593160629 -0.12522350251674652 0.021395999938249588
v -0.14362600445747375 -0.1500755101442337 0.0047530001029372215
v -0.12107901275157928 -0.04601650312542915 0.021395999938249588
v -0.3312710225582123 0.1221574991941452 0.027814999222755432
v -0.28284600377082825 0.12475049495697021 2.102767563364926e-17
v -0.308663010597229 0.1601085066795349 2.535778085190715e-17
v -0.2881290018558502 0.11055250465869904 0.027814999222755432
v -0.2611650228500366 0.08259749412536621 0.027814999222755432
v -0.24768701195716858 0.10617350041866302 1.8752649362081392e-17
v -0.21898801624774933 0.07989850640296936 1.5534890309470513e-17
v -0.23420001566410065 0.05464249476790428 0.027814999222755432
v -0.19893501698970795 0.0439084954559803 0.027814999222755432
v -0.1540200114250183 0.049321498721838 1.179028668983481e-17
v -0.23420001566410065 0.05464249476790428 -0.027814999222755432
v -0.2611650228500366 0.08259749412536621 -0.027814999222755432
v -0.21898801624774933 0.07989850640296936 1.5534890309470513e-17
v -0.19893501698970795 0.0439084954559803 -0.027814999222755432
v -0.1540200114250183 0.049321498721838 1.179028668983481e-17
v -0.24768701195716858 0.10617350041866302 1.8752649362081392e-17
v -0.28284600377082825 0.12475049495697021 2.102767563364926e-17
v -0.2881290018558502 0.11055250465869904 -0.027814999222755432
v -0.3312710225582123 0.1221574991941452 -0.027814999222755432
v -0.308663010597229 0.1601085066795349 2.535778085190715e-17
v 0.0057369861751794815 0.0025244951248168945 0.021395999938249588
v 0.10909898579120636 -0.012059502303600311 0.021395999938249588
v 0.022174984216690063 0.01685149595141411 7.81385908608622e-18
v 0.10815098881721497 0.018846500664949417 8.058175978990494e-18
v 0.16252999007701874 -0.0011435039341449738 0.021395999938249588
v 0.1632079929113388 0.029769498854875565 9.395857724025523e-18
v 0.10909898579120636 -0.012059502303600311 0.021395999938249588
v 0.10815098881721497 0.018846500664949417 8.058175978990494e-18
v 0.16252999007701874 -0.0011435039341449738 -0.021395999938249588
v 0.10909898579120636 -0.012059502303600311 -0.021395999938249588
v 0.1632079929113388 0.029769498854875565 9.395857724025523e-18
v 0.10909898579120636 -0.012059502303600311 -0.021395999938249588
v 0.022174984216690063 0.01685149595141411 7.81385908608622e-18
v 0.0057369861751794815 0.0025244951248168945 -0.021395999938249588
v -0.14270201325416565 -0.13872650265693665 -1.1238950959233515e-17
v -0.07555101811885834 -0.11291450262069702 0.021395999938249588
v -0.10628501325845718 -0.09467250108718872 -5.8438920613442316e-18
v -0.10221101343631744 -0.07824550569057465 0.021395999938249588
v -0.07555101811885834 -0.11291450262069702 -0.021395999938249588
v -0.14270201325416565 -0.13872650265693665 -1.1238950959233515e-17
v -0.10628501325845718 -0.09467250108718872 -5.8438920613442316e-18
v -0.10221101343631744 -0.07824550569057465 -0.021395999938249588
v -0.33427301049232483 0.08200649917125702 1.5793045106842187e-17
v -0.3635690212249756 0.10868850350379944 0.027814999222755432
v -0.36412301659584045 0.09154750406742096 1.6961480735465192e-17
v -0.326306015253067 0.09677949547767639 0.027814999222755432
v -0.326306015253067 0.09677949547767639 -0.027814999222755432
v -0.33427301049232483 0.08200649917125702 1.5793045106842187e-17
v -0.3635690212249756 0.10868850350379944 -0.027814999222755432
v -0.36412301659584045 0.09154750406742096 1.6961480735465192e-17
v -0.14270201325416565 -0.13872650265693665 -1.1238950959233515e-17
v -0.17446202039718628 -0.15336550772190094 -1.303171190852888e-17
v -0.14362600445747375 -0.1500755101442337 0.0047530001029372215
v -0.07555101811885834 -0.11291450262069702 0.021395999938249588
v -0.17446202039718628 -0.15336550772190094 -1.303171190852888e-17
v -0.14270201325416565 -0.13872650265693665 -1.1238950959233515e-17
v -0.14362600445747375 -0.1500755101442337 -0.0047530001029372215
v -0.07555101811885834 -0.11291450262069702 -0.021395999938249588
v 0.18759799003601074 -0.007420502603054047 0.021395999938249588
v 0.2139429897069931 0.03592750057578087 1.0149994979767668e-17
v 0.18460199236869812 0.02335449680685997 8.610247073156348e-18
v 0.23769497871398926 0.01613149419426918 0.021395999938249588
v 0.2139429897069931 0.03592750057578087 1.0149994979767668e-17
v 0.18759799003601074 -0.007420502603054047 -0.021395999938249588
v 0.18460199236869812 0.02335449680685997 8.610247073156348e-18
v 0.23769497871398926 0.01613149419426918 -0.021395999938249588
v -0.36412301659584045 0.09154750406742096 1.6961480735465192e-17
v -0.3635690212249756 0.10868850350379944 0.027814999222755432
v -0.38829901814460754 0.08994150161743164 1.6764802001218458e-17
v -0.393748015165329 0.10668350756168365 0.027814999222755432
v -0.3635690212249756 0.10868850350379944 -0.027814999222755432
v -0.38829901814460754 0.08994150161743164 1.6764802001218458e-17
v -0.393748015165329 0.10668350756168365 -0.027814999222755432
v -0.36412301659584045 0.09154750406742096 1.6961480735465192e-17
v -0.34020501375198364 -0.07716450095176697 -0.027814999222755432
v -0.3927280008792877 -0.05502850189805031 -9.889022805229638e-19
v -0.34540700912475586 -0.05733650177717209 -1.271550723012946e-18
v -0.399277001619339 -0.07428350299596786 -0.027814999222755432
v -0.429949015378952 -0.02926950342953205 2.1656653431676927e-18
v -0.4457400143146515 -0.04212750494480133 -0.027814999222755432
v -0.4646570086479187 0.011321496218442917 -0.027814999222755432
v -0.4451030194759369 0.01354849711060524 7.409357840380438e-18
v -0.4646570086479187 0.011321496218442917 0.027814999222755432
v -0.429949015378952 -0.02926950342953205 2.1656653431676927e-18
v -0.4451030194759369 0.01354849711060524 7.409357840380438e-18
v -0.4457400143146515 -0.04212750494480133 0.027814999222755432
v -0.399277001619339 -0.07428350299596786 0.027814999222755432
v -0.3927280008792877 -0.05502850189805031 -9.889022805229638e-19
v -0.34020501375198364 -0.07716450095176697 0.027814999222755432
v -0.34540700912475586 -0.05733650177717209 -1.271550723012946e-18
v 0.21851398050785065 0.06298649311065674 1.3463766540438803e-17
v 0.2139429897069931 0.03592750057578087 1.0149994979767668e-17
v 0.24673697352409363 0.05035749450325966 0.021395999938249588
v 0.23769497871398926 0.01613149419426918 0.021395999938249588
v 0.25578999519348145 0.0640764981508255 0.021395999938249588
v 0.24299198389053345 0.09222449362277985 1.7044389048261382e-17
v 0.21851398050785065 0.06298649311065674 1.3463766540438803e-17
v 0.25578999519348145 0.0640764981508255 -0.021395999938249588
v 0.24673697352409363 0.05035749450325966 -0.021395999938249588
v 0.24299198389053345 0.09222449362277985 1.7044389048261382e-17
v 0.2139429897069931 0.03592750057578087 1.0149994979767668e-17
v 0.23769497871398926 0.01613149419426918 -0.021395999938249588
v -0.43963900208473206 0.04180249944329262 1.0869475022205067e-17
v -0.4646570086479187 0.011321496218442917 0.027814999222755432
v -0.4451030194759369 0.01354849711060524 7.409357840380438e-18
v -0.45783600211143494 0.04659149423241615 0.027814999222755432
v -0.42079901695251465 0.07023449242115021 1.4351391721892918e-17
v -0.43431800603866577 0.08208349347114563 0.027814999222755432
v -0.393748015165329 0.10668350756168365 0.027814999222755432
v -0.38829901814460754 0.08994150161743164 1.6764802001218458e-17
v -0.43431800603866577 0.08208349347114563 -0.027814999222755432
v -0.393748015165329 0.10668350756168365 -0.027814999222755432
v -0.42079901695251465 0.07023449242115021 1.4351391721892918e-17
v -0.38829901814460754 0.08994150161743164 1.6764802001218458e-17
v -0.45783600211143494 0.04659149423241615 -0.027814999222755432
v -0.43963900208473206 0.04180249944329262 1.0869475022205067e-17
v -0.4646570086479187 0.011321496218442917 -0.027814999222755432
v -0.4451030194759369 0.01354849711060524 7.409357840380438e-18
vn -0.7415151622327486 0.06073657444765548 0.6681813621340429
vn -0.684019091429505 0.13436770491879668 0.716982009840421
vn -0.7335707484528594 0.04013875466126147 0.6784267369352088
vn -0.6924303167202153 -0.05283351982399072 0.7195476882526622
vn -0.5312405093034301 0.3506672888905659 0.7712431353193183
vn -0.3650110352435208 0.5861288290590537 0.723339436154504
vn -0.6840191510085025 0.1343677198149198 -0.7169819502088925
vn -0.7335707483431696 0.040138758380549845 -0.6784267368337646
vn -0.6924303167202153 -0.05283351982399072 -0.7195476882526622
vn -0.7415151622327486 0.06073657444765548 -0.6681813621340429
vn -0.5312405093034301 0.3506672888905659 -0.7712431353193183
vn -0.3650110352435208 0.5861288290590537 -0.723339436154504
vn -0.4837818136400324 -0.30519384086741924 0.8202511056303144
vn -0.4837818136400324 -0.30519384086741924 0.8202511056303144
vn -0.6259971736983687 0.08806914667222153 0.7748363465442759
vn -0.5252448954812492 -0.45851996876042894 0.7168523125573543
vn -0.5837712393664134 -0.37671408739702295 0.7192340623505187
vn -0.5721784234922932 -0.4370193780137606 0.6939927340616325
vn -0.6084871987731584 -0.26499462561314185 0.7480114820812216
vn -0.5640699982189034 -0.19999756340039973 0.8011404444560449
vn -0.6512274724406389 -0.04968968392798921 0.7572540620225906
vn -0.49978326833634673 -0.2665952395133764 0.8241017309530692
vn -0.4222097432838796 -0.354923310920947 0.8341273140480853
vn -0.5837712393664134 -0.37671408739702295 -0.7192340623505187
vn -0.5252448883037987 -0.45851999229709406 -0.716852302761596
vn -0.5721784234922932 -0.4370193780137606 -0.6939927340616325
vn -0.6084871987731584 -0.26499462561314185 -0.7480114820812216
vn -0.5640699982189034 -0.19999756340039973 -0.8011404444560449
vn -0.6512274724406389 -0.04968968392798921 -0.7572540620225906
vn -0.49978326833634673 -0.2665952395133764 -0.8241017309530692
vn -0.4222097432838796 -0.354923310920947 -0.8341273140480853
vn -0.4837818364672744 -0.3051938364671889 -0.8202510938040803
vn -0.4837818364672744 -0.3051938364671889 -0.8202510938040803
vn -0.6259971736983687 0.08806914667222153 -0.7748363465442759
vn -0.3156411023591646 0.3960572743846106 0.8622698706950885
vn -0.37213510886238127 0.24725962091383744 0.8946385530578979
vn -0.3120593354642207 0.5043892144807341 0.8051152038467145
vn -0.20403329031537615 0.7211815293257661 0.6620178382811378
vn -0.2945661452279662 0.6749738242816513 0.6764917757224689
vn -0.2986520872342827 0.6756698592187682 0.6740008695349706
vn -0.43475856635587357 0.3403341712129362 0.8337611413858226
vn -0.43475856635587357 0.3403341712129362 0.8337611413858226
vn -0.5082082066768733 -0.20650669584544573 0.8361096837360953
vn -0.43475856635587357 0.3403341712129362 -0.8337611413858226
vn -0.2986520872342827 0.6756698592187682 -0.6740008695349706
vn -0.43475856635587357 0.3403341712129362 -0.8337611413858226
vn -0.5082082066768733 -0.20650669584544573 -0.8361096837360953
vn -0.31205934105777894 0.504389283126385 -0.8051151586734883
vn -0.2945661452279662 0.6749738242816513 -0.6764917757224689
vn -0.20403329031537615 0.7211815293257661 -0.6620178382811378
vn -0.3156411023591646 0.3960572743846106 -0.8622698706950885
vn -0.37213510886238127 0.24725962091383744 -0.8946385530578979
vn 0.3178489771347845 -0.5974019107933729 0.7362628502883994
vn 0.33012029254640907 -0.6092414209347771 0.7210031091933288
vn 0.31615490272752333 -0.6035162315732974 0.7319933303718801
vn 0.31273809294150867 -0.5755183737010785 0.7556278758461561
vn 0.321372744298123 -0.5709946100058105 0.7554367707271109
vn 0.3203336913980237 -0.570718232285487 0.7560866521055933
vn 0.3203336913980237 -0.570718232285487 -0.7560866521055933
vn 0.31273809294150867 -0.5755183737010785 -0.7556278758461561
vn 0.321372744298123 -0.5709946100058105 -0.7554367707271109
vn 0.31784898845272813 -0.5974018724609711 -0.7362628765051943
vn 0.31615490272752333 -0.6035162315732974 -0.7319933303718801
vn 0.33012029254640907 -0.6092414209347771 -0.7210031091933288
vn 0.2975990469459285 -0.6278558363398744 0.7191883314061984
vn 0.35246072124609307 -0.6278594297480575 0.6939481078979376
vn 0.3387550164109612 -0.6192687838568589 0.708343992843065
vn 0.27920916678869334 -0.5986486077812093 0.7507743240034142
vn 0.19602839569403793 -0.6482976648801223 0.735719379785936
vn 0.1920100341203798 -0.6731327911316276 0.7141599206763392
vn 0.29004648589280446 -0.5026977703585849 0.8143512680027841
vn 0.29004648589280446 -0.5026977703585849 0.8143512680027841
vn 0.621015141100509 0.6459797720913008 0.44390351268354045
vn 0.2975990469459285 -0.6278558363398744 -0.7191883314061984
vn 0.19602839569403793 -0.6482976648801223 -0.735719379785936
vn 0.27920916678869334 -0.5986486077812093 -0.7507743240034142
vn 0.1920100341203798 -0.6731327911316276 -0.7141599206763392
vn 0.33875500390707447 -0.619268820603489 -0.7083439666971703
vn 0.35246072124609307 -0.6278594297480575 -0.6939481078979376
vn 0.29004648589280446 -0.5026977703585849 -0.8143512680027841
vn 0.29004648589280446 -0.5026977703585849 -0.8143512680027841
vn 0.621015141100509 0.6459797720913008 -0.44390351268354045
vn 0.16090433595036274 0.5118070338780573 -0.8438977158076196
vn 0.6296789548856381 -0.4641160297208358 -0.6229773067538649
vn 0.16090433595036274 0.5118070338780573 -0.8438977158076196
vn -0.037455250331239316 0.7095651769328502 -0.703643634169227
vn 0.16090433595036274 0.5118070338780573 0.8438977158076196
vn -0.037455250331239316 0.7095651769328502 0.703643634169227
vn 0.16090433595036274 0.5118070338780573 0.8438977158076196
vn 0.6296789548856381 -0.4641160297208358 0.6229773067538649
vn -0.7980013871168871 0.21445975620988353 0.5632058230575404
vn -0.8251869433424243 0.10628227573889047 0.5547707512125608
vn -0.8251864355743799 0.10628113949317121 0.5547717241641673
vn -0.76131397110215 0.3187615259660087 0.5646167965695815
vn -0.588428847765239 0.5645559957309774 0.5788160491916906
vn -0.5884276131498436 0.5645572042130269 0.5788161255994416
vn -0.43642433611878806 0.6920637351049992 0.5749622469308683
vn -0.43642626295589654 0.6920638852182385 0.57496060367558
vn -0.43642433611878806 0.6920637351049992 -0.5749622469308683
vn -0.5884288680661076 0.5645560152082296 -0.5788160095562703
vn -0.5884276521165542 0.5645571844123012 -0.5788161052986125
vn -0.43642626295589654 0.6920638852182385 -0.57496060367558
vn -0.7613140290134528 0.31876149545468585 -0.5646167357090964
vn -0.7980013845667144 0.21445977042569533 -0.5632058212577039
vn -0.8251869706288087 0.10628227925331721 -0.5547707099524718
vn -0.8251864355743799 0.10628113949317121 -0.5547717241641673
vn -0.7711464171030326 -0.3384929301281134 0.5392177108018986
vn -0.7711467063182481 -0.3384946547965398 0.5392162145268712
vn -0.7711467063182481 -0.3384946547965398 0.5392162145268712
vn -0.7711469733629489 -0.3384960084665087 0.5392149828458078
vn -0.7711467140975194 -0.3384946284089266 -0.5392162199664448
vn -0.7711467140975194 -0.3384946284089266 -0.5392162199664448
vn -0.7711469733629489 -0.3384960084665087 -0.5392149828458078
vn -0.7711464171030326 -0.3384929301281134 -0.5392177108018986
vn 0.37133053350252954 -0.7969010559238353 0.4765105895530582
vn 0.1003994641917875 -0.6610430467393621 0.7436007248164458
vn 0.37133053350252954 -0.7969010559238353 0.4765105895530582
vn 0.09693898714186086 -0.7862199308514733 0.6102958734120808
vn 0.038871388932470254 -0.6299705513485973 0.7756456146694863
vn 0.03340558673781144 -0.6341862018061619 0.7724583666537485
vn 0.024017225962788834 -0.6413382890999931 0.7668822411500648
vn 0.1003994641917875 -0.6610430467393621 -0.7436007248164458
vn 0.03340558673781144 -0.6341862018061619 -0.7724583666537485
vn 0.038871388932470254 -0.6299705513485973 -0.7756456146694863
vn 0.024017225962788834 -0.6413382890999931 -0.7668822411500648
vn 0.37133053350252954 -0.7969010559238353 -0.4765105895530582
vn 0.37133053350252954 -0.7969010559238353 -0.4765105895530582
vn 0.09693898714186086 -0.7862199308514733 -0.6102958734120808
vn -0.031176477284755505 0.6781448637942383 -0.7342666892714165
vn -0.031176477284755505 0.6781448637942383 -0.7342666892714165
vn 0.20555867859283938 0.7641898618379899 -0.6113587201628841
vn -0.1193511838169416 0.6321942698117339 -0.7655623424246412
vn 0.12155163755667248 0.8043694312514016 -0.5815625654008243
vn 0.12155163755667248 0.8043694312514016 -0.5815625654008243
vn 0.09538526790350783 0.8152215444304722 -0.571240303342973
vn -0.031176477284755505 0.6781448637942383 0.7342666892714165
vn -0.031176477284755505 0.6781448637942383 0.7342666892714165
vn 0.20555867859283938 0.7641898618379899 0.6113587201628841
vn -0.1193511838169416 0.6321942698117339 0.7655623424246412
vn 0.12155163755667248 0.8043694312514016 0.5815625654008243
vn 0.12155163755667248 0.8043694312514016 0.5815625654008243
vn 0.09538526790350783 0.8152215444304722 0.571240303342973
vn 0.045153774690098125 -0.6406046204468231 0.7665421429337186
vn 0.04136622328199959 -0.6944427496301516 0.7183579212742756
vn 0.04136622328199959 -0.6944427496301516 0.7183579212742756
vn 0.02247846708057765 -0.8843402355838732 0.4663014757055427
vn 0.04136622328199959 -0.6944427496301516 -0.7183579212742756
vn 0.02247846708057765 -0.8843402355838732 -0.4663014757055427
vn 0.04136622328199959 -0.6944427496301516 -0.7183579212742756
vn 0.045153774690098125 -0.6406046204468231 -0.7665421429337186
vn 0.118516716052921 -0.47616190791812957 0.8713343935962805
vn 0.14572551900803488 -0.5036259312321989 0.8515427144308965
vn 0.12251829997522781 -0.47920563412242384 0.8691094444294721
vn 0.16291657218794509 -0.4650680459495682 0.8701551029231399
vn 0.17573413593085063 -0.5331231458889849 0.8275851767558852
vn 0.1519579701734849 -0.5592129095648712 0.8149783414770883
vn 0.14572553057077878 -0.5036258600900196 -0.8515427545276002
vn 0.17573413593085063 -0.5331231458889849 -0.8275851767558852
vn 0.16291658895164401 -0.46506802146411774 -0.8701551128711547
vn 0.1519579701734849 -0.5592129095648712 -0.8149783414770883
vn 0.11851670423359759 -0.47616186056360876 -0.871334421081945
vn 0.12251829997522781 -0.47920563412242384 -0.8691094444294721
vn 0.16412195970844395 0.3874343133808347 0.9071706758689795
vn 0.18445902847843945 0.34383833007631726 0.920733441112638
vn 0.16412195970844395 0.3874343133808347 0.9071706758689795
vn 0.14940504943218458 0.41785845757522583 0.8961430916081538
vn 0.16412195970844395 0.3874343133808347 -0.9071706758689795
vn 0.16412195970844395 0.3874343133808347 -0.9071706758689795
vn 0.18445902847843945 0.34383833007631726 -0.920733441112638
vn 0.14940504943218458 0.41785845757522583 -0.8961430916081538
vn 0.05955103362403549 -0.7295184074348413 -0.681363755719397
vn 0.05955103362403549 -0.7295184074348413 -0.681363755719397
vn 0.0859223457365374 -0.6966439503182155 -0.7122531551268573
vn 0.03770121909673236 -0.7551083519981046 -0.6545150837233064
vn -0.1558094185032387 -0.33470529561943324 -0.9293523498598314
vn -0.1558094185032387 -0.33470529561943324 -0.9293523498598314
vn -0.4361659012273018 0.3335689024976763 -0.8357577961904221
vn 0.0859223457365374 -0.6966439503182155 0.7122531551268573
vn 0.05955103362403549 -0.7295184074348413 0.681363755719397
vn 0.05955103362403549 -0.7295184074348413 0.681363755719397
vn 0.03770121909673236 -0.7551083519981046 0.6545150837233064
vn -0.1558094185032387 -0.33470529561943324 0.9293523498598314
vn -0.1558094185032387 -0.33470529561943324 0.9293523498598314
vn -0.4361659012273018 0.3335689024976763 0.8357577961904221
vn 0.06246394561945553 0.5933855078977162 0.8024910557225042
vn 0.06246394561945553 0.5933855078977162 0.8024910557225042
vn 0.07461002436756228 0.5648673152306356 0.8218018377005526
vn 0.0499641009422079 0.6186895471991187 0.7840451726804945
vn -0.007223274757993701 0.5320361999376454 0.846690797314864
vn -0.007223274757993701 0.5320361999376454 0.846690797314864
vn -0.030940963992277366 0.5209839518621537 0.8530054974320633
vn 0.0499641009422079 0.6186895471991187 -0.7840451726804945
vn 0.06246395525022405 0.5933854690040872 -0.8024910837319612
vn 0.06246395525022405 0.5933854690040872 -0.8024910837319612
vn 0.07461002436756228 0.5648673152306356 -0.8218018377005526
vn -0.007223274757993701 0.5320361999376454 -0.846690797314864
vn -0.007223274757993701 0.5320361999376454 -0.846690797314864
vn -0.030940963992277366 0.5209839518621537 -0.8530054974320633
vn 0.3945977352820611 0.12421631696601805 -0.9104190979486679
vn 0.3945977352820611 0.12421631696601805 -0.9104190979486679
vn 0.24821914873033796 0.7059090773506921 -0.6633849777598835
vn 0.4038027135407124 -0.2688302634823549 -0.8744562070070547
vn 0.4038027135407124 -0.2688302634823549 0.8744562070070547
vn 0.394597761174329 0.12421630083400238 0.9104190889273597
vn 0.394597761174329 0.12421630083400238 0.9104190889273597
vn 0.24821914873033796 0.7059090773506921 0.6633849777598835
vn 0.15489211685890727 0.567018389972217 0.8090108636899022
vn 0.15489211685890727 0.567018389972217 0.8090108636899022
vn 0.1674930328554114 0.5585883936744184 0.8123577354818067
vn 0.14380474077123068 0.5743026609006374 0.805913550087208
vn 0.15489211685890727 0.567018389972217 -0.8090108636899022
vn 0.15489211685890727 0.567018389972217 -0.8090108636899022
vn 0.1674930328554114 0.5585883936744184 -0.8123577354818067
vn 0.14380474077123068 0.5743026609006374 -0.805913550087208
vn 0.37187284367059986 -0.7659102110237159 0.5244922657103235
vn 0.14112780586223736 -0.8341504693847975 0.5331753340484089
vn 0.14112780586223736 -0.8341504693847975 0.5331753340484089
vn -0.01869932562206792 -0.9094279408911977 0.4154409170359559
vn 0.3764872266030967 -0.8433082133049674 0.38352134957143136
vn 0.38769104483644884 -0.7196406611967909 0.5760320932950423
vn 0.3890585224318364 -0.5776639463446981 0.7175916883692467
vn 0.23194475394190917 -0.5383396726674907 0.8101802441130531
vn 0.3960299468535416 -0.4462071630875811 0.8025331449881143
vn 0.058447676952123245 -0.6049373078458052 0.7941251303385188
vn 0.058447676952123245 -0.6049373078458052 0.7941251303385188
vn -0.13462619682780827 -0.6797407370111352 0.7209912049222507
vn -0.2134584018954885 -0.6724262172987091 0.7087160876892619
vn -0.2134584018954885 -0.6724262172987091 0.7087160876892619
vn -0.208218914966471 -0.6800617501042648 0.7029657882822677
vn -0.005155407874521654 -0.6554259126523663 0.7552418783366425
vn -0.005155407874521654 -0.6554259126523663 0.7552418783366425
vn 0.07140127474533647 -0.6385885988234149 0.7662287252625606
vn 0.058447676952123245 -0.6049373078458052 -0.7941251303385188
vn 0.058447676952123245 -0.6049373078458052 -0.7941251303385188
vn -0.13462619682780827 -0.6797407370111352 -0.7209912049222507
vn 0.23194475394190917 -0.5383396726674907 -0.8101802441130531
vn -0.2134584018954885 -0.6724262172987091 -0.7087160876892619
vn -0.2134584018954885 -0.6724262172987091 -0.7087160876892619
vn -0.208218914966471 -0.6800617501042648 -0.7029657882822677
vn -0.005155407874521654 -0.6554259126523663 -0.7552418783366425
vn -0.005155407874521654 -0.6554259126523663 -0.7552418783366425
vn 0.07140127474533647 -0.6385885988234149 -0.7662287252625606
vn 0.3890585224318364 -0.5776639463446981 -0.7175916883692467
vn 0.3960299468535416 -0.4462071630875811 -0.8025331449881143
vn 0.3876910195135449 -0.719640669511586 -0.5760320999505707
vn 0.3718728490217116 -0.7659101624402328 -0.5244923328622177
vn 0.3764872266030967 -0.8433082133049674 -0.38352134957143136
vn 0.14112780586223736 -0.8341504693847975 -0.5331753340484089
vn 0.14112780586223736 -0.8341504693847975 -0.5331753340484089
vn -0.01869932562206792 -0.9094279408911977 -0.4154409170359559
vn -0.5214303653868295 -0.6826764242982992 0.5119211597109913
vn -0.5214303653868295 -0.6826764242982992 0.5119211597109913
vn -0.5214203049294098 -0.6826772158222012 0.5119303513219047
vn -0.5214385172582051 -0.6826757503642267 0.5119137550253995
vn -0.5214385172582051 -0.6826757503642267 -0.5119137550253995
vn -0.52143044591329 -0.6826763920852862 -0.5119211206466129
vn -0.52143044591329 -0.6826763920852862 -0.5119211206466129
vn -0.5214203049294098 -0.6826772158222012 -0.5119303513219047
vn 0.27309184694820926 0.4886979060391983 0.8286104028814257
vn 0.27309184694820926 0.4886979060391983 0.8286104028814257
vn 0.6589894730618572 0.24557095169210086 0.7109344428839353
vn 0.11154257104428782 0.5527711680814452 0.8258342997131475
vn 0.11154257104428782 0.5527711680814452 -0.8258342997131475
vn 0.27309184694820926 0.4886979060391983 -0.8286104028814257
vn 0.27309184694820926 0.4886979060391983 -0.8286104028814257
vn 0.6589894730618572 0.24557095169210086 -0.7109344428839353
vn 0.034132555487046815 0.7902782046677473 0.6117968027728209
vn -0.4108381259149364 0.8071860647048263 0.42386636011960044
vn 0.034132555487046815 0.7902782046677473 0.6117968027728209
vn 0.32625784236756317 0.6779282432838105 0.6587633241550328
vn 0.034132555487046815 0.7902782046677473 -0.6117968027728209
vn 0.034132555487046815 0.7902782046677473 -0.6117968027728209
vn 0.32625784236756317 0.6779282432838105 -0.6587633241550328
vn -0.4108381259149364 0.8071860647048263 -0.42386636011960044
vn -0.03766678310333955 -0.9076304524057722 0.4180767576849246
vn 0.1522940559366297 -0.769320852217487 0.6204449587753375
vn 0.1522940559366297 -0.769320852217487 0.6204449587753375
vn 0.24468352699417636 -0.669115107229231 0.701722840511341
vn 0.1522940704921812 -0.7693208504716222 -0.6204449573673254
vn 0.1522940704921812 -0.7693208504716222 -0.6204449573673254
vn 0.24468352699417636 -0.669115107229231 -0.701722840511341
vn -0.03766678310333955 -0.9076304524057722 -0.4180767576849246
vn -0.011820742813376866 0.6000390624953695 0.7998833624466869
vn 0.029474541239735648 0.6219199235418897 0.7825259485284544
vn 0.029474541239735648 0.6219199235418897 0.7825259485284544
vn 0.06100345282531381 0.637609350015427 0.7679406848945397
vn 0.029474541239735648 0.6219199235418897 -0.7825259485284544
vn 0.029474541239735648 0.6219199235418897 -0.7825259485284544
vn 0.06100345282531381 0.637609350015427 -0.7679406848945397
vn -0.011820742813376866 0.6000390624953695 -0.7998833624466869
vn -0.4050430329155878 -0.4984352851851149 0.7664870566219466
vn -0.5014191368847274 -0.4714720938284072 0.7254604840422618
vn -0.433027377898494 -0.37176009259980225 0.8211465907744739
vn -0.47481220060653934 -0.6520823712730345 0.5910515673188862
vn -0.18875962141663966 -0.535772790393698 0.8229929054350332
vn -0.0720103915054814 -0.5576512894492567 0.8269459129174099
vn -0.4050430329155878 -0.4984352851851149 -0.7664870566219466
vn -0.18875962141663966 -0.535772790393698 -0.8229929054350332
vn -0.43302734888683964 -0.37176012308092327 -0.8211465922738108
vn -0.0720103915054814 -0.5576512894492567 -0.8269459129174099
vn -0.5014191368847274 -0.4714720938284072 -0.7254604840422618
vn -0.47481220060653934 -0.6520823712730345 -0.5910515673188862
vn -0.05340738138212615 0.7715691803044348 0.6338995595662195
vn -0.048778532908475905 0.6757350421721581 0.7355289304357024
vn 0.0027920768441037397 0.6588421317463963 0.7522760462375236
vn -0.09915806119394671 0.6901736692845512 0.7168179581501545
vn 0.008226927496232791 0.8766681686625954 0.4810251965518469
vn -0.054845540292843754 0.8029810577941541 0.5934756840290659
vn -0.17330339268785916 0.6098191638833161 0.773360537811137
vn -0.053407388811454966 0.7715691799974149 -0.6338995593139806
vn -0.054845544006928156 0.8029810576300924 -0.5934756839078096
vn -0.17330339268785916 0.6098191638833161 -0.773360537811137
vn 0.008226927496232791 0.8766681686625954 -0.4810251965518469
vn -0.048778532908475905 0.6757350421721581 -0.7355289304357024
vn 0.0027920768441037397 0.6588421317463963 -0.7522760462375236
vn -0.09915806119394671 0.6901736692845512 -0.7168179581501545
vn -0.006259348059520314 0.7308026933472719 0.6825600661906929
vn -0.006259348059520314 0.7308026933472719 0.6825600661906929
vn -0.10661508562169027 0.6976417089871964 0.708469667240104
vn 0.27312934369548764 0.7768203011818683 0.5674068921719083
vn 0.27312934369548764 0.7768203011818683 -0.5674068921719083
vn -0.006259351126031023 0.7308026655630517 -0.6825600959105501
vn -0.006259351126031023 0.7308026655630517 -0.6825600959105501
vn -0.10661508562169027 0.6976417089871964 -0.708469667240104
vn 0 0 -1
vn 0 0 -1
vn 0 0 -1
vn 0 0 -1
vn 0 0 -1
vn 0 0 -1
vn 0 0 -1
vn 0 0 -1
vn 0 0 -1
vn 0 0 -1
vn 0 0 -1
vn 0 0 -1
vn 0 0 -1
vn 0 0 -1
vn 0 0 -1
vn 0 0 -1
vn 0 0 -1
vn 0 0 -1
vn 0 0 -1
vn 0 0 -1
vn 0 0 -1
vn 0 0 -1
vn 0 0 -1
vn 0 0 -1
vn 0 0 -1
vn 0 0 -1
vn 0 0 -1
vn 0 0 -1
vn 0 0 -1
vn 0 0 -1
vn 0 0 -1
vn 0 0 -1
vn 0 0 -1
vn 0 0 -1
vn 0 0 -1
vn 0 0 -1
vn 0 0 -1
vn 0 0 -1
vn 0 0 -1
vn 0 0 -1
vn 0 0 -1
vn 0 0 -1
vn 0 0 -1
vn 0 0 -1
vn 0 0 -1
vn 0 0 -1
vn 0 0 -1
vn 0 0 -1
vn 0 0 -1
vn 0 0 -1
vn 0 0 -1
vn 0 0 -1
vn 0 0 -1
vn 0 0 -1
vn 0 0 -1
vn 0 0 1
vn 0 0 1
vn 0 0 1
vn 0 0 1
vn 0 0 1
vn 0 0 1
vn 0 0 1
vn 0 0 1
vn 0 0 1
vn 0 0 1
vn 0 0 1
vn 0 0 1
vn 0 0 1
vn 0 0 1
vn 0 0 1
vn 0 0 1
vn 0 0 1
vn 0 0 1
vn 0 0 1
vn 0 0 1
vn 0 0 1
vn 0 0 1
vn 0 0 1
vn 0 0 1
vn 0 0 1
vn 0 0 1
vn 0 0 1
vn 0 0 1
vn 0 0 1
vn 0 0 1
vn 0 0 1
vn 0 0 1
vn 0 0 1
vn 0 0 1
vn 0 0 1
vn 0 0 1
vn 0 0 1
vn 0.07553358425687352 -0.017333319524643405 -0.9969925945981577
vn 0 0 -1
vn 0.03989892050304084 -0.00784571649171413 -0.9991729184057302
vn 0 0 -1
vn 0 0 -1
vn 0.11355275916253678 -0.026057897721933468 -0.9931901916817787
vn 0 0 -1
vn 0 0 -1
vn 0.04917618389475999 -0.013030554511570765 -0.9987051154303105
vn 0 0 -1
vn 0 0 -1
vn 0 0 -1
vn 0 0 -1
vn 0 0 -1
vn 0 0 -1
vn 0 0 -1
vn -0.06428573255221004 -0.010283430066383884 -0.9978785475478946
vn 0 0 -1
vn -0.1305055202666756 -0.020876240487763167 -0.9912277698707908
vn -0.21923460190171204 -0.03506973405622875 -0.9750416929968807
vn 0 0 -1
vn 0 0 -1
vn 0 0 -1
vn 0 0 -1
vn 0 0 -1
vn 0 0 -1
vn 0 0 -1
vn 0 0 -1
vn 0 0 -1
vn 0 0 -1
vn 0 0 -1
vn 0 0 -1
vn 0 0 -1
vn 0 0 -1
vn 0 0 -1
vn 0 0 -1
vn 0 0 -1
vn 0 0 -1
vn 0 0 -1
vn 0 0 -1
vn 0 0 -1
vn 0 0 1
vn 0 0 1
vn 0 0 1
vn 0 0 1
vn 0 0 1
vn 0 0 1
vn 0 0 1
vn 0 0 1
vn 0 0 1
vn 0 0 1
vn 0.04917618389475999 -0.013030554511570765 0.9987051154303105
vn 0 0 1
vn 0 0 1
vn 0.11355275916253678 -0.026057897721933468 0.9931901916817787
vn 0.11185606800951804 -0.025668543364296536 0.9933928457216739
vn 0.06825873920263303 -0.013422385631110891 0.997577357444743
vn 0 0 1
vn 0 0 1
vn 0 0 1
vn 0 0 1
vn 0 0 1
vn 0 0 1
vn 0 0 1
vn 0 0 1
vn 0 0 1
vn 0 0 1
vn 0 0 1
vn 0 0 1
vn 0 0 1
vn 0 0 1
vn 0 0 1
vn 0 0 1
vn 0 0 1
vn 0 0 1
vn 0 0 1
vn 0 0 1
vn 0 0 1
vn 0 0 1
vn 0 0 1
vn 0 0 1
vn 0 0 1
vn 0 0 1
vn 0 0 1
vn 0 0 1
vn 0 0 1
vn 0 0 1
vn 0 0 1
vn 0 0 1
vn 0 0 1
vn 0 0 1
vn 0 0 1
vn 0 0 1
vn 0 0 1
vn 0 0 1
vn -0.06428573255221004 -0.010283430066383884 0.9978785475478946
vn -0.1305055202666756 -0.020876240487763167 0.9912277698707908
vn -0.21923460190171204 -0.03506973405622875 0.9750416929968807
vn 0 0 1
vn 0.38684090394643283 0.5680252824890879 0.7264305840801988
vn 0.43007756299148936 0.6029778861899563 0.6719010035542392
vn 0.45616263362778875 0.33307171022429116 0.8252144494190741
vn 0.4328051108658857 0.7669927299220659 0.47371076434367126
vn 0.49066272537564515 0.573566200214624 0.6559511444446927
vn 0.41212474909947955 0.5867623631280293 0.6970388227323508
vn 0.37570133681620776 0.6130427101939079 0.6950015402807556
vn 0.362338496672034 0.5828098273245185 0.7273537784348242
vn 0.2802107338377446 0.6798759709156492 0.6776803146127354
vn 0.3222730199455123 0.6847444261016481 0.6536552390503146
vn 0.362338496672034 0.5828098273245185 -0.7273537784348242
vn 0.49066270274822865 0.5735662086018186 -0.6559511540365932
vn 0.37570133681620776 0.6130427101939079 -0.6950015402807556
vn 0.2802107338377446 0.6798759709156492 -0.6776803146127354
vn 0.3222730199455123 0.6847444261016481 -0.6536552390503146
vn 0.41212474909947955 0.5867623631280293 -0.6970388227323508
vn 0.4300775718242643 0.6029779163948493 -0.6719009707939636
vn 0.4328051473060369 0.766992741685251 -0.4737107120042163
vn 0.38684090394643283 0.5680252824890879 -0.7264305840801988
vn 0.45616263362778875 0.33307171022429116 -0.8252144494190741
vn 0.11067788936409399 0.7844136874296496 0.6102831898216838
vn 0.045102542498028524 0.6783406489184839 0.7333619329397073
vn 0.045102542498028524 0.6783406489184839 0.7333619329397073
vn -0.0695530033969445 0.5674899872144564 0.8204373797736184
vn -0.11376197431972523 0.5651271837861063 0.8171226831662811
vn -0.11252283439417989 0.5671675273019061 0.8158796527148728
vn -0.11502867299361352 0.5630357914054821 0.8183881120750292
vn -0.06955301081148207 0.5674899869203772 -0.8204373793484593
vn -0.11376197815170683 0.56512714321732 -0.8171227106904085
vn -0.11502867299361352 0.5630357914054821 -0.8183881120750292
vn -0.11252283439417989 0.5671675273019061 -0.8158796527148728
vn 0.045102542498028524 0.6783406489184839 -0.7333619329397073
vn 0.045102542498028524 0.6783406489184839 -0.7333619329397073
vn 0.11067788936409399 0.7844136874296496 -0.6102831898216838
vn -0.3994193274026924 0.3301778054123578 0.8552466414492721
vn -0.5428488101159628 0.06728119213013956 0.8371310593576318
vn -0.5428488101159628 0.06728119213013956 0.8371310593576318
vn -0.6740467631759778 -0.5183329646339704 0.5263001983903736
vn -0.5428488101159628 0.06728119213013956 -0.8371310593576318
vn -0.3994193274026924 0.3301778054123578 -0.8552466414492721
vn -0.5428488101159628 0.06728119213013956 -0.8371310593576318
vn -0.6740467631759778 -0.5183329646339704 -0.5263001983903736
vn -0.2618499419799138 -0.8192787237891179 0.5101146740014346
vn -0.2618499419799138 -0.8192787237891179 0.5101146740014346
vn -0.26186859283202363 -0.8192826407954391 0.5100988086434107
vn -0.26183501659486885 -0.8192755821982085 0.5101273806595283
vn -0.26183501659486885 -0.8192755821982085 -0.5101273806595283
vn -0.2618499419799138 -0.8192787237891179 -0.5101146740014346
vn -0.2618499419799138 -0.8192787237891179 -0.5101146740014346
vn -0.26186859283202363 -0.8192826407954391 -0.5100988086434107
vn -0.34322929830561477 0.38646495846955126 0.8560598604418754
vn -0.18087407752685164 0.39241477426421045 0.9018288158059594
vn -0.34322929830561477 0.38646495846955126 0.8560598604418754
vn -0.4103246021514827 0.38049742471179704 0.828767416502916
vn -0.18087407752685164 0.39241477426421045 -0.9018288158059594
vn -0.34322929830561477 0.38646495846955126 -0.8560598604418754
vn -0.34322929830561477 0.38646495846955126 -0.8560598604418754
vn -0.4103246021514827 0.38049742471179704 -0.828767416502916
vn -0.24823519983536377 0.5458631006540217 0.8002579339857085
vn -0.24823519983536377 0.5458631006540217 0.8002579339857085
vn -0.231419445872627 0.5400520604862001 0.8091902199338643
vn -0.2582044063227142 0.5492215279570956 0.7947868882813857
vn -0.24823519983536377 0.5458631006540217 -0.8002579339857085
vn -0.24823519983536377 0.5458631006540217 -0.8002579339857085
vn -0.231419445872627 0.5400520604862001 -0.8091902199338643
vn -0.2582044063227142 0.5492215279570956 -0.7947868882813857
vn 0.056496503366082314 -0.8504716554027575 0.5229781147083495
vn 0.056499975658620645 -0.8504728523434997 0.5229757931083303
vn 0.056499975658620645 -0.8504728523434997 0.5229757931083303
vn 0.05650276491605623 -0.8504737876604997 0.5229739707282227
vn 0.056499975658620645 -0.8504728523434997 -0.5229757931083303
vn 0.056499975658620645 -0.8504728523434997 -0.5229757931083303
vn 0.05650276491605623 -0.8504737876604997 -0.5229739707282227
vn 0.056496503366082314 -0.8504716554027575 -0.5229781147083495
vn 0.03985380326655771 0.8171452171725277 -0.5750524918798743
vn 0.17044471689394539 0.7909476982166279 -0.5876651573547312
vn 0.03985489591987187 0.8171460750780754 -0.5750511970735414
vn 0.3165976402760715 0.7434077853329254 -0.5891610975599274
vn 0.6413499275241396 0.4898248733814279 -0.5905437019236164
vn 0.6413532582899361 0.4898274905675869 -0.5905379137406361
vn 0.7761260931802867 0.2746880077366971 -0.5676044272998133
vn 0.776124298948568 0.2746833564181777 -0.5676091316112155
vn 0.7761260432220006 0.274688011150755 0.5676044939591334
vn 0.6413499719739949 0.48982483200477994 0.5905436879693535
vn 0.776124298948568 0.2746833564181777 0.5676091316112155
vn 0.6413532933771622 0.48982747184264125 0.5905378911657693
vn 0.31659760234308115 0.7434077662411771 0.5891611420340922
vn 0.170444708858473 0.7909477205327095 0.587665129649753
vn 0.03985379954718444 0.8171452172938469 0.5750524919652507
vn 0.03985489591987187 0.8171460750780754 0.5750511970735414
vn -0.5107635351608926 0.27795246744026364 0.8135496524452682
vn -0.5810639206860462 0.12906937178236763 0.8035582227472166
vn -0.5614733737666733 0.1696757537802057 0.8099122107550847
vn -0.5867571300810506 0.15501240070466527 0.7947875350852109
vn -0.4710090777253747 0.3676563815646362 0.8018598591992808
vn -0.46679287586056833 0.3907981765834492 0.79333548781387
vn -0.5107635351608926 0.27795246744026364 -0.8135496524452682
vn -0.4710090777253747 0.3676563815646362 -0.8018598591992808
vn -0.5614733058476683 0.16967575126762813 -0.8099122583664583
vn -0.46679287586056833 0.3907981765834492 -0.79333548781387
vn -0.5810639206860462 0.12906937178236763 -0.8035582227472166
vn -0.5867571300810506 0.15501240070466527 -0.7947875350852109
vn 0.7851377602223863 -0.2657512384615927 0.559405914099149
vn 0.8137676289191469 -0.15737603932374394 0.5594774601090564
vn 0.813766780181174 -0.15737368217999648 0.5594793576448327
vn 0.7468554019817122 -0.3702804266346798 0.5523580488976102
vn 0.5752766647228358 -0.6135304483627538 0.5409594697915623
vn 0.575275239151995 -0.6135296787715354 0.5409618586232411
vn 0.4414055512144647 -0.7279544744316654 0.5246364670054611
vn 0.44140955600282183 -0.7279546822990571 0.5246328091039202
vn 0.575275239151995 -0.6135296787715354 -0.5409618586232411
vn 0.4414055512144647 -0.7279544744316654 -0.5246364670054611
vn 0.5752766647228358 -0.6135304483627538 -0.5409594697915623
vn 0.44140955600282183 -0.7279546822990571 -0.5246328091039202
vn 0.7468554283393027 -0.37028041015125734 -0.552358024308811
vn 0.7851377801830888 -0.2657512750201583 -0.5594058687163835
vn 0.8137676289191469 -0.15737603932374394 -0.5594774601090564
vn 0.813766780181174 -0.15737368217999648 -0.5594793576448327
f 1//1 2//2 3//3
f 2//2 4//4 3//3
f 2//2 5//5 4//4
f 5//5 2//2 6//6
f 7//7 8//8 9//9
f 8//8 7//7 10//10
f 7//7 9//9 11//11
f 11//11 12//12 7//7
f 13//13 14//14 15//15
f 14//14 13//13 16//16
f 16//16 17//17 18//18
f 17//17 16//16 19//19
f 19//19 20//20 17//17
f 20//20 19//19 21//21
f 22//22 20//20 21//21
f 20//20 22//22 23//23
f 24//24 25//25 26//26
f 25//25 24//24 27//27
f 28//28 27//27 24//24
f 28//28 29//29 27//27
f 28//28 30//30 29//29
f 30//30 28//28 31//31
f 32//32 33//33 25//25
f 33//33 32//32 34//34
f 35//35 36//36 37//37
f 35//35 37//37 38//38
f 37//37 39//39 38//38
f 39//39 37//37 40//40
f 41//41 42//42 40//40
f 41//41 43//43 42//42
f 44//44 45//45 46//46
f 47//47 44//44 46//46
f 48//48 49//49 45//45
f 50//50 49//49 48//48
f 48//48 51//51 50//50
f 51//51 48//48 52//52
f 53//53 54//54 55//55
f 55//55 56//56 53//53
f 56//56 57//57 53//53
f 57//57 56//56 58//58
f 59//59 60//60 61//61
f 61//61 60//60 62//62
f 60//60 63//63 62//62
f 64//64 62//62 63//63
f 65//65 66//66 67//67
f 65//65 67//67 68//68
f 68//68 69//69 65//65
f 70//70 65//65 69//69
f 69//69 71//71 72//72
f 71//71 73//73 72//72
f 74//74 75//75 76//76
f 75//75 74//74 77//77
f 78//78 74//74 76//76
f 79//79 74//74 78//78
f 80//80 75//75 81//81
f 82//82 80//80 81//81
f 83//83 84//84 85//85
f 83//83 85//85 86//86
f 87//87 88//88 89//89
f 90//90 87//87 89//89
f 91//91 92//92 93//93
f 92//92 91//91 94//94
f 95//95 94//94 91//91
f 94//94 95//95 96//96
f 95//95 97//97 96//96
f 98//98 97//97 95//95
f 99//99 100//100 101//101
f 100//100 99//99 102//102
f 101//101 100//100 103//103
f 103//103 100//100 104//104
f 103//103 104//104 105//105
f 105//105 104//104 106//106
f 107//107 108//108 109//109
f 109//109 108//108 110//110
f 111//111 112//112 113//113
f 112//112 111//111 114//114
f 115//115 116//116 117//117
f 117//117 118//118 115//115
f 116//116 119//119 120//120
f 121//121 116//116 120//120
f 122//122 123//123 124//124
f 123//123 122//122 125//125
f 126//126 127//127 122//122
f 127//127 126//126 128//128
f 129//129 130//130 131//131
f 130//130 129//129 132//132
f 133//133 131//131 134//134
f 134//134 135//135 133//133
f 136//136 137//137 138//138
f 137//137 136//136 139//139
f 140//140 141//141 138//138
f 140//140 142//142 141//141
f 143//143 144//144 145//145
f 146//146 145//145 144//144
f 147//147 148//148 149//149
f 150//150 147//147 149//149
f 151//151 152//152 153//153
f 152//152 151//151 154//154
f 152//152 154//154 155//155
f 156//156 152//152 155//155
f 157//157 158//158 159//159
f 158//158 157//157 160//160
f 159//159 161//161 157//157
f 161//161 162//162 157//157
f 163//163 164//164 165//165
f 165//165 166//166 163//163
f 167//167 168//168 169//169
f 168//168 167//167 170//170
f 171//171 172//172 173//173
f 172//172 171//171 174//174
f 175//175 176//176 173//173
f 175//175 177//177 176//176
f 178//178 179//179 180//180
f 181//181 180//180 179//179
f 182//182 178//178 183//183
f 184//184 182//182 183//183
f 185//185 186//186 187//187
f 186//186 185//185 188//188
f 189//189 190//190 187//187
f 190//190 189//189 191//191
f 192//192 193//193 194//194
f 194//194 193//193 195//195
f 196//196 197//197 195//195
f 197//197 196//196 198//198
f 199//199 200//200 201//201
f 200//200 199//199 202//202
f 203//203 204//204 205//205
f 205//205 204//204 206//206
f 207//207 208//208 209//209
f 208//208 207//207 210//210
f 211//211 212//212 213//213
f 212//212 211//211 214//214
f 215//215 216//216 217//217
f 216//216 218//218 217//217
f 215//215 219//219 220//220
f 221//221 215//215 220//220
f 221//221 220//220 222//222
f 221//221 222//222 223//223
f 224//224 222//222 225//225
f 226//226 224//224 225//225
f 227//227 228//228 226//226
f 228//228 227//227 229//229
f 230//230 229//229 231//231
f 231//231 232//232 230//230
f 233//233 234//234 235//235
f 234//234 233//233 236//236
f 235//235 237//237 238//238
f 238//238 237//237 239//239
f 240//240 241//241 239//239
f 241//241 240//240 242//242
f 236//236 243//243 244//244
f 243//243 236//236 245//245
f 245//245 246//246 243//243
f 246//246 245//245 247//247
f 248//248 249//249 246//246
f 249//249 248//248 250//250
f 251//251 252//252 253//253
f 252//252 251//251 254//254
f 255//255 256//256 257//257
f 257//257 256//256 258//258
f 259//259 260//260 261//261
f 260//260 259//259 262//262
f 263//263 264//264 265//265
f 265//265 264//264 266//266
f 267//267 268//268 269//269
f 269//269 270//270 267//267
f 271//271 272//272 273//273
f 272//272 271//271 274//274
f 275//275 276//276 277//277
f 276//276 278//278 277//277
f 279//279 280//280 281//281
f 280//280 279//279 282//282
f 283//283 284//284 285//285
f 286//286 285//285 284//284
f 287//287 288//288 289//289
f 288//288 287//287 290//290
f 291//291 292//292 293//293
f 292//292 291//291 294//294
f 295//295 291//291 293//293
f 295//295 296//296 291//291
f 297//297 298//298 299//299
f 298//298 297//297 300//300
f 301//301 297//297 299//299
f 302//302 297//297 301//301
f 303//303 304//304 305//305
f 304//304 303//303 306//306
f 307//307 303//303 308//308
f 308//308 303//303 309//309
f 310//310 311//311 312//312
f 311//311 310//310 313//313
f 314//314 310//310 315//315
f 316//316 310//310 314//314
f 317//317 318//318 319//319
f 318//318 317//317 320//320
f 321//321 322//322 323//323
f 322//322 324//324 323//323
f 325//325 326//326 327//327
f 327//327 328//328 329//329
f 330//330 328//328 331//331
f 330//330 331//331 332//332
f 333//333 332//332 331//331
f 334//334 335//335 336//336
f 336//336 337//337 338//338
f 339//339 340//340 341//341
f 340//340 339//339 342//342
f 341//341 343//343 344//344
f 342//342 345//345 346//346
f 347//347 346//346 345//345
f 346//346 347//347 348//348
f 346//346 349//349 350//350
f 351//351 352//352 353//353
f 351//351 354//354 355//355
f 356//356 357//357 358//358
f 357//357 359//359 358//358
f 360//360 361//361 362//362
f 362//362 361//361 363//363
f 363//363 364//364 362//362
f 364//364 363//363 365//365
f 366//366 367//367 360//360
f 366//366 368//368 369//369
f 370//370 371//371 372//372
f 373//373 374//374 375//375
f 373//373 375//375 376//376
f 374//374 373//373 377//377
f 374//374 378//378 379//379
f 380//380 381//381 382//382
f 383//383 382//382 381//381
f 384//384 382//382 383//383
f 385//385 386//386 380//380
f 386//386 385//385 387//387
f 388//388 387//387 385//385
f 389//389 390//390 391//391
f 391//391 392//392 393//393
f 391//391 394//394 395//395
f 396//396 395//395 397//397
f 398//398 399//399 400//400
f 401//401 402//402 403//403
f 404//404 405//405 406//406
f 407//407 405//405 404//404
f 406//406 408//408 404//404
f 409//409 410//410 411//411
f 412//412 413//413 414//414
f 413//413 415//415 416//416
f 417//417 418//418 364//364
f 418//418 417//417 419//419
f 419//419 420//420 418//418
f 420//420 419//419 421//421
f 417//417 422//422 419//419
f 420//420 423//423 424//424
f 425//425 422//422 417//417
f 422//422 425//425 426//426
f 427//427 426//426 425//425
f 426//426 427//427 428//428
f 429//429 428//428 427//427
f 429//429 430//430 428//428
f 431//431 430//430 429//429
f 431//431 432//432 430//430
f 430//430 432//432 433//433
f 432//432 431//431 434//434
f 433//433 432//432 435//435
f 436//436 433//433 435//435
f 432//432 434//434 437//437
f 437//437 434//434 438//438
f 439//439 438//438 434//434
f 438//438 439//439 440//440
f 440//440 439//439 441//441
f 442//442 441//441 439//439
f 441//441 442//442 443//443
f 444//444 443//443 442//442
f 443//443 444//444 445//445
f 446//446 445//445 444//444
f 445//445 446//446 447//447
f 446//446 448//448 447//447
f 448//448 449//449 447//447
f 448//448 446//446 450//450
f 450//450 451//451 448//448
f 451//451 450//450 452//452
f 453//453 448//448 451//451
f 454//454 448//448 453//453
f 448//448 454//454 455//455
f 455//455 454//454 456//456
f 456//456 457//457 455//455
f 458//458 459//459 460//460
f 461//461 460//460 459//459
f 459//459 458//458 462//462
f 460//460 461//461 463//463
f 462//462 458//458 464//464
f 465//465 463//463 461//461
f 466//466 464//464 458//458
f 465//465 467//467 463//463
f 468//468 469//469 470//470
f 469//469 468//468 471//471
f 472//472 471//471 468//468
f 471//471 472//472 473//473
f 388//388 472//472 474//474
f 472//472 388//388 475//475
f 476//476 473//473 475//475
f 473//473 476//476 477//477
f 476//476 478//478 477//477
f 478//478 476//476 479//479
f 479//479 480//480 478//478
f 481//481 480//480 479//479
f 482//482 481//481 483//483
f 483//483 484//484 485//485
f 486//486 484//484 487//487
f 487//487 488//488 489//489
f 489//489 488//488 490//490
f 490//490 491//491 492//492
f 491//491 493//493 492//492
f 494//494 495//495 493//493
f 496//496 497//497 498//498
f 496//496 499//499 497//497
f 500//500 496//496 498//498
f 500//500 498//498 501//501
f 499//499 496//496 502//502
f 499//499 502//502 503//503
f 504//504 503//503 502//502
f 464//464 466//466 505//505
f 506//506 467//467 465//465
f 466//466 507//507 505//505
f 507//507 466//466 508//508
f 467//467 506//506 496//496
f 506//506 509//509 496//496
f 496//496 500//500 467//467
f 510//510 507//507 508//508
f 511//511 510//510 508//508
f 507//507 510//510 512//512
f 507//507 512//512 513//513
f 512//512 514//514 513//513
f 510//510 511//511 515//515
f 470//470 515//515 511//511
f 515//515 470//470 469//469
f 516//516 517//517 518//518
f 517//517 516//516 519//519
f 517//517 519//519 520//520
f 521//521 517//517 520//520
f 520//520 522//522 521//521
f 522//522 520//520 523//523
f 522//522 523//523 524//524
f 525//525 522//522 524//524
f 526//526 527//527 528//528
f 528//528 529//529 526//526
f 529//529 528//528 530//530
f 527//527 531//531 528//528
f 527//527 532//532 531//531
f 532//532 527//527 533//533
f 534//534 532//532 533//533
f 534//534 535//535 532//532
f 536//536 537//537 538//538
f 538//538 537//537 539//539
f 539//539 540//540 541//541
f 540//540 539//539 542//542
f 543//543 544//544 545//545
f 544//544 543//543 546//546
f 547//547 548//548 543//543
f 548//548 547//547 549//549
f 550//550 551//551 552//552
f 551//551 553//553 552//552
f 554//554 555//555 556//556
f 554//554 556//556 557//557
f 558//558 559//559 560//560
f 559//559 558//558 561//561
f 562//562 563//563 564//564
f 564//564 563//563 565//565
f 566//566 567//567 568//568
f 568//568 569//569 566//566
f 570//570 571//571 572//572
f 573//573 572//572 571//571
f 574//574 575//575 576//576
f 575//575 574//574 577//577
f 578//578 579//579 580//580
f 579//579 578//578 581//581
f 582//582 583//583 584//584
f 584//584 583//583 585//585
f 586//586 587//587 588//588
f 587//587 586//586 589//589
f 590//590 591//591 592//592
f 591//591 590//590 593//593
f 593//593 594//594 591//591
f 594//594 593//593 595//595
f 595//595 596//596 594//594
f 596//596 597//597 594//594
f 598//598 599//599 600//600
f 599//599 598//598 601//601
f 602//602 599//599 601//601
f 599//599 602//602 603//603
f 604//604 603//603 602//602
f 603//603 604//604 605//605
f 606//606 607//607 608//608
f 607//607 609//609 608//608
f 606//606 608//608 610//610
f 611//611 606//606 610//610
f 612//612 613//613 614//614
f 613//613 612//612 615//615
f 614//614 616//616 612//612
f 616//616 614//614 617//617
f 618//618 619//619 620//620
f 619//619 618//618 621//621
f 618//618 622//622 621//621
f 622//622 623//623 621//621
f 622//622 624//624 623//623
f 624//624 622//622 625//625
f 626//626 627//627 628//628
f 627//627 629//629 628//628
f 628//628 630//630 626//626
f 630//630 628//628 631//631
f 630//630 631//631 632//632
f 632//632 631//631 633//633
