# Blender 5.2.0 LTS
# www.blender.org
o Cube
v 6.232280 2.512342 0.003412
v 6.232274 2.512336 0.003418
v 6.232280 2.519265 0.003412
v 6.232274 2.519271 0.003418
v 6.232280 2.512342 -0.003465
v 6.232274 2.512336 -0.003471
v 6.232280 2.519265 -0.003465
v 6.232274 2.519271 -0.003471
v 6.241038 2.512342 0.003412
v 6.241045 2.512336 0.003418
v 6.241038 2.519265 0.003412
v 6.241045 2.519271 0.003418
v 6.241038 2.512342 -0.003465
v 6.241045 2.512336 -0.003471
v 6.241038 2.519265 -0.003465
v 6.241045 2.519271 -0.003471
v 6.232277 2.512345 0.003409
v 6.232277 2.519262 0.003409
v 6.232277 2.519262 -0.003463
v 6.232277 2.512345 -0.003463
v 6.232283 2.512345 -0.003468
v 6.232283 2.519262 -0.003468
v 6.241035 2.519262 -0.003468
v 6.241035 2.512345 -0.003468
v 6.241041 2.512345 -0.003463
v 6.241041 2.519262 -0.003463
v 6.241041 2.519262 0.003409
v 6.241041 2.512345 0.003409
v 6.241035 2.512345 0.003415
v 6.241035 2.519262 0.003415
v 6.232283 2.519262 0.003415
v 6.232283 2.512345 0.003415
v 6.232283 2.512339 -0.003463
v 6.241035 2.512339 -0.003463
v 6.241035 2.512339 0.003409
v 6.232283 2.512339 0.003409
v 6.241035 2.519268 -0.003463
v 6.232283 2.519268 -0.003463
v 6.232283 2.519268 0.003409
v 6.241035 2.519268 0.003409
vn -0.4742 0.6161 -0.6290
vn -0.4742 -0.6161 -0.6290
vn 0.5694 -0.5832 -0.5794
vn 0.5684 0.5821 -0.5815
vn -0.5798 -0.5811 0.5711
vn -0.5771 0.5784 0.5765
vn -0.4742 -0.6160 0.6290
vn 0.5694 -0.5832 0.5794
vn -0.5771 0.5784 -0.5765
vn -0.4742 0.6160 0.6290
vn 0.5684 0.5821 0.5815
vn -0.5798 -0.5811 -0.5711
vn 0.6313 0.6191 -0.4671
vn 0.6198 -0.6250 -0.4746
vn -0.6198 -0.6250 -0.4746
vn -0.5694 -0.5832 0.5794
vn 0.5771 0.5784 -0.5765
vn -0.6313 0.6191 -0.4671
vn -0.5684 0.5821 0.5815
vn 0.5798 -0.5811 -0.5711
vn 0.4742 0.6160 0.6290
vn 0.4742 -0.6160 0.6290
vn 0.4742 -0.6161 -0.6290
vn -0.5694 -0.5832 -0.5794
vn 0.5771 0.5784 0.5765
vn 0.4742 0.6161 -0.6290
vn -0.5684 0.5821 -0.5815
vn 0.5798 -0.5811 0.5711
vn -0.6313 0.6191 0.4671
vn -0.6197 -0.6250 0.4746
vn 0.6197 -0.6250 0.4746
vn 0.6313 0.6191 0.4671
vn 0.6178 -0.4542 0.6419
vn -0.6178 -0.4542 0.6419
vn -0.6178 -0.4542 -0.6419
vn 0.6178 -0.4542 -0.6419
vn -0.6136 0.4687 0.6354
vn 0.6136 0.4687 0.6354
vn 0.6136 0.4687 -0.6354
vn -0.6136 0.4687 -0.6354
vt 0.375000 0.000000
vt 0.625000 0.000000
vt 0.625000 0.250000
vt 0.375000 0.250000
vt 0.625000 0.500000
vt 0.375000 0.500000
vt 0.625000 0.750000
vt 0.375000 0.750000
vt 0.625000 1.000000
vt 0.375000 1.000000
vt 0.125000 0.500000
vt 0.125000 0.750000
vt 0.875000 0.500000
vt 0.875000 0.750000
s 1
f 17/1/1 18/2/2 3/2/3 1/1/4
f 18/2/2 17/1/1 2/1/5 4/2/6
f 18/2/2 19/3/7 7/3/8 3/2/3
f 19/3/7 18/2/2 4/2/6 8/3/9
f 19/3/7 20/4/10 5/4/11 7/3/8
f 20/4/10 19/3/7 8/3/9 6/4/12
f 20/4/10 17/1/1 1/1/4 5/4/11
f 17/1/1 20/4/10 6/4/12 2/1/5
f 21/4/13 22/3/14 7/3/8 5/4/11
f 22/3/14 21/4/13 6/4/12 8/3/9
f 22/3/14 23/5/15 15/5/16 7/3/8
f 23/5/15 22/3/14 8/3/9 16/5/17
f 23/5/15 24/6/18 13/6/19 15/5/16
f 24/6/18 23/5/15 16/5/17 14/6/20
f 24/6/18 21/4/13 5/4/11 13/6/19
f 21/4/13 24/6/18 14/6/20 6/4/12
f 25/6/21 26/5/22 15/5/16 13/6/19
f 26/5/22 25/6/21 14/6/20 16/5/17
f 26/5/22 27/7/23 11/7/24 15/5/16
f 27/7/23 26/5/22 16/5/17 12/7/25
f 27/7/23 28/8/26 9/8/27 11/7/24
f 28/8/26 27/7/23 12/7/25 10/8/28
f 28/8/26 25/6/21 13/6/19 9/8/27
f 25/6/21 28/8/26 10/8/28 14/6/20
f 29/8/29 30/7/30 11/7/24 9/8/27
f 30/7/30 29/8/29 10/8/28 12/7/25
f 30/7/30 31/9/31 3/9/3 11/7/24
f 31/9/31 30/7/30 12/7/25 4/9/6
f 31/9/31 32/10/32 1/10/4 3/9/3
f 32/10/32 31/9/31 4/9/6 2/10/5
f 32/10/32 29/8/29 9/8/27 1/10/4
f 29/8/29 32/10/32 2/10/5 10/8/28
f 33/11/33 34/6/34 13/6/19 5/11/11
f 34/6/34 33/11/33 6/11/12 14/6/20
f 34/6/34 35/8/35 9/8/27 13/6/19
f 35/8/35 34/6/34 14/6/20 10/8/28
f 35/8/35 36/12/36 1/12/4 9/8/27
f 36/12/36 35/8/35 10/8/28 2/12/5
f 36/12/36 33/11/33 5/11/11 1/12/4
f 33/11/33 36/12/36 2/12/5 6/11/12
f 37/5/37 38/13/38 7/13/8 15/5/16
f 38/13/38 37/5/37 16/5/17 8/13/9
f 38/13/38 39/14/39 3/14/3 7/13/8
f 39/14/39 38/13/38 8/13/9 4/14/6
f 39/14/39 40/7/40 11/7/24 3/14/3
f 40/7/40 39/14/39 4/14/6 12/7/25
f 40/7/40 37/5/37 15/5/16 11/7/24
f 37/5/37 40/7/40 12/7/25 16/5/17
o 112741123615460.001
v 0.419235 0.025843 0.047601
v 0.419235 0.025843 0.047637
v 0.409548 0.016157 0.047603
v 0.409548 0.016157 0.047635
v 0.416398 0.018994 0.047608
v 0.416398 0.018994 0.047630
v 0.399863 0.025843 0.047601
v 0.399863 0.025843 0.047637
v 0.402699 0.018994 0.047608
v 0.402699 0.018994 0.047630
v 0.409548 0.035529 0.047603
v 0.409548 0.035529 0.047635
v 0.416398 0.032692 0.047608
v 0.416398 0.032692 0.047630
v 0.402699 0.032692 0.047608
v 0.402699 0.032692 0.047630
v 0.397899 0.014193 0.027168
v 0.397867 0.014161 0.027182
v 0.402716 0.019011 0.047611
v 0.402682 0.018977 0.047627
v 0.393078 0.025843 0.027166
v 0.393024 0.025843 0.027184
v 0.409548 0.009373 0.027166
v 0.409548 0.009319 0.027184
v 0.399880 0.025843 0.047613
v 0.399846 0.025843 0.047625
v 0.409548 0.016174 0.047613
v 0.409548 0.016140 0.047625
v 0.402716 0.032675 0.047611
v 0.402682 0.032709 0.047627
v 0.416381 0.019011 0.047611
v 0.416415 0.018977 0.047627
v 0.397899 0.037492 0.027168
v 0.397867 0.037524 0.027182
v 0.421198 0.014193 0.027168
v 0.421230 0.014161 0.027182
v 0.409548 0.042313 0.027166
v 0.409548 0.042367 0.027184
v 0.426019 0.025843 0.027166
v 0.426073 0.025843 0.027184
v 0.409548 0.035512 0.047613
v 0.409548 0.035546 0.047625
v 0.419218 0.025843 0.047613
v 0.419252 0.025843 0.047625
v 0.416381 0.032675 0.047611
v 0.416415 0.032709 0.047627
v 0.421198 0.037492 0.027168
v 0.421230 0.037524 0.027182
v 0.425877 0.042172 -0.018382
v 0.425877 0.042172 -0.018434
v 0.409548 0.058627 -0.018376
v 0.409548 0.058627 -0.018440
v 0.432731 0.049025 -0.018377
v 0.432731 0.049025 -0.018439
v 0.409548 0.048935 -0.018385
v 0.409548 0.048935 -0.018431
v 0.432641 0.025843 -0.018381
v 0.432641 0.025843 -0.018435
v 0.393219 0.042172 -0.018382
v 0.393219 0.042172 -0.018434
v 0.442333 0.025843 -0.018378
v 0.442333 0.025843 -0.018438
v 0.386366 0.049025 -0.018377
v 0.386366 0.049025 -0.018439
v 0.432731 0.002661 -0.018377
v 0.432731 0.002661 -0.018439
v 0.386455 0.025843 -0.018381
v 0.386455 0.025843 -0.018435
v 0.425877 0.009514 -0.018382
v 0.425877 0.009514 -0.018434
v 0.376763 0.025843 -0.018378
v 0.376763 0.025843 -0.018438
v 0.409548 -0.006942 -0.018376
v 0.409548 -0.006942 -0.018440
v 0.386366 0.002661 -0.018377
v 0.386366 0.002661 -0.018439
v 0.409548 0.002751 -0.018385
v 0.409548 0.002751 -0.018431
v 0.393219 0.009514 -0.018382
v 0.393219 0.009514 -0.018434
v 0.432498 0.025843 0.027153
v 0.432498 0.025843 0.027197
v 0.425776 0.042071 0.027154
v 0.425776 0.042071 0.027196
v 0.421214 0.037508 0.027156
v 0.421214 0.037508 0.027194
v 0.409548 0.048792 0.027153
v 0.409548 0.048792 0.027197
v 0.426046 0.025843 0.027157
v 0.426046 0.025843 0.027193
v 0.409548 0.042340 0.027157
v 0.409548 0.042340 0.027193
v 0.425776 0.009615 0.027153
v 0.425776 0.009615 0.027197
v 0.393321 0.042071 0.027153
v 0.393321 0.042071 0.027197
v 0.421214 0.014177 0.027157
v 0.421214 0.014177 0.027193
v 0.397883 0.037508 0.027157
v 0.397883 0.037508 0.027193
v 0.409548 0.002894 0.027153
v 0.409548 0.002894 0.027197
v 0.386599 0.025843 0.027153
v 0.386599 0.025843 0.027197
v 0.409548 0.009346 0.027159
v 0.409548 0.009346 0.027191
v 0.393051 0.025843 0.027157
v 0.393051 0.025843 0.027193
v 0.397883 0.014177 0.027157
v 0.397883 0.014177 0.027193
v 0.393321 0.009615 0.027153
v 0.393321 0.009615 0.027197
v 0.425763 0.042058 0.027153
v 0.425789 0.042084 0.027197
v 0.409548 0.058605 0.018697
v 0.409548 0.058649 0.018749
v 0.409548 0.048776 0.027157
v 0.409548 0.048808 0.027193
v 0.393334 0.042058 0.027154
v 0.393308 0.042084 0.027196
v 0.432716 0.049010 0.018699
v 0.432746 0.049040 0.018747
v 0.386381 0.049010 0.018698
v 0.386351 0.049040 0.018748
v 0.442312 0.025843 0.018698
v 0.442354 0.025843 0.018748
v 0.386618 0.025843 0.027153
v 0.386580 0.025843 0.027197
v 0.432480 0.025843 0.027154
v 0.432516 0.025843 0.027196
v 0.376784 0.025843 0.018699
v 0.376742 0.025843 0.018747
v 0.432715 0.002677 0.018697
v 0.432747 0.002645 0.018749
v 0.386381 0.002676 0.018698
v 0.386351 0.002646 0.018748
v 0.425765 0.009626 0.027157
v 0.425787 0.009604 0.027193
v 0.393334 0.009628 0.027154
v 0.393308 0.009602 0.027196
v 0.409548 0.002912 0.027154
v 0.409548 0.002876 0.027196
v 0.409548 -0.006921 0.018698
v 0.409548 -0.006963 0.018748
v 0.386401 0.002696 -0.018408
v 0.386331 0.002626 -0.018408
v 0.409548 -0.006892 -0.018408
v 0.409548 -0.006992 -0.018408
v 0.386401 0.002696 0.018723
v 0.386331 0.002626 0.018723
v 0.409548 -0.006892 0.018723
v 0.409548 -0.006992 0.018723
v 0.376813 0.025843 0.018723
v 0.376713 0.025843 0.018723
v 0.432696 0.002696 -0.018408
v 0.432766 0.002626 -0.018408
v 0.376813 0.025843 -0.018408
v 0.376713 0.025843 -0.018408
v 0.432696 0.002696 0.018723
v 0.432766 0.002626 0.018723
v 0.386401 0.048990 0.018723
v 0.386331 0.049060 0.018723
v 0.442283 0.025843 -0.018408
v 0.442383 0.025843 -0.018408
v 0.386401 0.048990 -0.018408
v 0.386331 0.049060 -0.018408
v 0.442283 0.025843 0.018723
v 0.442383 0.025843 0.018723
v 0.409548 0.058577 0.018723
v 0.409548 0.058677 0.018723
v 0.432696 0.048990 -0.018408
v 0.432766 0.049060 -0.018408
v 0.409548 0.058577 -0.018408
v 0.409548 0.058677 -0.018408
v 0.432696 0.048990 0.018723
v 0.432766 0.049060 0.018723
v 0.409548 0.002788 -0.047619
v 0.409548 0.002714 -0.047619
v 0.409548 0.002788 -0.018408
v 0.409548 0.002714 -0.018408
v 0.393245 0.009540 -0.047619
v 0.393193 0.009488 -0.047619
v 0.393245 0.009540 -0.018408
v 0.393193 0.009488 -0.018408
v 0.425851 0.009540 -0.018408
v 0.425903 0.009488 -0.018408
v 0.386492 0.025843 -0.047619
v 0.386418 0.025843 -0.047619
v 0.425851 0.009540 -0.047619
v 0.425903 0.009488 -0.047619
v 0.386492 0.025843 -0.018408
v 0.386418 0.025843 -0.018408
v 0.432604 0.025843 -0.018408
v 0.432678 0.025843 -0.018408
v 0.393245 0.042146 -0.047619
v 0.393193 0.042198 -0.047619
v 0.432604 0.025843 -0.047619
v 0.432678 0.025843 -0.047619
v 0.393245 0.042146 -0.018408
v 0.393193 0.042198 -0.018408
v 0.425851 0.042146 -0.018408
v 0.425903 0.042198 -0.018408
v 0.409548 0.048898 -0.047619
v 0.409548 0.048972 -0.047619
v 0.425851 0.042146 -0.047619
v 0.425903 0.042198 -0.047619
v 0.409548 0.048898 -0.018408
v 0.409548 0.048972 -0.018408
v 0.419182 0.025764 0.047619
v 0.409615 0.016202 0.047619
v 0.416389 0.019003 0.047619
v 0.419190 0.025825 0.047619
v 0.399908 0.025825 0.047619
v 0.409548 0.016179 0.047619
v 0.409481 0.016202 0.047619
v 0.399916 0.025764 0.047619
v 0.402708 0.019003 0.047619
v 0.399908 0.025861 0.047619
v 0.419190 0.025861 0.047619
v 0.409548 0.035507 0.047619
v 0.409615 0.035484 0.047619
v 0.419182 0.025922 0.047619
v 0.416389 0.032683 0.047619
v 0.399916 0.025922 0.047619
v 0.409481 0.035484 0.047619
v 0.402708 0.032683 0.047619
v 0.397879 0.014204 0.027197
v 0.402669 0.018997 0.047533
v 0.393076 0.025805 0.027202
v 0.409510 0.009371 0.027202
v 0.402702 0.018964 0.047533
v 0.397910 0.014173 0.027197
v 0.393117 0.025817 0.027339
v 0.402677 0.019028 0.047595
v 0.399864 0.025826 0.047602
v 0.402733 0.018972 0.047595
v 0.409522 0.009412 0.027339
v 0.409531 0.016158 0.047602
v 0.402677 0.032658 0.047595
v 0.393117 0.025869 0.027339
v 0.399864 0.025860 0.047602
v 0.409574 0.009412 0.027339
v 0.416364 0.018972 0.047595
v 0.409565 0.016158 0.047602
v 0.393076 0.025881 0.027202
v 0.402669 0.032689 0.047533
v 0.397879 0.037481 0.027197
v 0.416395 0.018964 0.047533
v 0.409586 0.009371 0.027202
v 0.421187 0.014173 0.027197
v 0.402702 0.032722 0.047533
v 0.409510 0.042315 0.027202
v 0.397910 0.037512 0.027197
v 0.426021 0.025805 0.027202
v 0.416428 0.018997 0.047533
v 0.421218 0.014204 0.027197
v 0.409522 0.042274 0.027339
v 0.402733 0.032714 0.047595
v 0.409531 0.035528 0.047602
v 0.416420 0.019028 0.047595
v 0.425980 0.025817 0.027339
v 0.419234 0.025826 0.047602
v 0.416364 0.032714 0.047595
v 0.409574 0.042274 0.027339
v 0.409565 0.035528 0.047602
v 0.425980 0.025869 0.027339
v 0.416420 0.032658 0.047595
v 0.419234 0.025860 0.047602
v 0.409586 0.042315 0.027202
v 0.416395 0.032722 0.047533
v 0.421187 0.037512 0.027197
v 0.421218 0.037481 0.027197
v 0.416428 0.032689 0.047533
v 0.426021 0.025881 0.027202
v 0.425877 0.042208 -0.018408
v 0.409682 0.058537 -0.018408
v 0.432676 0.049014 -0.018408
v 0.409580 0.058550 -0.018408
v 0.425769 0.042244 -0.018408
v 0.409571 0.048950 -0.018408
v 0.432700 0.048950 -0.018408
v 0.432614 0.025980 -0.018408
v 0.425907 0.042166 -0.018408
v 0.393327 0.042244 -0.018408
v 0.409516 0.058550 -0.018408
v 0.409525 0.048950 -0.018408
v 0.432762 0.048870 -0.018408
v 0.442288 0.025873 -0.018408
v 0.432669 0.025870 -0.018408
v 0.409414 0.058537 -0.018408
v 0.393219 0.042208 -0.018408
v 0.386421 0.049014 -0.018408
v 0.432762 0.002816 -0.018408
v 0.432669 0.025816 -0.018408
v 0.442288 0.025813 -0.018408
v 0.386482 0.025980 -0.018408
v 0.386397 0.048950 -0.018408
v 0.393189 0.042166 -0.018408
v 0.432614 0.025706 -0.018408
v 0.432700 0.002736 -0.018408
v 0.425907 0.009520 -0.018408
v 0.386335 0.048870 -0.018408
v 0.386427 0.025870 -0.018408
v 0.376808 0.025873 -0.018408
v 0.409682 -0.006852 -0.018408
v 0.425877 0.009478 -0.018408
v 0.432676 0.002672 -0.018408
v 0.386427 0.025816 -0.018408
v 0.386335 0.002816 -0.018408
v 0.376808 0.025813 -0.018408
v 0.425769 0.009442 -0.018408
v 0.409580 -0.006865 -0.018408
v 0.409571 0.002736 -0.018408
v 0.386397 0.002736 -0.018408
v 0.386482 0.025706 -0.018408
v 0.393189 0.009520 -0.018408
v 0.393327 0.009442 -0.018408
v 0.409525 0.002736 -0.018408
v 0.409516 -0.006865 -0.018408
v 0.409414 -0.006852 -0.018408
v 0.386421 0.002672 -0.018408
v 0.393219 0.009478 -0.018408
v 0.432434 0.025940 0.027175
v 0.425769 0.042034 0.027175
v 0.421241 0.037508 0.027175
v 0.409645 0.048728 0.027175
v 0.421214 0.037535 0.027175
v 0.425739 0.042064 0.027175
v 0.432447 0.025865 0.027175
v 0.421271 0.037422 0.027175
v 0.426058 0.025861 0.027175
v 0.421128 0.037565 0.027175
v 0.409570 0.048741 0.027175
v 0.409566 0.042352 0.027175
v 0.425800 0.009729 0.027175
v 0.432466 0.025821 0.027175
v 0.426064 0.025825 0.027175
v 0.393435 0.042095 0.027175
v 0.409530 0.042358 0.027175
v 0.409526 0.048760 0.027175
v 0.425755 0.009666 0.027175
v 0.426026 0.025749 0.027175
v 0.421235 0.014181 0.027175
v 0.409454 0.042320 0.027175
v 0.393372 0.042050 0.027175
v 0.397887 0.037529 0.027175
v 0.421214 0.014152 0.027175
v 0.409647 0.002959 0.027175
v 0.425738 0.009623 0.027175
v 0.386663 0.025940 0.027175
v 0.397858 0.037508 0.027175
v 0.393329 0.042033 0.027175
v 0.409570 0.002946 0.027175
v 0.421134 0.014124 0.027175
v 0.409564 0.009335 0.027175
v 0.397830 0.037428 0.027175
v 0.386650 0.025865 0.027175
v 0.393039 0.025861 0.027175
v 0.397963 0.014124 0.027175
v 0.409526 0.002946 0.027175
v 0.409532 0.009335 0.027175
v 0.393297 0.009729 0.027175
v 0.393033 0.025825 0.027175
v 0.386631 0.025821 0.027175
v 0.409449 0.002959 0.027175
v 0.397883 0.014152 0.027175
v 0.393359 0.009623 0.027175
v 0.393071 0.025749 0.027175
v 0.393342 0.009666 0.027175
v 0.397862 0.014181 0.027175
v 0.425684 0.042132 0.027155
v 0.409581 0.058556 0.018772
v 0.409571 0.048801 0.027159
v 0.393407 0.042128 0.027156
v 0.409525 0.048801 0.027159
v 0.409515 0.058556 0.018772
v 0.409654 0.058556 0.018746
v 0.425772 0.042107 0.027145
v 0.432683 0.049020 0.018745
v 0.409442 0.058556 0.018746
v 0.386416 0.049020 0.018745
v 0.393324 0.042105 0.027147
v 0.442264 0.025947 0.018745
v 0.432726 0.048977 0.018745
v 0.425812 0.042067 0.027145
v 0.386392 0.048954 0.018771
v 0.386621 0.025951 0.027155
v 0.393295 0.042060 0.027156
v 0.442264 0.025875 0.018771
v 0.425837 0.041979 0.027155
v 0.432509 0.025869 0.027156
v 0.386576 0.025871 0.027145
v 0.386342 0.048903 0.018745
v 0.376801 0.025873 0.018745
v 0.432756 0.002786 0.018746
v 0.442294 0.025811 0.018745
v 0.432520 0.025817 0.027147
v 0.386342 0.002783 0.018745
v 0.386576 0.025815 0.027145
v 0.376801 0.025813 0.018745
v 0.432704 0.002734 0.018772
v 0.432478 0.025742 0.027156
v 0.425799 0.009625 0.027159
v 0.386621 0.025735 0.027155
v 0.386392 0.002732 0.018771
v 0.393295 0.009626 0.027156
v 0.409649 0.002914 0.027156
v 0.432658 0.002688 0.018772
v 0.425766 0.009592 0.027159
v 0.409444 -0.006873 0.018745
v 0.393324 0.009581 0.027147
v 0.386416 0.002666 0.018745
v 0.432606 0.002636 0.018746
v 0.409574 0.002872 0.027147
v 0.409580 -0.006903 0.018745
v 0.393407 0.009558 0.027156
v 0.409516 -0.006873 0.018771
v 0.409522 0.002883 0.027156
v 0.386412 0.002642 -0.018358
v 0.409462 -0.006906 -0.018358
v 0.386412 0.002642 0.018561
v 0.409502 -0.006923 -0.018246
v 0.409502 -0.006923 0.018673
v 0.386452 0.002625 0.018673
v 0.386347 0.002707 -0.018246
v 0.386347 0.002707 0.018673
v 0.376799 0.025757 0.018673
v 0.409594 -0.006923 -0.018358
v 0.432645 0.002625 -0.018358
v 0.409594 -0.006923 0.018561
v 0.376782 0.025797 -0.018358
v 0.386330 0.002747 -0.018358
v 0.376782 0.025797 0.018561
v 0.432685 0.002642 -0.018246
v 0.432685 0.002642 0.018673
v 0.409634 -0.006906 0.018673
v 0.376782 0.025889 -0.018246
v 0.376782 0.025889 0.018673
v 0.386330 0.048939 0.018673
v 0.432750 0.002707 -0.018358
v 0.442297 0.025757 -0.018358
v 0.432750 0.002707 0.018561
v 0.386347 0.048979 -0.018358
v 0.376799 0.025929 -0.018358
v 0.386347 0.048979 0.018561
v 0.442314 0.025797 -0.018246
v 0.442314 0.025797 0.018673
v 0.432767 0.002747 0.018673
v 0.386412 0.049044 -0.018246
v 0.386412 0.049044 0.018673
v 0.409462 0.058591 0.018673
v 0.442314 0.025889 -0.018358
v 0.432767 0.048939 -0.018358
v 0.442314 0.025889 0.018561
v 0.409502 0.058608 -0.018358
v 0.386452 0.049061 -0.018358
v 0.409502 0.058608 0.018561
v 0.432750 0.048979 -0.018246
v 0.432750 0.048979 0.018673
v 0.442297 0.025929 0.018673
v 0.409594 0.058608 -0.018246
v 0.409594 0.058608 0.018673
v 0.432645 0.049061 0.018673
v 0.432685 0.049044 -0.018358
v 0.409634 0.058591 -0.018358
v 0.432685 0.049044 0.018561
v 0.409514 0.002765 -0.047582
v 0.409514 0.002765 -0.018541
v 0.393280 0.009489 -0.047582
v 0.393253 0.009500 -0.047486
v 0.409487 0.002776 -0.018445
v 0.393253 0.009500 -0.018445
v 0.409582 0.002765 -0.047486
v 0.425816 0.009489 -0.018445
v 0.409582 0.002765 -0.018445
v 0.393205 0.009548 -0.047582
v 0.393205 0.009548 -0.018541
v 0.386480 0.025782 -0.047582
v 0.425843 0.009500 -0.047582
v 0.425843 0.009500 -0.018541
v 0.409609 0.002776 -0.047582
v 0.386469 0.025809 -0.047486
v 0.393194 0.009575 -0.018445
v 0.386469 0.025809 -0.018445
v 0.425891 0.009548 -0.047486
v 0.432616 0.025782 -0.018445
v 0.425891 0.009548 -0.018445
v 0.386469 0.025877 -0.047582
v 0.386469 0.025877 -0.018541
v 0.393194 0.042111 -0.047582
v 0.432627 0.025809 -0.047582
v 0.432627 0.025809 -0.018541
v 0.425902 0.009575 -0.047582
v 0.393205 0.042138 -0.047486
v 0.386480 0.025904 -0.018445
v 0.393205 0.042138 -0.018445
v 0.432627 0.025877 -0.047486
v 0.425902 0.042111 -0.018445
v 0.432627 0.025877 -0.018445
v 0.393253 0.042186 -0.047582
v 0.393253 0.042186 -0.018541
v 0.409487 0.048910 -0.047582
v 0.425891 0.042138 -0.047582
v 0.425891 0.042138 -0.018541
v 0.432616 0.025904 -0.047582
v 0.409514 0.048921 -0.047486
v 0.393280 0.042197 -0.018445
v 0.409514 0.048921 -0.018445
v 0.425843 0.042186 -0.047486
v 0.409609 0.048910 -0.018445
v 0.425843 0.042186 -0.018445
v 0.409582 0.048921 -0.047582
v 0.409582 0.048921 -0.018541
v 0.425816 0.042197 -0.047582
vn -0.5510 -0.8345 0.0003
vn 0.8336 0.5524 -0.0004
vn -0.0005 0.4389 -0.8985
vn -0.2598 -0.0005 -0.9657
vn -0.2597 0.0004 0.9657
vn 0.0005 0.4391 0.8984
vn -0.7071 0.7071 -0.0010
vn -0.4794 0.4784 -0.7358
vn -0.4788 0.4793 0.7356
vn -0.9240 -0.3824 0.0001
vn 0.9235 -0.3837 -0.0003
vn 0.2606 -0.0005 -0.9654
vn 0.2606 0.0004 0.9654
vn -0.0005 1.0000 -0.0007
vn -0.8330 0.5533 -0.0006
vn 0.5510 -0.8345 0.0001
vn 0.7071 0.7071 0.0006
vn 0.4794 0.4792 -0.7352
vn 0.4797 0.4793 0.7350
vn 0.9239 0.3827 0.0005
vn -0.9238 0.3829 -0.0007
vn -0.0000 -1.0000 -0.0004
vn -0.0004 -0.4384 -0.8988
vn 0.0004 -0.4382 0.8989
vn 0.8333 -0.5528 -0.0000
vn -0.5503 0.8349 -0.0008
vn -0.7070 -0.7072 -0.0006
vn -0.4788 -0.4786 -0.7359
vn -0.4787 -0.4785 0.7361
vn 0.5518 0.8340 0.0005
vn -0.8333 -0.5529 -0.0006
vn 0.7071 -0.7071 -0.0005
vn 0.4789 -0.4794 -0.7354
vn 0.4795 -0.4784 0.7357
vn -0.2505 0.7105 0.6576
vn -0.6394 -0.0630 -0.7663
vn 0.5797 0.5795 -0.5728
vn 0.6984 0.6983 0.1569
vn -0.5088 -0.5088 0.6945
vn -0.7015 -0.7011 0.1283
vn 0.4444 -0.7315 0.5171
vn 1.0000 -0.0003 -0.0018
vn -0.8318 0.0005 0.5550
vn -0.7311 0.4444 0.5178
vn -0.0624 -0.6401 -0.7658
vn -0.0002 1.0000 -0.0019
vn 0.0006 -0.8318 0.5551
vn 0.7104 -0.2508 0.6576
vn -0.0840 -0.3552 0.9310
vn -0.5011 0.7083 -0.4972
vn -0.0932 -0.7601 -0.6431
vn 0.6939 -0.0003 -0.7201
vn -0.9925 0.0004 -0.1225
vn 0.7074 -0.5026 -0.4970
vn -0.3563 -0.0890 0.9301
vn -0.7599 -0.0937 -0.6432
vn 0.0002 0.6939 -0.7200
vn 0.0002 -0.9925 -0.1221
vn -0.5013 -0.7082 -0.4971
vn -0.0843 0.3553 0.9310
vn 0.5796 -0.5796 -0.5728
vn -0.7015 0.7010 0.1282
vn -0.0930 0.7596 -0.6437
vn 0.3575 -0.0870 0.9298
vn -0.7078 -0.5023 -0.4968
vn -0.5796 0.5795 -0.5729
vn 0.7014 -0.7011 0.1284
vn 0.7601 -0.0936 -0.6431
vn 0.4443 0.7312 0.5176
vn -0.6391 0.0630 -0.7665
vn -0.2504 -0.7105 0.6576
vn 0.6984 -0.6983 0.1569
vn -0.5088 0.5088 0.6945
vn 0.0634 -0.6395 -0.7662
vn 0.7315 0.4448 0.5167
vn -0.7104 -0.2508 0.6576
vn -0.6984 0.6983 0.1569
vn 0.5087 -0.5088 0.6945
vn -0.0631 0.6394 -0.7663
vn -0.7313 -0.4447 0.5171
vn -0.0000 -1.0000 -0.0016
vn -0.0002 0.8318 0.5551
vn 0.7105 0.2508 0.6575
vn -0.4446 -0.7312 0.5173
vn 0.6389 -0.0618 -0.7668
vn -1.0000 -0.0000 -0.0017
vn 0.8317 0.0001 0.5552
vn 0.2505 0.7106 0.6576
vn -0.3584 0.0881 0.9294
vn 0.7075 0.5022 -0.4973
vn -0.7599 0.0939 -0.6432
vn -0.0001 -0.6939 -0.7200
vn -0.0001 0.9925 -0.1221
vn 0.5016 0.7079 -0.4972
vn 0.0847 -0.3567 0.9304
vn 0.0932 -0.7599 -0.6434
vn -0.6940 -0.0000 -0.7200
vn 0.9925 -0.0000 -0.1224
vn -0.7078 0.5021 -0.4970
vn 0.3561 0.0861 0.9305
vn -0.5795 -0.5797 -0.5728
vn 0.7014 0.7011 0.1284
vn 0.7599 0.0937 -0.6432
vn 0.0848 0.3566 0.9304
vn 0.5016 -0.7079 -0.4972
vn 0.0932 0.7599 -0.6434
vn 0.7313 -0.4445 0.5173
vn 0.0624 0.6400 -0.7659
vn -0.7105 0.2507 0.6575
vn -0.6984 -0.6983 0.1569
vn 0.5088 0.5085 0.6947
vn 0.2502 -0.7108 0.6573
vn 0.6385 0.0609 -0.7672
vn -0.4448 0.7312 0.5172
vn 0.0026 1.0000 0.0004
vn 0.8300 -0.5577 0.0008
vn -0.0003 -0.2597 0.9657
vn 0.3412 0.2025 0.9179
vn 0.3412 0.2026 -0.9179
vn 0.0003 -0.2596 -0.9657
vn -0.9807 -0.1956 0.0006
vn -0.2877 -0.1927 0.9381
vn -0.2877 -0.1926 -0.9382
vn 0.3805 -0.9248 -0.0001
vn -0.8309 0.5564 -0.0010
vn 0.8312 0.5559 0.0001
vn -0.0006 0.4191 0.9079
vn 0.0006 0.4192 -0.9079
vn -0.3849 -0.9230 -0.0003
vn -0.1941 0.9810 -0.0000
vn 0.3546 -0.0006 0.9350
vn 0.3546 0.0006 -0.9350
vn 0.9807 -0.1954 -0.0008
vn 0.8306 0.5569 0.0003
vn -0.3799 -0.9250 0.0003
vn -0.3414 0.2015 0.9181
vn -0.3403 0.2027 -0.9182
vn -0.8320 0.5548 -0.0002
vn 0.1929 -0.9812 -0.0003
vn -0.8317 0.5553 0.0008
vn -0.4191 -0.0004 0.9079
vn -0.4191 0.0004 -0.9079
vn 0.7088 0.7054 -0.0000
vn -0.8298 -0.5580 -0.0005
vn -0.0023 1.0000 0.0007
vn 0.9807 -0.1956 0.0007
vn 0.2877 -0.1935 0.9380
vn 0.2885 -0.1926 -0.9379
vn 0.1916 0.9815 0.0002
vn 0.7078 -0.7064 -0.0004
vn -0.2886 0.1926 0.9379
vn -0.2877 0.1935 -0.9380
vn -0.8317 -0.5553 0.0005
vn 0.1928 0.9812 0.0002
vn 0.3851 -0.9229 0.0004
vn -0.3536 -0.0006 0.9354
vn -0.3536 0.0006 -0.9354
vn -0.9807 -0.1957 0.0005
vn -0.1949 -0.9808 0.0003
vn -0.3855 0.9227 0.0009
vn 0.9808 0.1950 0.0006
vn 0.3402 -0.2027 0.9183
vn 0.3413 -0.2015 -0.9181
vn -0.1918 -0.9814 -0.0003
vn -0.7083 0.7059 0.0009
vn 0.8320 0.5548 0.0005
vn 0.4199 -0.0005 0.9076
vn 0.4198 0.0005 -0.9076
vn 0.8299 0.5579 -0.0002
vn 0.0015 -1.0000 0.0004
vn -0.0003 0.2605 0.9655
vn 0.0003 0.2606 -0.9654
vn -0.9807 0.1955 0.0007
vn -0.7078 -0.7064 -0.0002
vn -0.1925 0.9813 -0.0004
vn 0.2885 0.1935 0.9377
vn 0.2886 0.1935 -0.9377
vn 0.8313 -0.5558 0.0002
vn -0.8310 -0.5563 -0.0002
vn 0.3793 0.9253 0.0007
vn 0.8317 -0.5553 0.0007
vn -0.0007 -0.4183 0.9083
vn 0.0007 -0.4182 -0.9084
vn 0.3857 0.9226 0.0003
vn 0.1935 -0.9811 0.0004
vn -0.9807 0.1953 0.0008
vn -0.3403 -0.2017 0.9184
vn -0.3403 -0.2015 -0.9185
vn 0.8316 -0.5553 0.0003
vn -0.8317 -0.5553 0.0004
vn -0.3803 0.9248 0.0004
vn -0.8299 0.5579 -0.0007
vn 0.9807 0.1956 -0.0006
vn -0.0018 -1.0000 0.0003
vn -0.5484 0.8362 -0.0001
vn -0.1952 -0.9808 -0.0003
vn -0.2963 -0.2962 -0.9080
vn -0.3428 -0.0667 -0.9371
vn -0.3427 -0.0658 0.9371
vn -0.2962 -0.2961 0.9080
vn 1.0000 -0.0083 0.0007
vn 0.2541 0.2541 -0.9332
vn 0.2541 0.2542 0.9332
vn 0.8356 -0.5494 0.0002
vn -0.0084 1.0000 0.0004
vn -0.0668 -0.3429 -0.9370
vn -0.0658 -0.3428 0.9371
vn -0.9807 -0.1953 -0.0006
vn -0.9207 0.3903 -0.0001
vn 0.5478 -0.8366 0.0008
vn 0.5559 0.8312 -0.0000
vn 0.3869 0.0940 -0.9173
vn 0.3869 0.0952 0.9172
vn -0.8365 0.5480 -0.0001
vn 0.3902 -0.9207 -0.0005
vn 0.8313 0.5559 0.0001
vn 0.0941 0.3869 -0.9173
vn 0.0952 0.3870 0.9171
vn 0.2032 0.9791 -0.0002
vn -0.8317 -0.5553 -0.0005
vn -0.2900 0.1954 -0.9369
vn -0.2891 0.1963 0.9370
vn 0.7006 -0.7136 0.0004
vn 0.9795 0.2014 -0.0000
vn -0.7138 0.7004 -0.0000
vn 0.1953 -0.2900 -0.9369
vn 0.1962 -0.2891 0.9370
vn -0.5554 -0.8316 -0.0004
vn -0.3746 0.9272 -0.0003
vn -0.2033 -0.9791 0.0005
vn 0.9808 0.1949 -0.0006
vn 0.3397 -0.2068 -0.9175
vn 0.3408 -0.2057 0.9174
vn -0.9790 -0.2038 -0.0006
vn 0.9268 -0.3757 -0.0006
vn 0.1949 0.9808 -0.0009
vn -0.2068 0.3396 -0.9176
vn -0.2057 0.3408 0.9174
vn -0.0094 -1.0000 0.0007
vn 0.8349 0.5504 -0.0005
vn -0.0004 0.2664 -0.9639
vn 0.0005 0.2665 0.9638
vn -0.9807 0.1956 -0.0007
vn 0.5500 0.8352 0.0003
vn -1.0000 -0.0089 -0.0006
vn 0.3436 -0.0667 -0.9367
vn 0.3436 -0.0658 0.9368
vn 0.1958 -0.9806 -0.0004
vn 0.3898 0.9209 -0.0009
vn -0.8367 -0.5477 -0.0005
vn 0.8317 -0.5553 -0.0006
vn -0.0005 -0.4183 -0.9083
vn 0.0005 -0.4182 0.9083
vn -0.5492 -0.8357 -0.0002
vn 0.9211 0.3892 -0.0004
vn -0.5554 0.8316 -0.0010
vn -0.3860 0.0940 -0.9177
vn -0.3860 0.0953 0.9176
vn 0.8367 -0.5477 0.0001
vn -0.3899 0.9209 -0.0005
vn -0.3398 -0.2058 -0.9177
vn -0.3398 -0.2057 0.9177
vn -0.8317 -0.5552 -0.0005
vn -0.2032 0.9791 -0.0003
vn -0.7010 -0.7131 -0.0005
vn 0.2899 0.1962 -0.9367
vn 0.2900 0.1962 0.9367
vn 0.8314 -0.5557 -0.0002
vn -0.8355 0.5495 -0.0008
vn 0.0087 -1.0000 -0.0004
vn 0.9807 0.1955 0.0006
vn 0.2020 -0.9794 0.0004
vn 0.3753 0.9269 0.0005
vn -0.9807 0.1953 -0.0008
vn -0.8153 0.5553 -0.1639
vn 0.3974 -0.6731 0.6236
vn -0.0008 -0.8322 -0.5544
vn -0.2347 -0.2347 -0.9433
vn 0.5929 0.5928 0.5451
vn 0.0011 0.4617 0.8870
vn 0.8071 0.3867 -0.4461
vn -0.0002 -0.2462 -0.9692
vn 0.0002 0.9100 0.4146
vn 0.8164 0.5527 -0.1673
vn -0.8070 0.3872 -0.4459
vn 0.1058 -0.2985 -0.9485
vn -0.6782 0.5541 0.4827
vn -0.3971 -0.6745 0.6224
vn 0.8217 -0.5387 0.1859
vn -0.0475 0.8582 -0.5112
vn -0.8822 -0.0271 0.4701
vn -0.6502 -0.6502 -0.3929
vn 0.1901 0.1901 0.9632
vn -0.8235 -0.5351 0.1886
vn 0.8823 -0.0274 0.4698
vn 0.6862 -0.5538 -0.4716
vn -0.2212 0.3005 0.9278
vn 0.0471 0.8591 -0.5096
vn -0.5390 0.8217 0.1851
vn -0.0271 -0.8822 0.4701
vn -0.8767 -0.0937 -0.4718
vn 0.3688 -0.0561 0.9278
vn 0.8580 -0.0475 -0.5114
vn 0.1933 -0.7561 0.6253
vn 0.1826 0.9695 -0.1637
vn 0.3321 -0.0000 -0.9433
vn -0.8385 -0.0000 0.5449
vn -0.8444 -0.2968 -0.4460
vn -0.6714 0.3984 0.6249
vn 0.5564 -0.8146 -0.1639
vn 0.3870 0.8070 -0.4460
vn -0.2858 0.1363 -0.9486
vn 0.8714 0.0878 0.4826
vn -0.5732 0.6403 -0.5114
vn -0.1997 -0.9622 0.1852
vn 0.6431 0.6048 0.4698
vn 0.9194 -0.0002 -0.3933
vn -0.2694 0.0003 0.9630
vn 0.2032 0.9609 0.1884
vn -0.6430 -0.6048 0.4698
vn -0.5884 0.5884 -0.5546
vn 0.3263 -0.3263 0.8872
vn 0.5743 -0.6408 -0.5095
vn -0.1998 0.9622 0.1851
vn -0.5733 -0.6403 -0.5112
vn 0.6862 0.5538 -0.4717
vn -0.2211 -0.3005 0.9278
vn 0.6430 -0.6048 0.4698
vn -0.1966 0.7570 0.6231
vn -0.1864 -0.9680 -0.1678
vn 0.8443 0.2970 -0.4460
vn -0.1741 0.1740 -0.9692
vn 0.6435 -0.6436 0.4144
vn 0.1825 -0.9695 -0.1637
vn 0.1933 0.7560 0.6253
vn -0.8444 0.2968 -0.4460
vn 0.1059 0.2986 -0.9485
vn -0.6783 -0.5542 0.4824
vn 0.9681 0.1866 -0.1673
vn -0.7574 0.1964 0.6228
vn -0.1365 0.2855 -0.9486
vn -0.0876 -0.8714 0.4827
vn -0.2969 -0.8443 -0.4460
vn -0.8228 0.5364 0.1878
vn 0.0473 -0.8588 -0.5101
vn 0.0934 0.8766 -0.4722
vn 0.0566 -0.3683 0.9280
vn 0.8823 0.0274 0.4698
vn -0.9607 -0.2035 0.1889
vn 0.6406 -0.5743 -0.5097
vn 0.6047 0.6431 0.4699
vn 0.8159 -0.5538 -0.1664
vn -0.3975 0.6735 0.6232
vn -0.8072 -0.3868 -0.4459
vn 0.5915 -0.4308 0.6816
vn -0.8302 0.3077 0.4648
vn 0.1255 0.9181 0.3760
vn 0.7381 0.5604 0.3757
vn -0.6467 -0.6950 0.3144
vn 0.0347 -0.9485 0.3148
vn 0.1651 -0.4283 -0.8884
vn 0.5601 0.7383 -0.3758
vn -0.6950 -0.6466 -0.3144
vn -0.4209 -0.1858 0.8879
vn -0.7232 0.1137 -0.6813
vn -0.1262 0.9182 -0.3754
vn -0.0336 -0.9488 -0.3140
vn 0.8043 -0.3691 -0.4657
vn -0.4285 0.1657 0.8882
vn -0.4309 0.5915 -0.6815
vn 0.3081 -0.8298 -0.4653
vn 0.9183 0.1256 -0.3755
vn -0.9488 0.0348 -0.3141
vn 0.7227 0.1144 0.6817
vn -0.8043 -0.3694 0.4655
vn -0.5602 0.7383 0.3757
vn 0.6949 -0.6467 0.3145
vn 0.4207 -0.1860 -0.8879
vn 0.1126 -0.7233 0.6812
vn -0.3693 0.8044 0.4654
vn 0.9179 -0.1263 0.3761
vn -0.9485 -0.0337 0.3149
vn -0.1869 -0.4209 -0.8876
vn -0.1653 -0.4279 0.8886
vn -0.5914 -0.4309 -0.6816
vn -0.7381 0.5603 -0.3759
vn 0.6467 -0.6950 -0.3143
vn 0.8296 0.3084 -0.4654
vn -0.1864 0.4189 0.8887
vn 0.1141 0.7230 -0.6814
vn -0.3692 -0.8045 -0.4653
vn 0.7381 -0.5603 -0.3758
vn -0.6467 0.6949 -0.3144
vn 0.4310 0.5914 0.6815
vn -0.3077 -0.8302 0.4649
vn -0.9180 0.1257 0.3762
vn 0.9485 0.0347 0.3149
vn 0.4290 0.1650 -0.8881
vn -0.4308 -0.5916 0.6815
vn 0.3079 0.8295 0.4659
vn 0.5601 -0.7383 0.3757
vn -0.6950 0.6466 0.3145
vn -0.4283 -0.1651 -0.8884
vn 0.1867 -0.4210 0.8876
vn -0.1133 -0.7232 -0.6812
vn -0.9182 -0.1263 -0.3755
vn 0.9488 -0.0335 -0.3140
vn 0.3695 0.8042 -0.4655
vn 0.1651 0.4283 0.8884
vn 0.5914 0.4309 -0.6815
vn -0.8299 -0.3081 -0.4652
vn 0.1257 -0.9183 -0.3754
vn 0.0347 0.9488 -0.3141
vn -0.1140 0.7228 0.6816
vn 0.3694 -0.8043 0.4654
vn -0.7381 -0.5604 0.3758
vn 0.6466 0.6950 0.3145
vn 0.1870 0.4206 -0.8878
vn -0.7233 -0.1129 0.6813
vn 0.8044 0.3690 0.4656
vn -0.1262 -0.9179 0.3761
vn -0.0337 0.9486 0.3148
vn -0.4210 0.1862 -0.8877
vn 0.4286 -0.1642 0.8885
vn 0.4311 -0.5913 -0.6816
vn -0.5601 -0.7382 -0.3758
vn 0.6949 0.6467 -0.3144
vn -0.3082 0.8298 -0.4652
vn 0.4199 0.1868 0.8882
vn 0.7230 -0.1141 -0.6814
vn -0.8042 0.3695 -0.4655
vn -0.5915 0.4308 0.6816
vn 0.8294 -0.3081 0.4660
vn -0.1652 0.4279 -0.8886
vn -0.7231 0.1138 0.6813
vn -0.4107 -0.2173 -0.8855
vn 0.1208 0.9185 -0.3765
vn -0.1214 0.9181 0.3772
vn -0.0279 -0.9476 0.3184
vn 0.0291 -0.9478 -0.3176
vn 0.7932 -0.3648 0.4876
vn 0.5636 0.7351 0.3768
vn -0.6902 -0.6499 0.3180
vn 0.1355 -0.4431 0.8862
vn -0.8193 0.3027 -0.4869
vn 0.5915 -0.4311 -0.6814
vn 0.7349 0.5637 -0.3769
vn -0.6500 -0.6903 -0.3178
vn 0.4085 -0.2163 0.8867
vn -0.7932 -0.3654 -0.4872
vn -0.5637 0.7349 -0.3769
vn 0.6903 -0.6499 -0.3180
vn 0.7230 0.1143 -0.6813
vn -0.4310 0.5916 0.6813
vn -0.4431 0.1356 -0.8862
vn 0.3025 -0.8196 0.4865
vn 0.9182 0.1207 0.3772
vn -0.9476 0.0289 0.3183
vn -0.5915 -0.4309 0.6815
vn -0.1350 -0.4421 -0.8867
vn -0.7350 0.5638 0.3768
vn 0.6501 -0.6901 0.3180
vn 0.8189 0.3031 0.4874
vn -0.2182 -0.4100 0.8856
vn -0.3656 0.7931 -0.4873
vn 0.1136 -0.7232 -0.6813
vn 0.9184 -0.1215 -0.3765
vn -0.9479 -0.0278 -0.3175
vn 0.4426 0.1361 0.8863
vn -0.3031 -0.8191 -0.4871
vn -0.9185 0.1207 -0.3765
vn 0.9478 0.0290 -0.3176
vn 0.4310 0.5916 -0.6814
vn 0.1129 0.7231 0.6815
vn -0.2176 0.4100 -0.8857
vn -0.3655 -0.7931 0.4872
vn 0.7350 -0.5637 0.3768
vn -0.6500 0.6903 0.3180
vn -0.1137 -0.7230 0.6814
vn 0.2180 -0.4097 -0.8858
vn -0.9181 -0.1215 0.3772
vn 0.9476 -0.0279 0.3183
vn 0.3652 0.7933 0.4871
vn -0.4422 -0.1367 0.8865
vn 0.3035 0.8188 -0.4872
vn -0.4310 -0.5915 -0.6814
vn 0.5637 -0.7349 -0.3770
vn -0.6902 0.6500 -0.3179
vn 0.2164 0.4076 0.8872
vn 0.3653 -0.7933 -0.4870
vn -0.7349 -0.5637 -0.3769
vn 0.6501 0.6902 -0.3180
vn -0.1142 0.7229 -0.6814
vn 0.5915 0.4313 0.6812
vn 0.1355 0.4439 -0.8858
vn -0.8197 -0.3024 0.4864
vn 0.1207 -0.9182 0.3772
vn 0.0290 0.9475 0.3185
vn 0.4309 -0.5916 0.6814
vn 0.4424 -0.1360 -0.8865
vn -0.5638 -0.7349 0.3768
vn 0.6903 0.6498 0.3181
vn -0.3030 0.8187 0.4877
vn -0.4095 0.2171 0.8861
vn 0.7933 0.3652 -0.4872
vn -0.7232 -0.1137 -0.6813
vn -0.1213 -0.9184 -0.3766
vn -0.0278 0.9478 -0.3175
vn -0.1353 0.4421 0.8867
vn 0.8190 -0.3035 -0.4869
vn -0.5914 0.4311 -0.6815
vn 0.7230 -0.1133 0.6814
vn 0.4097 0.2174 -0.8859
vn -0.7931 0.3656 0.4872
vt 0.000000 0.000000
s 1
f 249/15/41 250/15/42 43/15/43 41/15/44
f 250/15/42 249/15/41 42/15/45 44/15/46
f 250/15/42 251/15/47 45/15/48 43/15/43
f 251/15/47 250/15/42 44/15/46 46/15/49
f 251/15/47 249/15/41 41/15/44 45/15/48
f 249/15/41 251/15/47 46/15/49 42/15/45
f 252/15/50 253/15/51 47/15/52 41/15/44
f 253/15/51 252/15/50 42/15/45 48/15/53
f 253/15/51 254/15/54 43/15/43 47/15/52
f 254/15/54 253/15/51 48/15/53 44/15/46
f 254/15/54 252/15/50 41/15/44 43/15/43
f 252/15/50 254/15/54 44/15/46 42/15/45
f 255/15/55 256/15/56 47/15/52 43/15/43
f 256/15/56 255/15/55 44/15/46 48/15/53
f 256/15/56 257/15/57 49/15/58 47/15/52
f 257/15/57 256/15/56 48/15/53 50/15/59
f 257/15/57 255/15/55 43/15/43 49/15/58
f 255/15/55 257/15/57 50/15/59 44/15/46
f 258/15/60 259/15/61 41/15/44 47/15/52
f 259/15/61 258/15/60 48/15/53 42/15/45
f 259/15/61 260/15/62 51/15/63 41/15/44
f 260/15/62 259/15/61 42/15/45 52/15/64
f 260/15/62 258/15/60 47/15/52 51/15/63
f 258/15/60 260/15/62 52/15/64 48/15/53
f 261/15/65 262/15/66 41/15/44 51/15/63
f 262/15/66 261/15/65 52/15/64 42/15/45
f 262/15/66 263/15/67 53/15/68 41/15/44
f 263/15/67 262/15/66 42/15/45 54/15/69
f 263/15/67 261/15/65 51/15/63 53/15/68
f 261/15/65 263/15/67 54/15/69 52/15/64
f 264/15/70 265/15/71 51/15/63 47/15/52
f 265/15/71 264/15/70 48/15/53 52/15/64
f 265/15/71 266/15/72 55/15/73 51/15/63
f 266/15/72 265/15/71 52/15/64 56/15/74
f 266/15/72 264/15/70 47/15/52 55/15/73
f 264/15/70 266/15/72 56/15/74 48/15/53
f 267/15/75 268/15/76 59/15/77 57/15/78
f 268/15/76 267/15/75 58/15/79 60/15/80
f 268/15/76 269/15/81 61/15/82 59/15/77
f 269/15/81 268/15/76 60/15/80 62/15/83
f 269/15/81 267/15/75 57/15/78 61/15/82
f 267/15/75 269/15/81 62/15/83 58/15/79
f 270/15/84 271/15/85 59/15/77 63/15/86
f 271/15/85 270/15/84 64/15/87 60/15/80
f 271/15/85 272/15/88 57/15/78 59/15/77
f 272/15/88 271/15/85 60/15/80 58/15/79
f 272/15/88 270/15/84 63/15/86 57/15/78
f 270/15/84 272/15/88 58/15/79 64/15/87
f 273/15/89 274/15/90 59/15/77 61/15/82
f 274/15/90 273/15/89 62/15/83 60/15/80
f 274/15/90 275/15/91 65/15/92 59/15/77
f 275/15/91 274/15/90 60/15/80 66/15/93
f 275/15/91 273/15/89 61/15/82 65/15/92
f 273/15/89 275/15/91 66/15/93 62/15/83
f 276/15/94 277/15/95 63/15/86 59/15/77
f 277/15/95 276/15/94 60/15/80 64/15/87
f 277/15/95 278/15/96 67/15/97 63/15/86
f 278/15/96 277/15/95 64/15/87 68/15/98
f 278/15/96 276/15/94 59/15/77 67/15/97
f 276/15/94 278/15/96 68/15/98 60/15/80
f 279/15/99 280/15/100 61/15/82 69/15/101
f 280/15/100 279/15/99 70/15/102 62/15/83
f 280/15/100 281/15/103 65/15/92 61/15/82
f 281/15/103 280/15/100 62/15/83 66/15/93
f 281/15/103 279/15/99 69/15/101 65/15/92
f 279/15/99 281/15/103 66/15/93 70/15/102
f 282/15/104 283/15/105 71/15/106 63/15/86
f 283/15/105 282/15/104 64/15/87 72/15/107
f 283/15/105 284/15/108 67/15/97 71/15/106
f 284/15/108 283/15/105 72/15/107 68/15/98
f 284/15/108 282/15/104 63/15/86 67/15/97
f 282/15/104 284/15/108 68/15/98 64/15/87
f 285/15/109 286/15/110 69/15/101 61/15/82
f 286/15/110 285/15/109 62/15/83 70/15/102
f 286/15/110 287/15/111 73/15/112 69/15/101
f 287/15/111 286/15/110 70/15/102 74/15/113
f 287/15/111 285/15/109 61/15/82 73/15/112
f 285/15/109 287/15/111 74/15/113 62/15/83
f 288/15/114 289/15/115 63/15/86 71/15/106
f 289/15/115 288/15/114 72/15/107 64/15/87
f 289/15/115 290/15/116 75/15/117 63/15/86
f 290/15/116 289/15/115 64/15/87 76/15/118
f 290/15/116 288/15/114 71/15/106 75/15/117
f 288/15/114 290/15/116 76/15/118 72/15/107
f 291/15/119 292/15/120 77/15/121 69/15/101
f 292/15/120 291/15/119 70/15/102 78/15/122
f 292/15/120 293/15/123 73/15/112 77/15/121
f 293/15/123 292/15/120 78/15/122 74/15/113
f 293/15/123 291/15/119 69/15/101 73/15/112
f 291/15/119 293/15/123 74/15/113 70/15/102
f 294/15/124 295/15/125 71/15/106 79/15/126
f 295/15/125 294/15/124 80/15/127 72/15/107
f 295/15/125 296/15/128 75/15/117 71/15/106
f 296/15/128 295/15/125 72/15/107 76/15/118
f 296/15/128 294/15/124 79/15/126 75/15/117
f 294/15/124 296/15/128 76/15/118 80/15/127
f 297/15/129 298/15/130 69/15/101 77/15/121
f 298/15/130 297/15/129 78/15/122 70/15/102
f 298/15/130 299/15/131 81/15/132 69/15/101
f 299/15/131 298/15/130 70/15/102 82/15/133
f 299/15/131 297/15/129 77/15/121 81/15/132
f 297/15/129 299/15/131 82/15/133 78/15/122
f 300/15/134 301/15/135 79/15/126 71/15/106
f 301/15/135 300/15/134 72/15/107 80/15/127
f 301/15/135 302/15/136 83/15/137 79/15/126
f 302/15/136 301/15/135 80/15/127 84/15/138
f 302/15/136 300/15/134 71/15/106 83/15/137
f 300/15/134 302/15/136 84/15/138 72/15/107
f 303/15/139 304/15/140 77/15/121 85/15/141
f 304/15/140 303/15/139 86/15/142 78/15/122
f 304/15/140 305/15/143 81/15/132 77/15/121
f 305/15/143 304/15/140 78/15/122 82/15/133
f 305/15/143 303/15/139 85/15/141 81/15/132
f 303/15/139 305/15/143 82/15/133 86/15/142
f 306/15/144 307/15/145 85/15/141 79/15/126
f 307/15/145 306/15/144 80/15/127 86/15/142
f 307/15/145 308/15/146 83/15/137 85/15/141
f 308/15/146 307/15/145 86/15/142 84/15/138
f 308/15/146 306/15/144 79/15/126 83/15/137
f 306/15/144 308/15/146 84/15/138 80/15/127
f 309/15/147 310/15/148 85/15/141 77/15/121
f 310/15/148 309/15/147 78/15/122 86/15/142
f 310/15/148 311/15/149 87/15/150 85/15/141
f 311/15/149 310/15/148 86/15/142 88/15/151
f 311/15/149 309/15/147 77/15/121 87/15/150
f 309/15/147 311/15/149 88/15/151 78/15/122
f 312/15/152 313/15/153 85/15/141 87/15/150
f 313/15/153 312/15/152 88/15/151 86/15/142
f 313/15/153 314/15/154 79/15/126 85/15/141
f 314/15/154 313/15/153 86/15/142 80/15/127
f 314/15/154 312/15/152 87/15/150 79/15/126
f 312/15/152 314/15/154 80/15/127 88/15/151
f 315/15/155 316/15/156 91/15/157 89/15/158
f 316/15/156 315/15/155 90/15/159 92/15/160
f 316/15/156 317/15/161 93/15/162 91/15/157
f 317/15/161 316/15/156 92/15/160 94/15/163
f 317/15/161 315/15/155 89/15/158 93/15/162
f 315/15/155 317/15/161 94/15/163 90/15/159
f 318/15/164 319/15/165 89/15/158 91/15/157
f 319/15/165 318/15/164 92/15/160 90/15/159
f 319/15/165 320/15/166 95/15/167 89/15/158
f 320/15/166 319/15/165 90/15/159 96/15/168
f 320/15/166 318/15/164 91/15/157 95/15/167
f 318/15/164 320/15/166 96/15/168 92/15/160
f 321/15/169 322/15/170 97/15/171 93/15/162
f 322/15/170 321/15/169 94/15/163 98/15/172
f 322/15/170 323/15/173 89/15/158 97/15/171
f 323/15/173 322/15/170 98/15/172 90/15/159
f 323/15/173 321/15/169 93/15/162 89/15/158
f 321/15/169 323/15/173 90/15/159 94/15/163
f 324/15/174 325/15/175 91/15/157 99/15/176
f 325/15/175 324/15/174 100/15/177 92/15/160
f 325/15/175 326/15/178 95/15/167 91/15/157
f 326/15/178 325/15/175 92/15/160 96/15/168
f 326/15/178 324/15/174 99/15/176 95/15/167
f 324/15/174 326/15/178 96/15/168 100/15/177
f 327/15/179 328/15/180 101/15/181 93/15/162
f 328/15/180 327/15/179 94/15/163 102/15/182
f 328/15/180 329/15/183 97/15/171 101/15/181
f 329/15/183 328/15/180 102/15/182 98/15/172
f 329/15/183 327/15/179 93/15/162 97/15/171
f 327/15/179 329/15/183 98/15/172 94/15/163
f 330/15/184 331/15/185 99/15/176 91/15/157
f 331/15/185 330/15/184 92/15/160 100/15/177
f 331/15/185 332/15/186 103/15/187 99/15/176
f 332/15/186 331/15/185 100/15/177 104/15/188
f 332/15/186 330/15/184 91/15/157 103/15/187
f 330/15/184 332/15/186 104/15/188 92/15/160
f 333/15/189 334/15/190 97/15/171 105/15/191
f 334/15/190 333/15/189 106/15/192 98/15/172
f 334/15/190 335/15/193 101/15/181 97/15/171
f 335/15/193 334/15/190 98/15/172 102/15/182
f 335/15/193 333/15/189 105/15/191 101/15/181
f 333/15/189 335/15/193 102/15/182 106/15/192
f 336/15/194 337/15/195 103/15/187 107/15/196
f 337/15/195 336/15/194 108/15/197 104/15/188
f 337/15/195 338/15/198 99/15/176 103/15/187
f 338/15/198 337/15/195 104/15/188 100/15/177
f 338/15/198 336/15/194 107/15/196 99/15/176
f 336/15/194 338/15/198 100/15/177 108/15/197
f 339/15/199 340/15/200 105/15/191 97/15/171
f 340/15/200 339/15/199 98/15/172 106/15/192
f 340/15/200 341/15/201 109/15/202 105/15/191
f 341/15/201 340/15/200 106/15/192 110/15/203
f 341/15/201 339/15/199 97/15/171 109/15/202
f 339/15/199 341/15/201 110/15/203 98/15/172
f 342/15/204 343/15/205 107/15/196 103/15/187
f 343/15/205 342/15/204 104/15/188 108/15/197
f 343/15/205 344/15/206 111/15/207 107/15/196
f 344/15/206 343/15/205 108/15/197 112/15/208
f 344/15/206 342/15/204 103/15/187 111/15/207
f 342/15/204 344/15/206 112/15/208 104/15/188
f 345/15/209 346/15/210 109/15/202 113/15/211
f 346/15/210 345/15/209 114/15/212 110/15/203
f 346/15/210 347/15/213 105/15/191 109/15/202
f 347/15/213 346/15/210 110/15/203 106/15/192
f 347/15/213 345/15/209 113/15/211 105/15/191
f 345/15/209 347/15/213 106/15/192 114/15/212
f 348/15/214 349/15/215 115/15/216 107/15/196
f 349/15/215 348/15/214 108/15/197 116/15/217
f 349/15/215 350/15/218 111/15/207 115/15/216
f 350/15/218 349/15/215 116/15/217 112/15/208
f 350/15/218 348/15/214 107/15/196 111/15/207
f 348/15/214 350/15/218 112/15/208 108/15/197
f 351/15/219 352/15/220 113/15/211 109/15/202
f 352/15/220 351/15/219 110/15/203 114/15/212
f 352/15/220 353/15/221 117/15/222 113/15/211
f 353/15/221 352/15/220 114/15/212 118/15/223
f 353/15/221 351/15/219 109/15/202 117/15/222
f 351/15/219 353/15/221 118/15/223 110/15/203
f 354/15/224 355/15/225 107/15/196 115/15/216
f 355/15/225 354/15/224 116/15/217 108/15/197
f 355/15/225 356/15/226 119/15/227 107/15/196
f 356/15/226 355/15/225 108/15/197 120/15/228
f 356/15/226 354/15/224 115/15/216 119/15/227
f 354/15/224 356/15/226 120/15/228 116/15/217
f 357/15/229 358/15/230 117/15/222 119/15/227
f 358/15/230 357/15/229 120/15/228 118/15/223
f 358/15/230 359/15/231 113/15/211 117/15/222
f 359/15/231 358/15/230 118/15/223 114/15/212
f 359/15/231 357/15/229 119/15/227 113/15/211
f 357/15/229 359/15/231 114/15/212 120/15/228
f 360/15/232 361/15/233 115/15/216 113/15/211
f 361/15/233 360/15/232 114/15/212 116/15/217
f 361/15/233 362/15/234 119/15/227 115/15/216
f 362/15/234 361/15/233 116/15/217 120/15/228
f 362/15/234 360/15/232 113/15/211 119/15/227
f 360/15/232 362/15/234 120/15/228 114/15/212
f 363/15/235 364/15/236 123/15/237 121/15/238
f 364/15/236 363/15/235 122/15/239 124/15/240
f 364/15/236 365/15/241 125/15/242 123/15/237
f 365/15/241 364/15/236 124/15/240 126/15/243
f 365/15/241 363/15/235 121/15/238 125/15/242
f 363/15/235 365/15/241 126/15/243 122/15/239
f 366/15/244 367/15/245 125/15/242 127/15/246
f 367/15/245 366/15/244 128/15/247 126/15/243
f 367/15/245 368/15/248 123/15/237 125/15/242
f 368/15/248 367/15/245 126/15/243 124/15/240
f 368/15/248 366/15/244 127/15/246 123/15/237
f 366/15/244 368/15/248 124/15/240 128/15/247
f 369/15/249 370/15/250 125/15/242 121/15/238
f 370/15/250 369/15/249 122/15/239 126/15/243
f 370/15/250 371/15/251 129/15/252 125/15/242
f 371/15/251 370/15/250 126/15/243 130/15/253
f 371/15/251 369/15/249 121/15/238 129/15/252
f 369/15/249 371/15/251 130/15/253 122/15/239
f 372/15/254 373/15/255 127/15/246 125/15/242
f 373/15/255 372/15/254 126/15/243 128/15/247
f 373/15/255 374/15/256 131/15/257 127/15/246
f 374/15/256 373/15/255 128/15/247 132/15/258
f 374/15/256 372/15/254 125/15/242 131/15/257
f 372/15/254 374/15/256 132/15/258 126/15/243
f 375/15/259 376/15/260 121/15/238 133/15/261
f 376/15/260 375/15/259 134/15/262 122/15/239
f 376/15/260 377/15/263 129/15/252 121/15/238
f 377/15/263 376/15/260 122/15/239 130/15/253
f 377/15/263 375/15/259 133/15/261 129/15/252
f 375/15/259 377/15/263 130/15/253 134/15/262
f 378/15/264 379/15/265 131/15/257 135/15/266
f 379/15/265 378/15/264 136/15/267 132/15/258
f 379/15/265 380/15/268 127/15/246 131/15/257
f 380/15/268 379/15/265 132/15/258 128/15/247
f 380/15/268 378/15/264 135/15/266 127/15/246
f 378/15/264 380/15/268 128/15/247 136/15/267
f 381/15/269 382/15/270 129/15/252 133/15/261
f 382/15/270 381/15/269 134/15/262 130/15/253
f 382/15/270 383/15/271 137/15/272 129/15/252
f 383/15/271 382/15/270 130/15/253 138/15/273
f 383/15/271 381/15/269 133/15/261 137/15/272
f 381/15/269 383/15/271 138/15/273 134/15/262
f 384/15/274 385/15/275 135/15/266 131/15/257
f 385/15/275 384/15/274 132/15/258 136/15/267
f 385/15/275 386/15/276 139/15/277 135/15/266
f 386/15/276 385/15/275 136/15/267 140/15/278
f 386/15/276 384/15/274 131/15/257 139/15/277
f 384/15/274 386/15/276 140/15/278 132/15/258
f 387/15/279 388/15/280 141/15/281 137/15/272
f 388/15/280 387/15/279 138/15/273 142/15/282
f 388/15/280 389/15/283 133/15/261 141/15/281
f 389/15/283 388/15/280 142/15/282 134/15/262
f 389/15/283 387/15/279 137/15/272 133/15/261
f 387/15/279 389/15/283 134/15/262 138/15/273
f 390/15/284 391/15/285 139/15/277 143/15/286
f 391/15/285 390/15/284 144/15/287 140/15/278
f 391/15/285 392/15/288 135/15/266 139/15/277
f 392/15/288 391/15/285 140/15/278 136/15/267
f 392/15/288 390/15/284 143/15/286 135/15/266
f 390/15/284 392/15/288 136/15/267 144/15/287
f 393/15/289 394/15/290 137/15/272 141/15/281
f 394/15/290 393/15/289 142/15/282 138/15/273
f 394/15/290 395/15/291 145/15/292 137/15/272
f 395/15/291 394/15/290 138/15/273 146/15/293
f 395/15/291 393/15/289 141/15/281 145/15/292
f 393/15/289 395/15/291 146/15/293 142/15/282
f 396/15/294 397/15/295 143/15/286 139/15/277
f 397/15/295 396/15/294 140/15/278 144/15/287
f 397/15/295 398/15/296 147/15/297 143/15/286
f 398/15/296 397/15/295 144/15/287 148/15/298
f 398/15/296 396/15/294 139/15/277 147/15/297
f 396/15/294 398/15/296 148/15/298 140/15/278
f 399/15/299 400/15/300 141/15/281 149/15/301
f 400/15/300 399/15/299 150/15/302 142/15/282
f 400/15/300 401/15/303 145/15/292 141/15/281
f 401/15/303 400/15/300 142/15/282 146/15/293
f 401/15/303 399/15/299 149/15/301 145/15/292
f 399/15/299 401/15/303 146/15/293 150/15/302
f 402/15/304 403/15/305 147/15/297 151/15/306
f 403/15/305 402/15/304 152/15/307 148/15/298
f 403/15/305 404/15/308 143/15/286 147/15/297
f 404/15/308 403/15/305 148/15/298 144/15/287
f 404/15/308 402/15/304 151/15/306 143/15/286
f 402/15/304 404/15/308 144/15/287 152/15/307
f 405/15/309 406/15/310 149/15/301 141/15/281
f 406/15/310 405/15/309 142/15/282 150/15/302
f 406/15/310 407/15/311 151/15/306 149/15/301
f 407/15/311 406/15/310 150/15/302 152/15/307
f 407/15/311 405/15/309 141/15/281 151/15/306
f 405/15/309 407/15/311 152/15/307 142/15/282
f 408/15/312 409/15/313 151/15/306 147/15/297
f 409/15/313 408/15/312 148/15/298 152/15/307
f 409/15/313 410/15/314 149/15/301 151/15/306
f 410/15/314 409/15/313 152/15/307 150/15/302
f 410/15/314 408/15/312 147/15/297 149/15/301
f 408/15/312 410/15/314 150/15/302 148/15/298
f 411/15/315 412/15/316 155/15/317 153/15/318
f 412/15/316 411/15/315 154/15/319 156/15/320
f 412/15/316 413/15/321 157/15/322 155/15/317
f 413/15/321 412/15/316 156/15/320 158/15/323
f 413/15/321 411/15/315 153/15/318 157/15/322
f 411/15/315 413/15/321 158/15/323 154/15/319
f 414/15/324 415/15/325 157/15/322 159/15/326
f 415/15/325 414/15/324 160/15/327 158/15/323
f 415/15/325 416/15/328 155/15/317 157/15/322
f 416/15/328 415/15/325 158/15/323 156/15/320
f 416/15/328 414/15/324 159/15/326 155/15/317
f 414/15/324 416/15/328 156/15/320 160/15/327
f 417/15/329 418/15/330 153/15/318 155/15/317
f 418/15/330 417/15/329 156/15/320 154/15/319
f 418/15/330 419/15/331 161/15/332 153/15/318
f 419/15/331 418/15/330 154/15/319 162/15/333
f 419/15/331 417/15/329 155/15/317 161/15/332
f 417/15/329 419/15/331 162/15/333 156/15/320
f 420/15/334 421/15/335 163/15/336 155/15/317
f 421/15/335 420/15/334 156/15/320 164/15/337
f 421/15/335 422/15/338 159/15/326 163/15/336
f 422/15/338 421/15/335 164/15/337 160/15/327
f 422/15/338 420/15/334 155/15/317 159/15/326
f 420/15/334 422/15/338 160/15/327 156/15/320
f 423/15/339 424/15/340 161/15/332 165/15/341
f 424/15/340 423/15/339 166/15/342 162/15/333
f 424/15/340 425/15/343 153/15/318 161/15/332
f 425/15/343 424/15/340 162/15/333 154/15/319
f 425/15/343 423/15/339 165/15/341 153/15/318
f 423/15/339 425/15/343 154/15/319 166/15/342
f 426/15/344 427/15/345 167/15/346 163/15/336
f 427/15/345 426/15/344 164/15/337 168/15/347
f 427/15/345 428/15/348 159/15/326 167/15/346
f 428/15/348 427/15/345 168/15/347 160/15/327
f 428/15/348 426/15/344 163/15/336 159/15/326
f 426/15/344 428/15/348 160/15/327 164/15/337
f 429/15/349 430/15/350 153/15/318 165/15/341
f 430/15/350 429/15/349 166/15/342 154/15/319
f 430/15/350 431/15/351 169/15/352 153/15/318
f 431/15/351 430/15/350 154/15/319 170/15/353
f 431/15/351 429/15/349 165/15/341 169/15/352
f 429/15/349 431/15/351 170/15/353 166/15/342
f 432/15/354 433/15/355 163/15/336 167/15/346
f 433/15/355 432/15/354 168/15/347 164/15/337
f 433/15/355 434/15/356 171/15/357 163/15/336
f 434/15/356 433/15/355 164/15/337 172/15/358
f 434/15/356 432/15/354 167/15/346 171/15/357
f 432/15/354 434/15/356 172/15/358 168/15/347
f 435/15/359 436/15/360 165/15/341 173/15/361
f 436/15/360 435/15/359 174/15/362 166/15/342
f 436/15/360 437/15/363 169/15/352 165/15/341
f 437/15/363 436/15/360 166/15/342 170/15/353
f 437/15/363 435/15/359 173/15/361 169/15/352
f 435/15/359 437/15/363 170/15/353 174/15/362
f 438/15/364 439/15/365 167/15/346 175/15/366
f 439/15/365 438/15/364 176/15/367 168/15/347
f 439/15/365 440/15/368 171/15/357 167/15/346
f 440/15/368 439/15/365 168/15/347 172/15/358
f 440/15/368 438/15/364 175/15/366 171/15/357
f 438/15/364 440/15/368 172/15/358 176/15/367
f 441/15/369 442/15/370 169/15/352 173/15/361
f 442/15/370 441/15/369 174/15/362 170/15/353
f 442/15/370 443/15/371 177/15/372 169/15/352
f 443/15/371 442/15/370 170/15/353 178/15/373
f 443/15/371 441/15/369 173/15/361 177/15/372
f 441/15/369 443/15/371 178/15/373 174/15/362
f 444/15/374 445/15/375 175/15/366 167/15/346
f 445/15/375 444/15/374 168/15/347 176/15/367
f 445/15/375 446/15/376 179/15/377 175/15/366
f 446/15/376 445/15/375 176/15/367 180/15/378
f 446/15/376 444/15/374 167/15/346 179/15/377
f 444/15/374 446/15/376 180/15/378 168/15/347
f 447/15/379 448/15/380 173/15/361 181/15/381
f 448/15/380 447/15/379 182/15/382 174/15/362
f 448/15/380 449/15/383 177/15/372 173/15/361
f 449/15/383 448/15/380 174/15/362 178/15/373
f 449/15/383 447/15/379 181/15/381 177/15/372
f 447/15/379 449/15/383 178/15/373 182/15/382
f 450/15/384 451/15/385 179/15/377 183/15/386
f 451/15/385 450/15/384 184/15/387 180/15/378
f 451/15/385 452/15/388 175/15/366 179/15/377
f 452/15/388 451/15/385 180/15/378 176/15/367
f 452/15/388 450/15/384 183/15/386 175/15/366
f 450/15/384 452/15/388 176/15/367 184/15/387
f 453/15/389 454/15/390 181/15/381 173/15/361
f 454/15/390 453/15/389 174/15/362 182/15/382
f 454/15/390 455/15/391 183/15/386 181/15/381
f 455/15/391 454/15/390 182/15/382 184/15/387
f 455/15/391 453/15/389 173/15/361 183/15/386
f 453/15/389 455/15/391 184/15/387 174/15/362
f 456/15/392 457/15/393 183/15/386 179/15/377
f 457/15/393 456/15/392 180/15/378 184/15/387
f 457/15/393 458/15/394 181/15/381 183/15/386
f 458/15/394 457/15/393 184/15/387 182/15/382
f 458/15/394 456/15/392 179/15/377 181/15/381
f 456/15/392 458/15/394 182/15/382 180/15/378
f 459/15/395 460/15/396 187/15/397 185/15/398
f 460/15/396 459/15/395 186/15/399 188/15/400
f 460/15/396 461/15/401 189/15/402 187/15/397
f 461/15/401 460/15/396 188/15/400 190/15/403
f 461/15/401 459/15/395 185/15/398 189/15/402
f 459/15/395 461/15/401 190/15/403 186/15/399
f 462/15/404 463/15/405 191/15/406 187/15/397
f 463/15/405 462/15/404 188/15/400 192/15/407
f 463/15/405 464/15/408 189/15/402 191/15/406
f 464/15/408 463/15/405 192/15/407 190/15/403
f 464/15/408 462/15/404 187/15/397 189/15/402
f 462/15/404 464/15/408 190/15/403 188/15/400
f 465/15/409 466/15/410 189/15/402 185/15/398
f 466/15/410 465/15/409 186/15/399 190/15/403
f 466/15/410 467/15/411 193/15/412 189/15/402
f 467/15/411 466/15/410 190/15/403 194/15/413
f 467/15/411 465/15/409 185/15/398 193/15/412
f 465/15/409 467/15/411 194/15/413 186/15/399
f 468/15/414 469/15/415 195/15/416 187/15/397
f 469/15/415 468/15/414 188/15/400 196/15/417
f 469/15/415 470/15/418 191/15/406 195/15/416
f 470/15/418 469/15/415 196/15/417 192/15/407
f 470/15/418 468/15/414 187/15/397 191/15/406
f 468/15/414 470/15/418 192/15/407 188/15/400
f 471/15/419 472/15/420 185/15/398 197/15/421
f 472/15/420 471/15/419 198/15/422 186/15/399
f 472/15/420 473/15/423 193/15/412 185/15/398
f 473/15/423 472/15/420 186/15/399 194/15/413
f 473/15/423 471/15/419 197/15/421 193/15/412
f 471/15/419 473/15/423 194/15/413 198/15/422
f 474/15/424 475/15/425 199/15/426 195/15/416
f 475/15/425 474/15/424 196/15/417 200/15/427
f 475/15/425 476/15/428 191/15/406 199/15/426
f 476/15/428 475/15/425 200/15/427 192/15/407
f 476/15/428 474/15/424 195/15/416 191/15/406
f 474/15/424 476/15/428 192/15/407 196/15/417
f 477/15/429 478/15/430 193/15/412 197/15/421
f 478/15/430 477/15/429 198/15/422 194/15/413
f 478/15/430 479/15/431 201/15/432 193/15/412
f 479/15/431 478/15/430 194/15/413 202/15/433
f 479/15/431 477/15/429 197/15/421 201/15/432
f 477/15/429 479/15/431 202/15/433 198/15/422
f 480/15/434 481/15/435 203/15/436 195/15/416
f 481/15/435 480/15/434 196/15/417 204/15/437
f 481/15/435 482/15/438 199/15/426 203/15/436
f 482/15/438 481/15/435 204/15/437 200/15/427
f 482/15/438 480/15/434 195/15/416 199/15/426
f 480/15/434 482/15/438 200/15/427 196/15/417
f 483/15/439 484/15/440 197/15/421 205/15/441
f 484/15/440 483/15/439 206/15/442 198/15/422
f 484/15/440 485/15/443 201/15/432 197/15/421
f 485/15/443 484/15/440 198/15/422 202/15/433
f 485/15/443 483/15/439 205/15/441 201/15/432
f 483/15/439 485/15/443 202/15/433 206/15/442
f 486/15/444 487/15/445 207/15/446 203/15/436
f 487/15/445 486/15/444 204/15/437 208/15/447
f 487/15/445 488/15/448 199/15/426 207/15/446
f 488/15/448 487/15/445 208/15/447 200/15/427
f 488/15/448 486/15/444 203/15/436 199/15/426
f 486/15/444 488/15/448 200/15/427 204/15/437
f 489/15/449 490/15/450 201/15/432 205/15/441
f 490/15/450 489/15/449 206/15/442 202/15/433
f 490/15/450 491/15/451 209/15/452 201/15/432
f 491/15/451 490/15/450 202/15/433 210/15/453
f 491/15/451 489/15/449 205/15/441 209/15/452
f 489/15/449 491/15/451 210/15/453 206/15/442
f 492/15/454 493/15/455 211/15/456 203/15/436
f 493/15/455 492/15/454 204/15/437 212/15/457
f 493/15/455 494/15/458 207/15/446 211/15/456
f 494/15/458 493/15/455 212/15/457 208/15/447
f 494/15/458 492/15/454 203/15/436 207/15/446
f 492/15/454 494/15/458 208/15/447 204/15/437
f 495/15/459 496/15/460 205/15/441 213/15/461
f 496/15/460 495/15/459 214/15/462 206/15/442
f 496/15/460 497/15/463 209/15/452 205/15/441
f 497/15/463 496/15/460 206/15/442 210/15/453
f 497/15/463 495/15/459 213/15/461 209/15/452
f 495/15/459 497/15/463 210/15/453 214/15/462
f 498/15/464 499/15/465 215/15/466 211/15/456
f 499/15/465 498/15/464 212/15/457 216/15/467
f 499/15/465 500/15/468 207/15/446 215/15/466
f 500/15/468 499/15/465 216/15/467 208/15/447
f 500/15/468 498/15/464 211/15/456 207/15/446
f 498/15/464 500/15/468 208/15/447 212/15/457
f 501/15/469 502/15/470 209/15/452 213/15/461
f 502/15/470 501/15/469 214/15/462 210/15/453
f 502/15/470 503/15/471 215/15/466 209/15/452
f 503/15/471 502/15/470 210/15/453 216/15/467
f 503/15/471 501/15/469 213/15/461 215/15/466
f 501/15/469 503/15/471 216/15/467 214/15/462
f 504/15/472 505/15/473 213/15/461 211/15/456
f 505/15/473 504/15/472 212/15/457 214/15/462
f 505/15/473 506/15/474 215/15/466 213/15/461
f 506/15/474 505/15/473 214/15/462 216/15/467
f 506/15/474 504/15/472 211/15/456 215/15/466
f 504/15/472 506/15/474 216/15/467 212/15/457
f 507/15/475 508/15/476 219/15/477 217/15/478
f 508/15/476 507/15/475 218/15/479 220/15/480
f 508/15/476 509/15/481 221/15/482 219/15/477
f 509/15/481 508/15/476 220/15/480 222/15/483
f 509/15/481 507/15/475 217/15/478 221/15/482
f 507/15/475 509/15/481 222/15/483 218/15/479
f 510/15/484 511/15/485 219/15/477 221/15/482
f 511/15/485 510/15/484 222/15/483 220/15/480
f 511/15/485 512/15/486 223/15/487 219/15/477
f 512/15/486 511/15/485 220/15/480 224/15/488
f 512/15/486 510/15/484 221/15/482 223/15/487
f 510/15/484 512/15/486 224/15/488 222/15/483
f 513/15/489 514/15/490 225/15/491 217/15/478
f 514/15/490 513/15/489 218/15/479 226/15/492
f 514/15/490 515/15/493 219/15/477 225/15/491
f 515/15/493 514/15/490 226/15/492 220/15/480
f 515/15/493 513/15/489 217/15/478 219/15/477
f 513/15/489 515/15/493 220/15/480 218/15/479
f 516/15/494 517/15/495 223/15/487 221/15/482
f 517/15/495 516/15/494 222/15/483 224/15/488
f 517/15/495 518/15/496 227/15/497 223/15/487
f 518/15/496 517/15/495 224/15/488 228/15/498
f 518/15/496 516/15/494 221/15/482 227/15/497
f 516/15/494 518/15/496 228/15/498 222/15/483
f 519/15/499 520/15/500 225/15/491 229/15/501
f 520/15/500 519/15/499 230/15/502 226/15/492
f 520/15/500 521/15/503 217/15/478 225/15/491
f 521/15/503 520/15/500 226/15/492 218/15/479
f 521/15/503 519/15/499 229/15/501 217/15/478
f 519/15/499 521/15/503 218/15/479 230/15/502
f 522/15/504 523/15/505 223/15/487 227/15/497
f 523/15/505 522/15/504 228/15/498 224/15/488
f 523/15/505 524/15/506 231/15/507 223/15/487
f 524/15/506 523/15/505 224/15/488 232/15/508
f 524/15/506 522/15/504 227/15/497 231/15/507
f 522/15/504 524/15/506 232/15/508 228/15/498
f 525/15/509 526/15/510 233/15/511 229/15/501
f 526/15/510 525/15/509 230/15/502 234/15/512
f 526/15/510 527/15/513 225/15/491 233/15/511
f 527/15/513 526/15/510 234/15/512 226/15/492
f 527/15/513 525/15/509 229/15/501 225/15/491
f 525/15/509 527/15/513 226/15/492 230/15/502
f 528/15/514 529/15/515 231/15/507 227/15/497
f 529/15/515 528/15/514 228/15/498 232/15/508
f 529/15/515 530/15/516 235/15/517 231/15/507
f 530/15/516 529/15/515 232/15/508 236/15/518
f 530/15/516 528/15/514 227/15/497 235/15/517
f 528/15/514 530/15/516 236/15/518 228/15/498
f 531/15/519 532/15/520 233/15/511 237/15/521
f 532/15/520 531/15/519 238/15/522 234/15/512
f 532/15/520 533/15/523 229/15/501 233/15/511
f 533/15/523 532/15/520 234/15/512 230/15/502
f 533/15/523 531/15/519 237/15/521 229/15/501
f 531/15/519 533/15/523 230/15/502 238/15/522
f 534/15/524 535/15/525 231/15/507 235/15/517
f 535/15/525 534/15/524 236/15/518 232/15/508
f 535/15/525 536/15/526 239/15/527 231/15/507
f 536/15/526 535/15/525 232/15/508 240/15/528
f 536/15/526 534/15/524 235/15/517 239/15/527
f 534/15/524 536/15/526 240/15/528 236/15/518
f 537/15/529 538/15/530 241/15/531 237/15/521
f 538/15/530 537/15/529 238/15/522 242/15/532
f 538/15/530 539/15/533 233/15/511 241/15/531
f 539/15/533 538/15/530 242/15/532 234/15/512
f 539/15/533 537/15/529 237/15/521 233/15/511
f 537/15/529 539/15/533 234/15/512 238/15/522
f 540/15/534 541/15/535 239/15/527 235/15/517
f 541/15/535 540/15/534 236/15/518 240/15/528
f 541/15/535 542/15/536 243/15/537 239/15/527
f 542/15/536 541/15/535 240/15/528 244/15/538
f 542/15/536 540/15/534 235/15/517 243/15/537
f 540/15/534 542/15/536 244/15/538 236/15/518
f 543/15/539 544/15/540 241/15/531 245/15/541
f 544/15/540 543/15/539 246/15/542 242/15/532
f 544/15/540 545/15/543 237/15/521 241/15/531
f 545/15/543 544/15/540 242/15/532 238/15/522
f 545/15/543 543/15/539 245/15/541 237/15/521
f 543/15/539 545/15/543 238/15/522 246/15/542
f 546/15/544 547/15/545 239/15/527 243/15/537
f 547/15/545 546/15/544 244/15/538 240/15/528
f 547/15/545 548/15/546 247/15/547 239/15/527
f 548/15/546 547/15/545 240/15/528 248/15/548
f 548/15/546 546/15/544 243/15/537 247/15/547
f 546/15/544 548/15/546 248/15/548 244/15/538
f 549/15/549 550/15/550 247/15/547 245/15/541
f 550/15/550 549/15/549 246/15/542 248/15/548
f 550/15/550 551/15/551 241/15/531 247/15/547
f 551/15/551 550/15/550 248/15/548 242/15/532
f 551/15/551 549/15/549 245/15/541 241/15/531
f 549/15/549 551/15/551 242/15/532 246/15/542
f 552/15/552 553/15/553 247/15/547 243/15/537
f 553/15/553 552/15/552 244/15/538 248/15/548
f 553/15/553 554/15/554 245/15/541 247/15/547
f 554/15/554 553/15/553 248/15/548 246/15/542
f 554/15/554 552/15/552 243/15/537 245/15/541
f 552/15/552 554/15/554 246/15/542 244/15/538
