# Blender 5.2.0 LTS
# www.blender.org
mtllib SlimFists.mtl
o 1
v -1.984745 -0.338074 -0.338074
v -1.984745 0.338074 0.338074
v -1.984745 0.338074 -0.338074
v -1.984745 -0.338074 0.338074
v 2.205088 0.338074 -0.338074
v 2.205088 -0.338074 0.338074
v 2.205088 -0.338074 -0.338074
v 2.205088 0.338074 0.338074
v 2.149566 -0.338074 0.378165
v 2.149566 -0.378165 0.338074
v 2.205088 -0.338074 0.338074
v 2.205088 -0.338074 -0.338074
v 2.149566 -0.378165 -0.338074
v 2.149566 -0.338074 -0.378165
v 2.149566 0.338074 0.378165
v 2.205088 0.338074 0.338074
v 2.149566 0.378165 0.338074
v 2.149566 0.378165 -0.338074
v 2.205088 0.338074 -0.338074
v 2.149566 0.338074 -0.378165
v -1.929223 -0.338074 0.378165
v -1.984745 -0.338074 0.338074
v -1.929223 -0.378165 0.338074
v -1.929223 -0.378165 -0.338074
v -1.984745 -0.338074 -0.338074
v -1.929223 -0.338074 -0.378165
v -1.929223 0.338074 0.378165
v -1.929223 0.378165 0.338074
v -1.984745 0.338074 0.338074
v -1.984745 0.338074 -0.338074
v -1.929223 0.378165 -0.338074
v -1.929223 0.338074 -0.378165
v 2.205088 -0.338074 0.338074
v 2.149566 0.338074 0.378165
v 2.149566 -0.338074 0.378165
v 2.205088 0.338074 0.338074
v 2.205088 0.338074 -0.338074
v 2.149566 -0.338074 -0.378165
v 2.149566 0.338074 -0.378165
v 2.205088 -0.338074 -0.338074
v -1.984745 0.338074 0.338074
v -1.984745 -0.338074 0.338074
v -1.929223 -0.338074 0.378165
v -1.929223 0.338074 0.378165
v -1.984745 -0.338074 -0.338074
v -1.984745 0.338074 -0.338074
v -1.929223 0.338074 -0.378165
v -1.929223 -0.338074 -0.378165
v 2.149566 0.378165 0.338074
v -1.929223 0.378165 0.338074
v -1.929223 0.338074 0.378165
v 2.149566 0.338074 0.378165
v 2.149566 0.338074 -0.378165
v -1.929223 0.338074 -0.378165
v -1.929223 0.378165 -0.338074
v 2.149566 0.378165 -0.338074
v -1.929223 -0.378165 0.338074
v 2.149566 -0.378165 0.338074
v 2.149566 -0.338074 0.378165
v -1.929223 -0.338074 0.378165
v -1.929223 -0.338074 -0.378165
v 2.149566 -0.338074 -0.378165
v 2.149566 -0.378165 -0.338074
v -1.929223 -0.378165 -0.338074
v 2.149566 -0.378165 -0.338074
v -1.929223 -0.378165 0.338074
v -1.929223 -0.378165 -0.338074
v 2.149566 -0.378165 0.338074
v -1.929223 0.338074 -0.378165
v 2.149566 0.338074 -0.378165
v 2.149566 -0.338074 -0.378165
v -1.929223 -0.338074 -0.378165
v -1.929223 0.378165 -0.338074
v 2.149566 0.378165 0.338074
v 2.149566 0.378165 -0.338074
v -1.929223 0.378165 0.338074
v -1.929223 -0.338074 0.378165
v 2.149566 -0.338074 0.378165
v 2.149566 0.338074 0.378165
v -1.929223 0.338074 0.378165
vn -0.7946 -0.4293 -0.4293
vn -0.7946 0.4293 0.4293
vn -0.7946 0.4293 -0.4293
vn -0.7946 -0.4293 0.4293
vn 0.7946 0.4293 -0.4293
vn 0.7946 -0.4293 0.4293
vn 0.7946 -0.4293 -0.4293
vn 0.7946 0.4293 0.4293
vn 0.2538 -0.3516 0.9011
vn 0.2539 -0.9011 0.3516
vn 0.7946 -0.4294 -0.4293
vn 0.2538 -0.9011 -0.3515
vn 0.2539 -0.3515 -0.9011
vn 0.2539 0.3515 0.9011
vn 0.7946 0.4294 0.4293
vn 0.2538 0.9011 0.3515
vn 0.2539 0.9011 -0.3516
vn 0.2538 0.3516 -0.9011
vn -0.2539 -0.3515 0.9011
vn -0.7946 -0.4294 0.4293
vn -0.2538 -0.9011 0.3515
vn -0.2539 -0.9011 -0.3516
vn -0.2538 -0.3516 -0.9011
vn -0.2538 0.3516 0.9011
vn -0.2539 0.9011 0.3516
vn -0.7946 0.4294 -0.4293
vn -0.2538 0.9011 -0.3515
vn -0.2539 0.3515 -0.9011
vn 0.2538 0.3515 0.9011
vn 0.2538 -0.3515 -0.9011
vn -0.2538 -0.3516 0.9011
vn -0.2538 0.3516 -0.9011
vn 0.2539 0.9011 0.3516
vn -0.2539 0.3516 0.9011
vn 0.2539 0.3516 0.9011
vn 0.2539 0.3516 -0.9011
vn -0.2539 0.3516 -0.9011
vn -0.2539 0.9011 -0.3516
vn -0.2539 -0.9011 0.3516
vn 0.2539 -0.3516 0.9011
vn -0.2539 -0.3516 0.9011
vn -0.2539 -0.3516 -0.9011
vn 0.2539 -0.3516 -0.9011
vn 0.2539 -0.9011 -0.3516
vn 0.2539 -0.9011 -0.3515
vn -0.2539 -0.9011 0.3515
vn -0.2538 -0.9011 -0.3516
vn 0.2538 -0.9011 0.3516
vn 0.2539 0.3515 -0.9011
vn 0.2538 -0.3516 -0.9011
vn -0.2539 -0.3515 -0.9011
vn -0.2539 0.9011 -0.3515
vn 0.2539 0.9011 0.3515
vn 0.2538 0.9011 -0.3516
vn -0.2538 0.9011 0.3516
vn 0.2539 -0.3515 0.9011
vn 0.2538 0.3516 0.9011
vn -0.2539 0.3515 0.9011
vt 0.372650 0.019678
vt 0.478632 0.130590
vt 0.372650 0.130590
vt 0.478632 0.019678
vt 0.478632 0.481216
vt 0.372650 0.370304
vt 0.478632 0.370304
vt 0.372650 0.481216
vt 0.478632 0.363148
vt 0.478632 0.137746
vt 0.365812 0.363148
vt 0.365812 0.137746
vt 0.140171 0.137746
vt 0.140171 0.363148
vt 0.252991 0.137746
vt 0.252991 0.363148
vt 0.147009 0.137746
vt 0.147009 0.363148
vt 0.259829 0.363148
vt 0.259829 0.137746
vt 0.372650 0.137746
vt 0.372650 0.363148
vt 0.034188 0.363148
vt 0.034188 0.137746
s 1
f 1/1/1 2/2/2 3/3/3
f 2/2/2 1/1/1 4/4/4
f 5/5/5 6/6/6 7/7/7
f 6/6/6 5/5/5 8/8/8
f 9/6/9 10/6/10 11/6/6
f 10/6/10 12/7/11 11/6/6
f 12/7/11 10/6/10 13/7/12
f 13/7/12 14/7/13 12/7/11
f 15/8/14 16/8/15 17/8/16
f 18/5/17 17/8/16 16/8/15
f 16/8/15 19/5/5 18/5/17
f 20/5/18 18/5/17 19/5/5
f 21/4/19 22/4/20 23/4/21
f 24/1/22 23/4/21 22/4/20
f 22/4/20 25/1/1 24/1/22
f 26/1/23 24/1/22 25/1/1
f 27/2/24 28/2/25 29/2/2
f 30/3/26 29/2/2 28/2/25
f 28/2/25 31/3/27 30/3/26
f 32/3/28 30/3/26 31/3/27
f 33/6/6 34/8/29 35/6/9
f 34/8/29 33/6/6 36/8/8
f 37/5/5 38/7/30 39/5/18
f 38/7/30 37/5/5 40/7/7
f 41/2/2 42/4/4 43/4/31
f 43/4/31 44/2/24 41/2/2
f 45/1/1 46/3/3 47/3/32
f 47/3/32 48/1/23 45/1/1
f 49/9/33 50/10/25 51/10/34
f 49/9/33 51/10/34 52/9/35
f 53/11/36 54/12/37 55/12/38
f 53/11/36 55/12/38 56/11/17
f 57/13/39 58/14/10 59/14/40
f 57/13/39 59/14/40 60/13/41
f 61/15/42 62/16/43 63/16/44
f 61/15/42 63/16/44 64/15/22
f 65/16/45 66/17/46 67/15/47
f 66/17/46 65/16/45 68/18/48
f 69/12/32 70/11/49 71/19/50
f 69/12/32 71/19/50 72/20/51
f 73/21/52 74/9/53 75/22/54
f 74/9/53 73/21/52 76/10/55
f 77/13/31 78/14/56 79/23/57
f 77/13/31 79/23/57 80/24/58
